<ttFont>
          <CharString index="0">
            -106 callgsubr
            endchar
          </CharString>
          <CharString index="1">
            rmoveto
            5 6 3 5 5 vvcurveto
            7 -6 8 -9 -5 -6 -2 -6 -5 vhcurveto
            -98 -103 -98 103 rlineto
            6 -5 -6 2 -5 hhcurveto
            -9 -6 -8 -7 -5 3 -5 5 -6 hvcurveto
            100 -101 rlineto
            -7 6 8 -4 7 hhcurveto
            7 7 4 7 7 hvcurveto
            return
          </CharString>
          <CharString index="2">
            -18 -12 -12 -17 -17 12 -13 18 17 12 13 17 17 -12 12 -17 hvcurveto
            return
          </CharString>
          <CharString index="3">
            rmoveto
            -2 3 3 -1 3 hhcurveto
            10 -10 callsubr
            5 -2 5 -6 3 hvcurveto
            -102 60 7 callsubr
            -3 1 -2 hhcurveto
            -10 -6 -9 -9 -7 3 -7 7 -4 hvcurveto
            return
          </CharString>
          <CharString index="4">
            -51 -27 37 -49 hhcurveto
            -36 -53 -26 -26 -11 6 -6 7 hvcurveto
            14 12 35 43 56 25 -37 48 hhcurveto
            32 52 20 31 9 -7 6 -7 hvcurveto
            -16 -3 -32 -46 hhcurveto
            return
          </CharString>
          <CharString index="5">
            617 472 rmoveto
            -7 -7 -4 -7 -2 hvcurveto
            -144 -396 -111 367 rlineto
            8 -3 -6 5 -9 hhcurveto
            -9 -6 -5 -8 -3 hvcurveto
            -115 -362 -141 391 rlineto
            7 -3 -7 4 -7 hhcurveto
            -17 callsubr
            -10 -3 3 -8 1 -2 hvcurveto
            156 -430 rlineto
            -14 5 3 -3 9 hhcurveto
            8 5 5 12 4 hvcurveto
            115 369 117 -375 rlineto
            -8 4 2 -3 8 hhcurveto
            7 5 3 8 callsubr
            157 435 rlineto
            1 2 0 callsubr
            vvcurveto
            11 -8 6 -10 vhcurveto
            return
          </CharString>
          <CharString index="6">
            431 348 rmoveto
            -148 vlineto
            -81 callgsubr
            -76 callgsubr
            88 60 -41 -90 12 vhcurveto
            -12 1 8 -6 9 hhcurveto
            9 9 6 14 92 -73 73 -123 -70 callsubr
            hvcurveto
            -24 callsubr
            -150 85 -56 110 110 86 56 150 vhcurveto
            165 vlineto
            10 -6 9 -11 vhcurveto
            -178 hlineto
            -11 -6 -9 -9 -9 6 -9 11 hvcurveto
            return
          </CharString>
          <CharString index="7">
            rmoveto
            -64 -17 34 21 8 -4 6 -14 -10 -5 -3 -14 -38 37 -45 78 64 51 29 77 hvcurveto
            9 vlineto
            44 -24 25 -33 12 vhcurveto
            26 11 20 28 46 vvcurveto
            64 -41 24 -60 -89 -19 -54 -27 -15 4 -4 13 11 5 6 10 21 13 32 61 48 21 -21 -43 -49 -25 -15 -46 -10 -4 -7 -8 -7 4 -7 10 50 32 -20 -46 vhcurveto
            -9 vlineto
            -52 -30 -23 -53 vhcurveto
            return
          </CharString>
          <CharString index="8">
            rmoveto
            2 4 1 3 4 vvcurveto
            11 -18 callgsubr
            -5 -5 -2 -6 -3 vhcurveto
            -391 -756 -4 callgsubr
            0 -3 -3 vvcurveto
            return
          </CharString>
          <CharString index="9">
            481 695 rmoveto
            4 8 1 7 5 vvcurveto
            10 -5 6 -7 -6 -8 -5 -12 -6 vhcurveto
            -200 -401 -199 401 rlineto
            12 -6 -8 5 -6 hhcurveto
            -7 -6 -6 -10 -5 2 -7 4 -8 hvcurveto
            207 -416 rlineto
            1 -64 callgsubr
            -255 vlineto
            -97 callgsubr
            255 vlineto
            2 0 2 1 2 vhcurveto
            return
          </CharString>
          <CharString index="10">
            -63 callgsubr
            -9 -9 -5 -12 vhcurveto
            return
          </CharString>
          <CharString index="11">
            hstem
            83 -26 callsubr
            vstem
            83 -85 callgsubr
            330 148 vlineto
            160 -312 rlineto
            -14 7 8 -22 14 hhcurveto
            10 8 8 10 3 -1 4 -2 4 hvcurveto
            -165 321 rlineto
            93 11 75 51 128 vvcurveto
            145 -96 46 -110 vhcurveto
            -167 hlineto
            -11 -1 -7 -7 -9 vvcurveto
            185 -19 rmoveto
            100 70 -44 -111 -111 -70 -45 -100 hvcurveto
            -149 311 hlineto
            return
          </CharString>
          <CharString index="12">
            -100 callgsubr
            hintmask 01111110
            -87 callgsubr
            hintmask 10111110
            -79 callsubr
            return
          </CharString>
          <CharString index="13">
            77 -50 30 -65 -65 -50 -30 -77 vhcurveto
            -155 vlineto
            -78 50 -29 65 vhcurveto
            82 107 rmoveto
            -52 -31 -24 -51 -51 -30 24 52 vhcurveto
            155 vlineto
            52 30 24 51 51 31 -24 -52 vhcurveto
            return
          </CharString>
          <CharString index="14">
            91 69 54 68 78 64 -72 -73 vhcurveto
            -280 vlineto
            -12 9 -6 8 -19 callgsubr
            vhcurveto
            280 vlineto
            99 -82 81 -98 -67 -45 -37 -39 -22 vhcurveto
            return
          </CharString>
          <CharString index="15">
            rmoveto
            -9 8 -4 9 8 8 4 9 vhcurveto
            340 vlineto
            8 -7 5 -7 -7 -4 -3 -4 -3 vhcurveto
            -45 -59 rlineto
            -2 -2 -5 -8 -5 vvcurveto
            -7 6 -7 8 3 4 1 5 3 vhcurveto
            23 32 rlineto
            return
          </CharString>
          <CharString index="16">
            -135 -17 86 -19 hhcurveto
            -7 -10 -11 -10 -27 65 -74 128 115 83 59 142 hvcurveto
            285 -337 -134 215 vvcurveto
            108 85 26 75 vhcurveto
            90 37 -38 14 hhcurveto
            9 9 14 8 23 -76 29 -82 hvcurveto
            return
          </CharString>
          <CharString index="17">
            420 hmoveto
            12 6 9 9 -68 callgsubr
            -12 hvcurveto
            -346 hlineto
            349 664 rlineto
            3 5 2 6 5 vvcurveto
            9 -6 6 -12 vhcurveto
            -355 hlineto
            -12 -6 -9 -9 -9 6 -9 12 hvcurveto
            325 hlineto
            -350 -666 rlineto
            -2 -4 -1 -4 -4 vvcurveto
            -10 -17 callgsubr
            return
          </CharString>
          <CharString index="18">
            rmoveto
            -15 6 -5 10 11 7 7 6 40 29 19 40 53 25 -34 -32 vhcurveto
            -87 -190 -37 -83 vvcurveto
            -48 vlineto
            -8 9 -5 7 vhcurveto
            199 hlineto
            7 6 8 8 8 -6 7 -7 hvcurveto
            -181 30 hlineto
            67 189 34 107 vvcurveto
            54 -45 43 -65 -59 -45 -35 -49 vhcurveto
            return
          </CharString>
          <CharString index="19">
            -20 hstemhm
            76 -26 callsubr
            hintmask 10011110
            -66 callsubr
            hintmask 01101110
            -7 1 -11 17 12 6 5 23 78 -64 79 -128 -108 -91 -56 -150 vhcurveto
            -24 callsubr
            -150 89 -56 107 128 67 79 77 23 -6 6 -12 -15 -2 -9 -9 -1 vhcurveto
            hintmask 10101110
            -56 callsubr
            return
          </CharString>
          <CharString index="20">
            -42 -35 37 46 hvcurveto
            -32 hlineto
            -59 51 -50 58 57 52 50 59 vhcurveto
            return
          </CharString>
          <CharString index="21">
            31 -417 rmoveto
            -62 -53 -40 -99 -101 -58 41 59 56 52 27 53 15 vhcurveto
            64 -9 142 8 -95 vvcurveto
            39 555 rmoveto
            -48 callgsubr
            12 10 -6 10 -15 -25 -32 -27 -34 -18 hvcurveto
            return
          </CharString>
          <CharString index="22">
            312 160 -88 callgsubr
            -160 return
          </CharString>
          <CharString index="23">
            -107 callgsubr
            242 54 -107 callgsubr
            endchar
          </CharString>
          <CharString index="24">
            rmoveto
            -51 -39 -44 -47 -49 40 -44 50 47 43 44 49 48 -43 43 -47 hvcurveto
            65 -91 rmoveto
            -35 -30 -35 -35 -36 -30 35 35 31 29 34 37 35 30 -34 -31 vhcurveto
            return
          </CharString>
          <CharString index="25">
            -45 -16 -46 -34 -61 vvcurveto
            -79 78 -50 116 115 72 49 86 vhcurveto
            180 -316 -103 101 vvcurveto
            26 20 13 20 9 vhcurveto
            -14 24 28 -7 30 hhcurveto
            return
          </CharString>
          <CharString index="26">
            -20 hstemhm
            52 35 hintmask 01101100
            235 -6 rmoveto
            85 52 38 21 9 -8 8 -9 hvcurveto
            hintmask 10011100
            -68 callsubr
            hintmask 01101100
            79 17 -41 17 hhcurveto
            -19 callsubr
            21 -51 38 -80 -125 -58 -80 -102 hvcurveto
            -120 vlineto
            -104 59 -78 124 vhcurveto
            return
          </CharString>
          <CharString index="27">
            -53 callgsubr
            7 6 0 callsubr
            vhcurveto
            return
          </CharString>
          <CharString index="28">
            -43 -76 -67 -75 -58 -45 30 67 87 96 10 103 vhcurveto
            55 hlineto
            return
          </CharString>
          <CharString index="29">
            rmoveto
            -7 4 5 -2 6 hhcurveto
            -48 callgsubr
            10 20 callsubr
            -96 177 96 178 rlineto
            2 3 1 3 3 vvcurveto
            9 -7 8 -9 -7 -7 -3 -6 -3 vhcurveto
            -96 -178 rlineto
            -3 -5 -2 -6 -6 vvcurveto
            -6 2 -6 3 -5 vhcurveto
            return
          </CharString>
          <CharString index="30">
            92 0 36 331 35 293 36 hstem
            93 -26 callsubr
            vstem
            111 731 rmoveto
            -11 -7 -8 -9 hvcurveto
            -312 -73 vlineto
            -73 callgsubr
            73 -350 hlineto
            -79 callgsubr
            331 131 hlineto
            -94 callgsubr
            -131 293 hlineto
            endchar
          </CharString>
          <CharString index="31">
            -82 -115 -28 -145 hvcurveto
            -248 337 137 -255 vvcurveto
            -106 -58 -56 -109 vhcurveto
            return
          </CharString>
          <CharString index="32">
            hstem
            210 36 vstem
            210 695 rmoveto
            -677 vlineto
            -97 callgsubr
            677 177 vlineto
            13 5 10 9 9 -6 8 -12 hvcurveto
            -391 hlineto
            -11 -7 -9 -9 -27 callsubr
            11 hvcurveto
            return
          </CharString>
          <CharString index="33">
            347 269 rmoveto
            -75 -48 -56 -78 -80 -47 57 75 vhcurveto
            44 vlineto
            73 46 56 80 80 47 -56 -73 vhcurveto
            return
          </CharString>
          <CharString index="34">
            768 -55 callsubr
            -61 callsubr
            return
          </CharString>
          <CharString index="35">
            39 -22 -45 37 -67 hhcurveto
            -98 -82 -81 -99 hvcurveto
            -122 vlineto
            -95 83 -87 95 61 53 35 41 22 vhcurveto
            return
          </CharString>
          <CharString index="36">
            10 -8 7 -10 return
          </CharString>
          <CharString index="37">
            -110 -85 -56 -150 return
          </CharString>
          <CharString index="38">
            -10 7 -7 10 vhcurveto
            return
          </CharString>
          <CharString index="39">
            -18 -17 -41 -84 hhcurveto
            -98 -51 56 91 hvcurveto
            120 vlineto
            91 52 56 96 vhcurveto
            return
          </CharString>
          <CharString index="40">
            rmoveto
            -35 -31 -10 -24 -19 hvcurveto
            77 vlineto
            52 30 24 51 45 37 -22 -34 -11 9 -4 8 10 6 5 11 43 -40 43 -74 -65 -51 -30 -77 vhcurveto
            -131 vlineto
            -96 37 -35 78 -1 callsubr
            vhcurveto
            12 vlineto
            76 -49 24 -62 vhcurveto
            -85 -97 rmoveto
            49 32 19 49 51 31 -20 -53 vhcurveto
            -12 vlineto
            -51 -31 -24 -51 -51 -30 24 51 vhcurveto
            endchar
          </CharString>
          <CharString index="41">
            112 525 rmoveto
            116 57 54 105 130 24 -83 -48 3 vhcurveto
            return
          </CharString>
          <CharString index="42">
            110 86 56 150 hvcurveto
            return
          </CharString>
          <CharString index="43">
            -45 -6 35 -8 -21 223 -46 callgsubr
            return
          </CharString>
          <CharString index="44">
            -79 callsubr
            endchar
          </CharString>
          <CharString index="45">
            12 33 27 57 hhcurveto
            99 36 -81 -76 hvcurveto
            -29 -56 vlineto
            -139 -92 -26 -107 -89 63 -42 73 58 71 27 77 41 hvcurveto
            -67 30 70 -37 73 hhcurveto
            65 85 29 29 11 -11 7 -7 hvcurveto
            -18 -21 -41 -81 hhcurveto
            -94 -71 56 91 hvcurveto
            47 235 vlineto
            70 13 10 51 144 -103 50 -75 -70 -59 -43 -57 -29 hvcurveto
            return
          </CharString>
          <CharString index="46">
            -733 -90 callgsubr
            return
          </CharString>
          <CharString index="47">
            96 67 71 95 hvcurveto
            45 vlineto
            34 -8 34 -17 24 vhcurveto
            37 19 24 9 17 hhcurveto
            return
          </CharString>
          <CharString index="48">
            279 443 rmoveto
            -57 callsubr
            -37 hlineto
            -70 -46 -37 -39 -23 hvcurveto
            53 vlineto
            return
          </CharString>
          <CharString index="49">
            -100 -59 -39 callsubr
            return
          </CharString>
          <CharString index="50">
            9 8 8 -25 callsubr
            -9 hvcurveto
            return
          </CharString>
          <CharString index="51">
            -52 -8 -13 -79 -132 hhcurveto
            -109 -57 53 117 hvcurveto
            return
          </CharString>
          <CharString index="52">
            rmoveto
            -10 -7 -5 callsubr
            return
          </CharString>
          <CharString index="53">
            -69 callgsubr
            hvcurveto
            endchar
          </CharString>
          <CharString index="54">
            -42 callsubr
            5 -9 return
          </CharString>
          <CharString index="55">
            696 -95 callgsubr
            return
          </CharString>
          <CharString index="56">
            -80 callsubr
            endchar
          </CharString>
          <CharString index="57">
            -4 callgsubr
            0 -3 -3 vvcurveto
            -80 callsubr
            return
          </CharString>
          <CharString index="58">
            21 -21 731 -20 return
          </CharString>
          <CharString index="59">
            58 -21 -47 43 -83 hhcurveto
            169 -221 rmoveto
            44 vlineto
            75 60 66 81 86 56 -75 -75 -27 -7 -8 -53 vhcurveto
            -262 -119 rmoveto
            -41 -67 -69 -83 -57 -45 32 63 89 91 10 106 vhcurveto
            55 hlineto
            return
          </CharString>
          <CharString index="60">
            194 478 -100 callgsubr
            return
          </CharString>
          <CharString index="61">
            rmoveto
            -20 -15 -16 -20 -16 11 -15 16 -4 hvcurveto
            -18 -51 rlineto
            -1 -3 0 -2 -3 vvcurveto
            -8 8 -5 8 7 6 4 7 3 vhcurveto
            30 77 1 12 6 vvcurveto
            25 -19 12 -17 vhcurveto
            endchar
          </CharString>
          <CharString index="62">
            44 -6 36 -36 185 367 185 -36 36 return
          </CharString>
          <CharString index="63">
            -21 177 36 524 -20 return
          </CharString>
          <CharString index="64">
            rmoveto
            -21 -15 -16 -20 -16 11 -15 16 -4 hvcurveto
            -18 -51 -49 callgsubr
            -53 callgsubr
            5 6 4 6 3 vhcurveto
            16 32 17 49 16 vvcurveto
            20 -16 16 -19 vhcurveto
            return
          </CharString>
          <CharString index="65">
            8 callgsubr
            12 -9 return
          </CharString>
          <CharString index="66">
            -9 5 -9 return
          </CharString>
          <CharString index="67">
            26 -26 109 hstemhm
            return
          </CharString>
          <CharString index="68">
            54 -11 callgsubr
            return
          </CharString>
          <CharString index="69">
            -266 -49 callsubr
            return
          </CharString>
          <CharString index="70">
            35 279 35 return
          </CharString>
          <CharString index="71">
            -22 -237 32 308 35 305 35 return
          </CharString>
          <CharString index="72">
            75 -6 36 665 36 return
          </CharString>
          <CharString index="73">
            81 -6 -13 callsubr
            return
          </CharString>
          <CharString index="74">
            -21 443 35 return
          </CharString>
          <CharString index="75">
            hvcurveto
            -573 vlineto
            -10 7 -7 9 10 9 7 10 vhcurveto
            420 139 vlineto
            10 -3 callgsubr
            -10 hvcurveto
            -139 118 hlineto
            return
          </CharString>
          <CharString index="76">
            478 rmoveto
            return
          </CharString>
          <CharString index="77">
            vhcurveto
            -280 vlineto
            -9 8 -9 9 10 8 9 9 vhcurveto
            280 vlineto
            return
          </CharString>
          <CharString index="78">
            -34 -59 -76 -79 -76 -65 72 75 vhcurveto
            return
          </CharString>
          <CharString index="79">
            15 -21 478 -20 return
          </CharString>
          <CharString index="80">
            -9 7 -9 return
          </CharString>
          <CharString index="81">
            -43 callgsubr
            36 return
          </CharString>
          <CharString index="82">
            9 7 callgsubr
            return
          </CharString>
          <CharString index="83">
            -325 vlineto
            return
          </CharString>
          <CharString index="84">
            271 -28 callsubr
            279 -20 return
          </CharString>
          <CharString index="85">
            hstemhm
            42 54 -36 36 301 36 return
          </CharString>
          <CharString index="86">
            -6 -47 callgsubr
            return
          </CharString>
          <CharString index="87">
            -96 82 -86 95 return
          </CharString>
          <CharString index="88">
            9 9 8 9 return
          </CharString>
          <CharString index="89">
            140 -180 rmoveto
            -74 -63 -70 -77 -77 -62 70 74 72 61 70 78 78 62 -70 -72 vhcurveto
            endchar
          </CharString>
          <CharString index="90">
            -10 -8 -8 return
          </CharString>
          <CharString index="91">
            -21 143 -20 hstem
            return
          </CharString>
          <CharString index="92">
            -9 callsubr
            -86 56 -110 return
          </CharString>
          <CharString index="93">
            hstemhm
            35 35 254 35 return
          </CharString>
          <CharString index="94">
            36 701 -20 return
          </CharString>
          <CharString index="95">
            -20 -11 callsubr
            return
          </CharString>
          <CharString index="96">
            hstem
            50 35 285 11 callgsubr
            return
          </CharString>
          <CharString index="97">
            9 8 10 return
          </CharString>
          <CharString index="98">
            vlineto
            150 return
          </CharString>
          <CharString index="99">
            rlineto
            -2 3 3 -1 3 hhcurveto
            9 10 7 10 6 -4 6 -5 3 hvcurveto
            -258 return
          </CharString>
          <CharString index="100">
            66 rmoveto
            -21 -15 -16 -20 -19 15 -17 21 19 16 17 19 20 -16 16 -19 hvcurveto
            return
          </CharString>
          <CharString index="101">
            -21 -15 -16 -20 -19 15 -17 21 19 16 17 19 20 -16 16 -19 hvcurveto
            endchar
          </CharString>
          <CharString index="102">
            -7 -10 hvcurveto
            return
          </CharString>
          <CharString index="103">
            15 -6 35 443 -20 return
          </CharString>
          <CharString index="104">
            -13 -21 callsubr
            return
          </CharString>
          <CharString index="105">
            10 10 8 9 return
          </CharString>
          <CharString index="106">
            65 50 29 78 return
          </CharString>
          <CharString index="107">
            3 8 4 return
          </CharString>
          <CharString index="108">
            rlineto
            3 3 2 5 5 vvcurveto
            9 -8 8 -9 -5 -5 -2 -3 -3 vhcurveto
            return
          </CharString>
          <CharString index="109">
            rlineto
            -5 3 6 -3 5 hhcurveto
            10 8 8 9 4 -1 -27 callgsubr
            hvcurveto
            return
          </CharString>
          <CharString index="110">
            -73 -237 35 680 -20 return
          </CharString>
          <CharString index="111">
            186 -28 callsubr
            return
          </CharString>
          <CharString index="112">
            -33 callsubr
            290 -20 return
          </CharString>
          <CharString index="113">
            21 -2 callgsubr
            return
          </CharString>
          <CharString index="114">
            rlineto
            1 -2 return
          </CharString>
          <CharString index="115">
            9 3 hvcurveto
            return
          </CharString>
          <CharString index="116">
            30 160 29 119 31 hstem
            50 -13 callgsubr
            vstem
            169 return
          </CharString>
          <CharString index="117">
            -216 -21 231 -47 callgsubr
            return
          </CharString>
          <CharString index="118">
            31 158 29 120 31 hstem
            33 34 162 34 vstem
            85 return
          </CharString>
          <CharString index="119">
            -120 -21 162 -34 callgsubr
            hstemhm
            68 35 return
          </CharString>
          <CharString index="120">
            vvcurveto
            -28 callgsubr
            6 7 3 10 5 vhcurveto
            43 80 rlineto
            return
          </CharString>
          <CharString index="121">
            -21 86 32 248 -20 hstem
            175 33 vstem
            175 return
          </CharString>
          <CharString index="122">
            365 -20 57 -20 hstemhm
            86 33 return
          </CharString>
          <CharString index="123">
            21 -21 348 -37 callgsubr
            return
          </CharString>
          <CharString index="124">
            -34 callgsubr
            hstemhm
            68 -37 callsubr
            return
          </CharString>
          <CharString index="125">
            31 303 32 hstem
            37 43 147 33 vstem
            46 return
          </CharString>
          <CharString index="126">
            -17 callgsubr
            297 return
          </CharString>
          <CharString index="127">
            3 -1 -27 callgsubr
            hvcurveto
            return
          </CharString>
          <CharString index="128">
            vhcurveto
            hintmask 11100000
            -13 -4 -10 -7 -11 9 -7 8 return
          </CharString>
          <CharString index="129">
            -67 callgsubr
            hstemhm
            return
          </CharString>
          <CharString index="130">
            rlineto
            -2 -4 -1 -4 -3 vvcurveto
            -18 callgsubr
            10 return
          </CharString>
          <CharString index="131">
            0 36 659 36 return
          </CharString>
          <CharString index="132">
            -207 29 86 27 return
          </CharString>
          <CharString index="133">
            100 60 -54 -116 return
          </CharString>
          <CharString index="134">
            hlineto
            10 7 7 10 10 -7 8 -10 hvcurveto
            return
          </CharString>
          <CharString index="135">
            0 10 callsubr
            return
          </CharString>
          <CharString index="136">
            12 -7 5 -9 -13 -5 -8 -9 -5 vhcurveto
            return
          </CharString>
          <CharString index="137">
            76 -43 callgsubr
            return
          </CharString>
        <CharString name=".notdef">
          -151 116 -21 283 -20 hstem
          239 378 rmoveto
          -5 -6 -3 -5 -3 hvcurveto
          -66 -102 -66 102 rlineto
          5 -4 -5 3 -6 hhcurveto
          -17 callsubr
          -10 -3 1 -3 2 -3 hvcurveto
          74 -115 -74 -114 -4 callgsubr
          -1 -3 -4 vvcurveto
          -28 callgsubr
          6 5 3 5 4 vhcurveto
          66 100 65 -100 2 callsubr
          -73 114 74 115 rlineto
          2 3 1 3 3 vvcurveto
          11 -27 callsubr
          vhcurveto
          endchar
        </CharString>
        <CharString name="A">
          -51 callgsubr
          hstem
          -105 callgsubr
          endchar
        </CharString>
        <CharString name="AE">
          212 -55 callgsubr
          hstem
          79 36 247 36 vstem
          398 695 rmoveto
          237 hlineto
          11 6 9 10 8 -5 9 -12 hvcurveto
          -360 hlineto
          -110 -86 -56 -150 hvcurveto
          -502 vlineto
          -13 5 -10 13 16 2 10 13 vhcurveto
          325 247 -330 vlineto
          -12 -68 callgsubr
          vhcurveto
          255 -88 callgsubr
          -237 -85 callsubr
          hlineto
          -283 141 rmoveto
          116 60 54 100 vhcurveto
          87 -311 -247 hlineto
          endchar
        </CharString>
        <CharString name="AEacute">
          212 -55 callgsubr
          222 -20 hstem
          79 36 247 36 vstem
          398 695 rmoveto
          237 hlineto
          11 6 9 10 8 -5 9 -12 hvcurveto
          -360 hlineto
          -110 -86 -56 -150 hvcurveto
          -502 vlineto
          -13 5 -10 13 16 2 10 13 vhcurveto
          325 247 -330 vlineto
          -12 -68 callgsubr
          vhcurveto
          255 -88 callgsubr
          -237 -85 callsubr
          hlineto
          -283 141 rmoveto
          116 60 54 100 vhcurveto
          87 -311 -247 hlineto
          283 533 -107 callgsubr
          endchar
        </CharString>
        <CharString name="Aacute">
          -51 callgsubr
          236 -20 hstem
          -105 callgsubr
          -81 704 -107 callgsubr
          endchar
        </CharString>
        <CharString name="Abreve">
          -51 callgsubr
          143 -40 callsubr
          151 -12 callgsubr
          hintmask 11101110
          -105 callgsubr
          -62 756 rmoveto
          hintmask 11110110
          -39 callgsubr
          hintmask 11101110
          -87 callsubr
          endchar
        </CharString>
        <CharString name="Acircumflex">
          -51 callgsubr
          236 -20 hstem
          -105 callgsubr
          -138 705 rmoveto
          -107 callsubr
        </CharString>
        <CharString name="Adieresis">
          -51 callgsubr
          142 59 hstem
          175 59 52 59 vstem
          -105 callgsubr
          -193 705 -104 callgsubr
          endchar
        </CharString>
        <CharString name="Agrave">
          -51 callgsubr
          236 -20 hstem
          -105 callgsubr
          -99 650 -104 callsubr
          endchar
        </CharString>
        <CharString name="Amacron">
          -51 callgsubr
          189 35 hstem
          -105 callgsubr
          -265 710 rmoveto
          -93 callgsubr
          endchar
        </CharString>
        <CharString name="Aogonek">
          53 -195 26 190 -44 callsubr
          hstemhm
          384 29 -29 112 hintmask 11111000
          476 -169 rmoveto
          -29 callgsubr
          hvcurveto
          hintmask 11110100
          6 3 5 6 6 2 -1 1 2 vvcurveto
          -215 701 rlineto
          9 -3 -8 5 -8 hhcurveto
          -8 -7 -4 -10 -3 hvcurveto
          -217 -701 -49 callgsubr
          -10 -68 callgsubr
          8 7 4 9 3 vhcurveto
          50 164 rlineto
          298 hlineto
          49 -160 rlineto
          -43 -41 -31 -46 -58 -71 callgsubr
          vhcurveto
          -354 382 rmoveto
          139 448 137 -448 rlineto
          endchar
        </CharString>
        <CharString name="Aring">
          -51 callgsubr
          126 23 135 26 hstem
          170 24 131 25 vstem
          -105 callgsubr
          -138 814 -83 callsubr
          endchar
        </CharString>
        <CharString name="Atilde">
          -51 callgsubr
          161 34 3 34 hstem
          -105 callgsubr
          -69 699 rmoveto
          -103 callsubr
          endchar
        </CharString>
        <CharString name="B">
          59 0 36 342 36 281 36 hstemhm
          83 36 301 36 -18 36 hintmask 11110100
          83 17 rmoveto
          -9 7 -8 11 vhcurveto
          177 hlineto
          110 86 53 150 hvcurveto
          17 vlineto
          103 -41 47 -62 26 vhcurveto
          hintmask 11111000
          51 22 34 60 86 vvcurveto
          140 -89 27 -116 vhcurveto
          -150 hlineto
          -9 -9 -6 -12 hvcurveto
          36 -677 rmoveto
          342 159 vlineto
          hintmask 11110100
          100 60 -42 -116 hvcurveto
          -17 vlineto
          -116 -60 -51 -100 vhcurveto
          -159 659 rmoveto
          134 hlineto
          hintmask 11111000
          97 70 -20 -111 -116 -52 -34 -110 hvcurveto
          -139 hlineto
          endchar
        </CharString>
        <CharString name="C">
          -45 callsubr
          hstemhm
          76 -26 callsubr
          hintmask 10011100
          -66 callsubr
          hintmask 01101100
          -7 1 -11 17 12 6 5 23 78 -64 79 -128 -108 -91 -56 -150 vhcurveto
          -24 callsubr
          -150 89 -56 107 128 67 79 77 23 -6 6 -12 -15 -2 -9 -9 -1 vhcurveto
          hintmask 10101100
          -56 callsubr
          endchar
        </CharString>
        <CharString name="CR">
          -468 endchar
        </CharString>
        <CharString name="Cacute">
          -45 callsubr
          222 -88 callsubr
          216 717 -107 callgsubr
          endchar
        </CharString>
        <CharString name="Ccaron">
          -45 callsubr
          259 -88 callsubr
          279 759 -106 callsubr
          endchar
        </CharString>
        <CharString name="Ccedilla">
          44 25 callsubr
          59 36 516 185 -36 36 hstemhm
          76 36 242 33 44 36 hintmask 11101111
          -66 callsubr
          hintmask 11110111
          -7 1 -11 17 12 6 5 23 78 -64 79 -128 -108 -91 -56 -150 vhcurveto
          -24 callsubr
          -150 89 -56 107 vhcurveto
          4 hlineto
          -21 -42 callgsubr
          104 13 55 70 70 vvcurveto
          23 -6 6 -12 -15 -2 -9 -9 -1 vhcurveto
          -56 callsubr
          endchar
        </CharString>
        <CharString name="Ccircumflex">
          -45 callsubr
          222 -88 callsubr
          159 718 rmoveto
          -107 callsubr
        </CharString>
        <CharString name="Cdotaccent">
          -45 callsubr
          128 59 hstemhm
          76 36 130 59 130 36 cntrmask 00000111
          hintmask 10011111
          -66 callsubr
          hintmask 01101111
          -7 1 -11 17 12 6 5 23 78 -64 79 -128 -108 -91 -56 -150 vhcurveto
          -24 callsubr
          -150 89 -56 107 128 67 79 77 23 -6 6 -12 -15 -2 -9 -9 -1 vhcurveto
          hintmask 10101111
          -56 callsubr
          160 718 rmoveto
          -83 callgsubr
        </CharString>
        <CharString name="D">
          82 24 callsubr
          hstem
          83 -26 callsubr
          vstem
          101 731 rmoveto
          -11 -7 -8 -9 hvcurveto
          -697 vlineto
          -79 callgsubr
          659 hlineto
          endchar
        </CharString>
        <CharString name="Dcaron">
          82 24 callsubr
          259 -20 hstem
          83 -26 callsubr
          vstem
          101 731 rmoveto
          -11 -7 -8 -9 hvcurveto
          -697 vlineto
          -79 callgsubr
          659 hlineto
          279 264 -106 callsubr
          endchar
        </CharString>
        <CharString name="Dcroat">
          -77 callsubr
        </CharString>
        <CharString name="Delta">
          13 0 -13 callsubr
          hstem
          456 16 rmoveto
          2 0 1 -1 3 vhcurveto
          -195 701 rlineto
          9 -3 -7 5 -9 hhcurveto
          -8 -7 -4 -10 -3 hvcurveto
          -197 -701 rlineto
          -1 -3 0 -1 -2 vvcurveto
          -11 8 -5 9 vhcurveto
          397 hlineto
          9 8 5 11 hvcurveto
          -215 645 rmoveto
          172 -625 rlineto
          -346 hlineto
          endchar
        </CharString>
        <CharString name="E">
          30 -55 callgsubr
          hstem
          83 36 vstem
          119 695 rmoveto
          338 hlineto
          11 6 9 10 8 -5 9 -12 hvcurveto
          -356 hlineto
          -9 -9 -6 -12 hvcurveto
          -695 vlineto
          -12 -68 callgsubr
          vhcurveto
          356 -88 callgsubr
          -338 -85 callsubr
          hlineto
          endchar
        </CharString>
        <CharString name="Eacute">
          30 -55 callgsubr
          222 -20 hstem
          83 36 vstem
          119 695 rmoveto
          338 hlineto
          11 6 9 10 8 -5 9 -12 hvcurveto
          -356 hlineto
          -9 -9 -6 -12 hvcurveto
          -695 vlineto
          -12 -68 callgsubr
          vhcurveto
          356 -88 callgsubr
          -338 -85 callsubr
          hlineto
          216 533 -107 callgsubr
          endchar
        </CharString>
        <CharString name="Ebreve">
          30 -55 callgsubr
          129 -40 callsubr
          83 36 50 -12 callgsubr
          hintmask 11101111
          119 695 rmoveto
          338 hlineto
          11 6 9 10 8 -5 9 -12 hvcurveto
          -356 hlineto
          -9 -9 -6 -12 hvcurveto
          -695 vlineto
          -12 -68 callgsubr
          vhcurveto
          356 -88 callgsubr
          -338 -85 callsubr
          hlineto
          235 585 rmoveto
          hintmask 11110111
          -39 callgsubr
          hintmask 11101111
          -87 callsubr
          endchar
        </CharString>
        <CharString name="Ecaron">
          30 -55 callgsubr
          259 -20 hstem
          83 36 vstem
          119 695 rmoveto
          338 hlineto
          11 6 9 10 8 -5 9 -12 hvcurveto
          -356 hlineto
          -9 -9 -6 -12 hvcurveto
          -695 vlineto
          -12 -68 callgsubr
          vhcurveto
          356 -88 callgsubr
          -338 -85 callsubr
          hlineto
          279 575 -106 callsubr
          endchar
        </CharString>
        <CharString name="Ecircumflex">
          30 -55 callgsubr
          222 -20 hstem
          83 36 vstem
          119 695 rmoveto
          338 hlineto
          11 6 9 10 8 -5 9 -12 hvcurveto
          -356 hlineto
          -9 -9 -6 -12 hvcurveto
          -695 vlineto
          -12 -68 callgsubr
          vhcurveto
          356 -88 callgsubr
          -338 -85 callsubr
          hlineto
          159 534 rmoveto
          -107 callsubr
        </CharString>
        <CharString name="Edieresis">
          30 -55 callgsubr
          128 59 hstem
          83 36 74 59 52 59 vstem
          119 695 rmoveto
          338 hlineto
          11 6 9 10 8 -5 9 -12 hvcurveto
          -356 hlineto
          -9 -9 -6 -12 hvcurveto
          -695 vlineto
          -12 -68 callgsubr
          vhcurveto
          356 -88 callgsubr
          -338 -85 callsubr
          hlineto
          104 534 -104 callgsubr
          endchar
        </CharString>
        <CharString name="Edotaccent">
          30 -55 callgsubr
          128 59 hstem
          83 36 130 59 vstem
          119 695 rmoveto
          338 hlineto
          11 6 9 10 8 -5 9 -12 hvcurveto
          -356 hlineto
          -9 -9 -6 -12 hvcurveto
          -695 vlineto
          -12 -68 callgsubr
          vhcurveto
          356 -88 callgsubr
          -338 -85 callsubr
          hlineto
          160 534 rmoveto
          -83 callgsubr
        </CharString>
        <CharString name="Egrave">
          30 -55 callgsubr
          222 -20 hstem
          83 36 vstem
          119 695 rmoveto
          338 hlineto
          11 6 9 10 8 -5 9 -12 hvcurveto
          -356 hlineto
          -9 -9 -6 -12 hvcurveto
          -695 vlineto
          -12 -68 callgsubr
          vhcurveto
          356 -88 callgsubr
          -338 -85 callsubr
          hlineto
          198 479 -104 callsubr
          endchar
        </CharString>
        <CharString name="Emacron">
          30 -55 callgsubr
          175 35 hstem
          83 36 vstem
          119 695 rmoveto
          338 hlineto
          11 6 9 10 8 -5 9 -12 hvcurveto
          -356 hlineto
          -9 -9 -6 -12 hvcurveto
          -695 vlineto
          -12 -68 callgsubr
          vhcurveto
          356 -88 callgsubr
          -338 -85 callsubr
          hlineto
          32 539 rmoveto
          -93 callgsubr
          endchar
        </CharString>
        <CharString name="Eng">
          89 -237 35 223 -21 731 -20 hstem
          83 -26 callsubr
          vstem
          132 695 rmoveto
          9 -5 -13 27 -13 hhcurveto
          -10 -8 -4 -13 hvcurveto
          -696 vlineto
          -97 callgsubr
          625 vlineto
          308 -607 rlineto
          9 -18 3 -11 -7 vvcurveto
          -48 -60 callgsubr
          762 -95 callgsubr
          -625 vlineto
          endchar
        </CharString>
        <CharString name="Eogonek">
          30 -195 26 169 36 312 -37 callgsubr
          hstemhm
          83 36 245 29 -29 110 hintmask 11111100
          456 -169 23 callgsubr
          hintmask 11111010
          7 2 3 8 6 vvcurveto
          10 -6 9 -11 vhcurveto
          -338 -85 callsubr
          311 338 hlineto
          11 6 9 10 8 -5 9 -12 hvcurveto
          -356 hlineto
          -9 -9 -6 -12 hvcurveto
          -695 vlineto
          -12 -68 callgsubr
          vhcurveto
          320 hlineto
          -35 -37 -22 -41 -50 -71 callgsubr
          vhcurveto
          endchar
        </CharString>
        <CharString name="Eth">
          -77 callsubr
        </CharString>
        <CharString name="Euro">
          99 -6 36 234 35 108 35 253 36 hstemhm
          37 123 -36 -26 callsubr
          hintmask 11111010
          37 424 -21 callgsubr
          hintmask 11110110
          70 -108 -70 hlineto
          hintmask 11111010
          -73 callgsubr
          hintmask 11110110
          70 -64 hlineto
          -150 85 -56 110 123 73 73 92 14 -9 6 -9 -9 -9 -6 -12 -90 -72 -41 -88 -58 callsubr
          64 204 vlineto
          -94 callgsubr
          -204 108 204 hlineto
          -94 callgsubr
          -204 83 hlineto
          116 59 54 100 88 72 -41 -90 -12 -68 callgsubr
          9 9 6 14 92 -73 73 -123 -58 callgsubr
          -83 -70 vlineto
          hintmask 11111010
          -54 callsubr
        </CharString>
        <CharString name="F">
          21 16 callsubr
          hstem
          83 36 vstem
          101 731 rmoveto
          -9 -9 -6 -12 hvcurveto
          -696 -44 callgsubr
          331 160 vlineto
          12 5 -10 callsubr
          -6 9 -11 hvcurveto
          -160 311 338 hlineto
          11 6 9 10 8 -5 9 -12 hvcurveto
          endchar
        </CharString>
        <CharString name="G">
          63 -6 4 callgsubr
          24 callgsubr
          -101 callsubr
          endchar
        </CharString>
        <CharString name="Gbreve">
          63 -6 4 callgsubr
          129 -40 callsubr
          76 36 50 -12 callgsubr
          51 36 hintmask 1110111110000000
          -101 callsubr
          75 621 rmoveto
          hintmask 1111011110000000
          -39 callgsubr
          hintmask 1110111110000000
          -87 callsubr
          endchar
        </CharString>
        <CharString name="Gcircumflex">
          63 -6 4 callgsubr
          222 -20 24 callgsubr
          -101 callsubr
          -1 570 rmoveto
          -107 callsubr
        </CharString>
        <CharString name="Gcommaaccent">
          63 -120 -21 135 4 callgsubr
          24 callgsubr
          -101 callsubr
          53 -432 -107 callgsubr
          endchar
        </CharString>
        <CharString name="Gdotaccent">
          63 -6 4 callgsubr
          128 59 hstem
          76 36 130 59 130 36 cntrmask 00001110
          -101 callsubr
          570 vmoveto
          -83 callgsubr
        </CharString>
        <CharString name="H">
          89 21 -21 361 36 334 -20 hstem
          83 -26 callsubr
          vstem
          438 -85 callgsubr
          -52 callsubr
          -317 -319 317 -95 callgsubr
          -696 vlineto
          -97 callgsubr
          343 319 vlineto
          endchar
        </CharString>
        <CharString name="Hbar">
          89 21 -21 361 36 146 35 -35 188 hstemhm
          83 -26 callsubr
          hintmask 11101100
          438 -85 callgsubr
          525 44 vlineto
          -94 callgsubr
          -44 136 hlineto
          hintmask 11011100
          -97 callsubr
          hintmask 11101100
          -136 -319 136 vlineto
          hintmask 11011100
          -97 callsubr
          hintmask 11101100
          -136 -45 vlineto
          -73 callgsubr
          45 -525 hlineto
          -97 callgsubr
          343 319 vlineto
          -319 36 rmoveto
          146 319 -146 vlineto
          endchar
        </CharString>
        <CharString name="Hcircumflex">
          89 21 -21 361 36 334 -20 242 -20 hstem
          83 -26 callsubr
          vstem
          438 -85 callgsubr
          -52 callsubr
          -317 -319 317 -95 callgsubr
          -696 vlineto
          -97 callgsubr
          343 319 vlineto
          -159 557 rmoveto
          -107 callsubr
        </CharString>
        <CharString name="I">
          -38 callsubr
          hstem
          83 36 vstem
          83 -85 callgsubr
          -52 callsubr
          endchar
        </CharString>
        <CharString name="IJ">
          228 -6 36 -9 -21 695 36 hstemhm
          83 36 107 -26 callsubr
          hintmask 01111100
          83 -85 callgsubr
          -52 callsubr
          339 17 -26 callgsubr
          hintmask 10111100
          -61 callgsubr
          endchar
        </CharString>
        <CharString name="Iacute">
          -38 callsubr
          242 -20 hstem
          83 36 vstem
          83 -85 callgsubr
          -52 callsubr
          74 203 -107 callgsubr
          endchar
        </CharString>
        <CharString name="Ibreve">
          -38 callsubr
          149 -40 callsubr
          -8 32 59 36 58 33 hintmask 11011110
          83 -85 callgsubr
          -52 callsubr
          94 255 rmoveto
          hintmask 11101110
          -39 callgsubr
          hintmask 11011110
          -87 callsubr
          endchar
        </CharString>
        <CharString name="Icircumflex">
          -38 callsubr
          242 -20 hstem
          83 36 vstem
          83 -85 callgsubr
          -52 callsubr
          18 204 rmoveto
          -107 callsubr
        </CharString>
        <CharString name="Idieresis">
          -38 callsubr
          148 59 hstem
          16 59 8 36 8 59 cntrmask 00011100
          83 -85 callgsubr
          -52 callsubr
          -37 204 -104 callgsubr
          endchar
        </CharString>
        <CharString name="Idotaccent">
          -38 callsubr
          148 59 hstemhm
          71 48 -36 36 hintmask 11110000
          83 -85 callgsubr
          -53 callsubr
          vhcurveto
          hintmask 11101000
          -9 -9 -5 -12 hvcurveto
          18 204 rmoveto
          hintmask 11110000
          -83 callgsubr
        </CharString>
        <CharString name="Igrave">
          -38 callsubr
          242 -20 hstem
          83 36 vstem
          83 -85 callgsubr
          -52 callsubr
          56 149 -104 callsubr
          endchar
        </CharString>
        <CharString name="Imacron">
          -38 callsubr
          195 35 hstem
          83 36 vstem
          83 -85 callgsubr
          -52 callsubr
          -109 209 rmoveto
          -93 callgsubr
          endchar
        </CharString>
        <CharString name="Iogonek">
          -265 -190 26 895 -20 hstem
          15 29 40 36 vstem
          107 -164 rmoveto
          -1 callgsubr
          50 29 36 38 37 hvcurveto
          5 3 4 5 8 vvcurveto
          -52 callsubr
          -697 vlineto
          -41 -40 -28 -44 -56 -71 callgsubr
          vhcurveto
          endchar
        </CharString>
        <CharString name="Itilde">
          -38 callsubr
          167 34 3 34 hstem
          83 36 vstem
          83 -85 callgsubr
          -52 callsubr
          87 198 rmoveto
          -103 callsubr
          endchar
        </CharString>
        <CharString name="J">
          28 -6 36 665 36 hstem
          26 -26 callsubr
          vstem
          222 731 -26 callgsubr
          -61 callgsubr
          endchar
        </CharString>
        <CharString name="Jcircumflex">
          28 -6 36 665 36 222 -20 hstem
          26 -26 callsubr
          vstem
          222 731 -26 callgsubr
          -61 callgsubr
          -151 187 rmoveto
          -107 callsubr
        </CharString>
        <CharString name="K">
          40 -49 callsubr
          hstem
          83 36 vstem
          466 9 rmoveto
          -6 4 6 -3 5 hhcurveto
          10 -10 callsubr
          20 callsubr
          -258 388 231 287 rlineto
          3 3 1 4 3 vvcurveto
          10 -9 9 -9 -5 -6 -2 -4 -3 vhcurveto
          -323 -403 rlineto
          392 -95 callgsubr
          -696 vlineto
          -97 callgsubr
          247 vlineto
          96 120 rlineto
          endchar
        </CharString>
        <CharString name="Kcommaaccent">
          40 -120 -21 162 -21 731 -20 hstem
          83 36 vstem
          466 9 rmoveto
          -6 4 6 -3 5 hhcurveto
          10 -10 callsubr
          20 callsubr
          -258 388 231 287 rlineto
          3 3 1 4 3 vvcurveto
          10 -9 9 -9 -5 -6 -2 -4 -3 vhcurveto
          -323 -403 rlineto
          392 -95 callgsubr
          -696 vlineto
          -97 callgsubr
          247 vlineto
          96 120 rlineto
          95 -469 -107 callgsubr
          endchar
        </CharString>
        <CharString name="L">
          -16 0 36 695 -20 hstem
          83 36 vstem
          -80 callgsubr
          endchar
        </CharString>
        <CharString name="Lacute">
          -16 0 36 695 -20 242 -20 hstem
          83 36 vstem
          -80 callgsubr
          216 917 -107 callgsubr
          endchar
        </CharString>
        <CharString name="Lcaron">
          -15 0 36 695 -20 30 -20 hstemhm
          83 36 169 71 hintmask 11011000
          -80 callgsubr
          hintmask 10111000
          223 741 -43 callsubr
          endchar
        </CharString>
        <CharString name="Lcommaaccent">
          -16 -120 -21 141 36 695 -20 hstem
          83 36 vstem
          -80 callgsubr
          208 -84 -107 callgsubr
          endchar
        </CharString>
        <CharString name="Ldot">
          -15 0 36 349 72 274 -20 hstem
          83 36 167 71 vstem
          -80 callgsubr
          221 457 rmoveto
          -6 callsubr
        </CharString>
        <CharString name="Lslash">
          -10 0 36 695 -20 hstem
          89 36 vstem
          429 hmoveto
          10 5 9 9 9 -5 9 -10 hvcurveto
          -304 288 hlineto
          132 76 3 callgsubr
          -115 -67 rlineto
          351 -95 callgsubr
          -371 vlineto
          -74 -43 rlineto
          -6 -3 -3 -6 -5 vvcurveto
          -10 9 -9 8 3 3 1 2 3 vhcurveto
          57 33 rlineto
          -285 vlineto
          -12 -68 callgsubr
          vhcurveto
          endchar
        </CharString>
        <CharString name="M">
          185 -49 callsubr
          hstem
          83 36 415 36 vstem
          534 643 rmoveto
          -625 vlineto
          -97 callgsubr
          8 callgsubr
          13 -8 4 -10 -13 -13 -27 -9 -5 vhcurveto
          -195 -382 -194 382 rlineto
          9 -5 -13 27 -13 hhcurveto
          -10 -8 -4 -13 hvcurveto
          -696 vlineto
          -97 callgsubr
          625 vlineto
          188 -364 rlineto
          -13 6 7 -6 6 hhcurveto
          6 6 6 13 7 hvcurveto
          endchar
        </CharString>
        <CharString name="N">
          89 -49 callsubr
          hstem
          83 -26 callsubr
          vstem
          132 695 rmoveto
          9 -5 -13 27 -13 hhcurveto
          -10 -8 -4 -13 hvcurveto
          -696 vlineto
          -97 callgsubr
          625 vlineto
          308 -607 rlineto
          -14 7 9 -22 13 hhcurveto
          -19 callgsubr
          hvcurveto
          -52 callsubr
          -625 vlineto
          endchar
        </CharString>
        <CharString name="Nacute">
          89 -49 callsubr
          242 -20 hstem
          83 -26 callsubr
          vstem
          132 695 rmoveto
          9 -5 -13 27 -13 hhcurveto
          -10 -8 -4 -13 hvcurveto
          -696 vlineto
          -97 callgsubr
          625 vlineto
          308 -607 rlineto
          -14 7 9 -22 13 hhcurveto
          -19 callgsubr
          hvcurveto
          -52 callsubr
          -625 vlineto
          -103 828 -107 callgsubr
          endchar
        </CharString>
        <CharString name="Ncaron">
          89 -49 callsubr
          279 -20 hstem
          83 -26 callsubr
          vstem
          132 695 rmoveto
          9 -5 -13 27 -13 hhcurveto
          -10 -8 -4 -13 hvcurveto
          -696 vlineto
          -97 callgsubr
          625 vlineto
          308 -607 rlineto
          -14 7 9 -22 13 hhcurveto
          -19 callgsubr
          hvcurveto
          -52 callsubr
          -625 vlineto
          -40 870 -106 callsubr
          endchar
        </CharString>
        <CharString name="Ncommaaccent">
          89 -120 -21 162 -21 731 -20 hstem
          83 -26 callsubr
          vstem
          132 695 rmoveto
          9 -5 -13 27 -13 hhcurveto
          -10 -8 -4 -13 hvcurveto
          -696 vlineto
          -97 callgsubr
          625 vlineto
          308 -607 rlineto
          -14 7 9 -22 13 hhcurveto
          -19 callgsubr
          hvcurveto
          -52 callsubr
          -625 vlineto
          -106 -173 -107 callgsubr
          endchar
        </CharString>
        <CharString name="Ntilde">
          89 -49 callsubr
          167 34 3 34 hstem
          83 -26 callsubr
          vstem
          132 695 rmoveto
          9 -5 -13 27 -13 hhcurveto
          -10 -8 -4 -13 hvcurveto
          -696 vlineto
          -97 callgsubr
          625 vlineto
          308 -607 rlineto
          -14 7 9 -22 13 hhcurveto
          -19 callgsubr
          hvcurveto
          -52 callsubr
          -625 vlineto
          -91 823 rmoveto
          -103 callsubr
          endchar
        </CharString>
        <CharString name="O">
          -35 callsubr
          24 callgsubr
          271 -6 rmoveto
          -65 callsubr
          325 -15 callsubr
          -58 callgsubr
          -24 callsubr
          -150 85 -56 110 vhcurveto
          160 206 rmoveto
          -81 callgsubr
          -76 callgsubr
          26 callsubr
          vhcurveto
          endchar
        </CharString>
        <CharString name="OE">
          377 -6 42 -15 -21 348 -37 callgsubr
          hstemhm
          30 callsubr
          35 hintmask 10111100
          466 695 rmoveto
          338 hlineto
          11 6 9 10 8 -5 9 -12 hvcurveto
          -354 hlineto
          -9 -9 -6 -12 hvcurveto
          -54 vlineto
          51 -35 -59 21 -67 hhcurveto
          -70 callsubr
          hvcurveto
          -24 callsubr
          -150 85 -56 110 67 59 21 51 35 vhcurveto
          -48 vlineto
          hintmask 01111100
          -12 -68 callgsubr
          vhcurveto
          354 hlineto
          12 5 9 8 hvcurveto
          hintmask 10111100
          10 -6 9 -11 vhcurveto
          -338 -85 callsubr
          hlineto
          -35 -184 rmoveto
          -81 callgsubr
          -76 callgsubr
          26 callsubr
          vhcurveto
          endchar
        </CharString>
        <CharString name="Oacute">
          -35 callsubr
          222 -20 24 callgsubr
          271 -6 rmoveto
          -65 callsubr
          325 -15 callsubr
          -58 callgsubr
          -24 callsubr
          -150 85 -56 110 vhcurveto
          160 206 rmoveto
          -81 callgsubr
          -76 callgsubr
          26 callsubr
          vhcurveto
          -103 392 -107 callgsubr
          endchar
        </CharString>
        <CharString name="Obreve">
          -35 callsubr
          129 -40 callsubr
          76 36 50 -12 callgsubr
          51 36 hintmask 11011111
          271 -6 rmoveto
          -65 callsubr
          325 -15 callsubr
          -58 callgsubr
          -24 callsubr
          -150 85 -56 110 vhcurveto
          160 206 rmoveto
          -81 callgsubr
          -76 callgsubr
          26 callsubr
          vhcurveto
          -84 444 rmoveto
          hintmask 11101111
          -39 callgsubr
          hintmask 11011111
          -87 callsubr
          endchar
        </CharString>
        <CharString name="Ocircumflex">
          -35 callsubr
          222 -20 24 callgsubr
          271 -6 rmoveto
          -65 callsubr
          325 -15 callsubr
          -58 callgsubr
          -24 callsubr
          -150 85 -56 110 vhcurveto
          160 206 rmoveto
          -81 callgsubr
          -76 callgsubr
          26 callsubr
          vhcurveto
          -160 393 rmoveto
          -107 callsubr
        </CharString>
        <CharString name="Odieresis">
          -35 callsubr
          128 59 hstem
          76 36 74 59 52 59 75 36 vstem
          271 -6 rmoveto
          -65 callsubr
          325 -15 callsubr
          -58 callgsubr
          -24 callsubr
          -150 85 -56 110 vhcurveto
          160 206 rmoveto
          -81 callgsubr
          -76 callgsubr
          26 callsubr
          vhcurveto
          -215 393 -104 callgsubr
          endchar
        </CharString>
        <CharString name="Ograve">
          -35 callsubr
          222 -20 24 callgsubr
          271 -6 rmoveto
          -65 callsubr
          325 -15 callsubr
          -58 callgsubr
          -24 callsubr
          -150 85 -56 110 vhcurveto
          160 206 rmoveto
          -81 callgsubr
          -76 callgsubr
          26 callsubr
          vhcurveto
          -121 338 -104 callsubr
          endchar
        </CharString>
        <CharString name="Ohungarumlaut">
          -35 callsubr
          0 129 93 -20 hstemhm
          76 -26 callsubr
          hintmask 11011100
          271 -6 rmoveto
          -65 callsubr
          325 -15 callsubr
          -58 callgsubr
          -24 callsubr
          -150 85 -56 110 vhcurveto
          160 206 rmoveto
          -81 callgsubr
          -76 callgsubr
          26 callsubr
          vhcurveto
          -137 392 rmoveto
          7 4 3 7 7 vvcurveto
          -68 callgsubr
          -10 -2 -3 -1 -1 -2 vhcurveto
          -102 -60 rlineto
          -6 -3 -2 -5 -5 vvcurveto
          hintmask 10111100
          -10 9 -8 10 3 3 1 2 3 vhcurveto
          242 54 -107 callgsubr
          endchar
        </CharString>
        <CharString name="Omacron">
          -35 callsubr
          175 35 24 callgsubr
          271 -6 rmoveto
          -65 callsubr
          325 -15 callsubr
          -58 callgsubr
          -24 callsubr
          -150 85 -56 110 vhcurveto
          160 206 rmoveto
          -81 callgsubr
          -76 callgsubr
          26 callsubr
          vhcurveto
          -287 398 rmoveto
          -93 callgsubr
          endchar
        </CharString>
        <CharString name="Omega">
          66 0 35 660 36 hstem
          72 36 318 36 vstem
          315 hmoveto
          142 hlineto
          10 7 8 10 10 -8 7 -9 hvcurveto
          -107 40 hlineto
          66 24 46 60 109 vvcurveto
          257 -9 callsubr
          -85 56 -110 -58 callgsubr
          -257 vlineto
          -109 45 -60 67 -24 vhcurveto
          -40 -107 vlineto
          -9 -8 -7 -10 -10 7 -8 10 hvcurveto
          142 103 hlineto
          -72 16 -39 53 96 vvcurveto
          257 vlineto
          116 59 54 100 100 59 -25 callgsubr
          -257 vlineto
          -96 -39 -53 -72 -16 vhcurveto
          endchar
        </CharString>
        <CharString name="Oslash">
          75 -6 36 -29 -21 715 36 37 -20 hstemhm
          76 -26 callsubr
          hintmask 01111100
          -59 callgsubr
          hintmask 10111100
          -40 35 53 -16 60 hhcurveto
          -65 callsubr
          325 vlineto
          54 -12 42 -19 32 vhcurveto
          -5 -453 rmoveto
          -75 callgsubr
          -58 -45 18 38 -27 vhcurveto
          274 527 rlineto
          11 -24 5 -29 -35 vvcurveto
          -319 -325 rmoveto
          -76 callgsubr
          53 42 -16 -32 28 vhcurveto
          -271 -523 rlineto
          -7 21 -4 26 29 vvcurveto
          endchar
        </CharString>
        <CharString name="Oslashacute">
          75 -6 36 -29 -21 715 36 37 -20 205 -20 hstemhm
          76 -26 callsubr
          hintmask 01111110
          -59 callgsubr
          hintmask 10111110
          -40 35 53 -16 60 hhcurveto
          -65 callsubr
          325 vlineto
          54 -12 42 -19 32 vhcurveto
          -5 -453 rmoveto
          -75 callgsubr
          -58 -45 18 38 -27 vhcurveto
          274 527 rlineto
          11 -24 5 -29 -35 vvcurveto
          -319 -325 rmoveto
          -76 callgsubr
          53 42 -16 -32 28 vhcurveto
          -271 -523 rlineto
          -7 21 -4 26 29 vvcurveto
          216 717 -107 callgsubr
          endchar
        </CharString>
        <CharString name="Otilde">
          -35 callsubr
          147 34 3 34 24 callgsubr
          271 -6 rmoveto
          -65 callsubr
          325 -15 callsubr
          -58 callgsubr
          -24 callsubr
          -150 85 -56 110 vhcurveto
          160 206 rmoveto
          -81 callgsubr
          -76 callgsubr
          26 callsubr
          vhcurveto
          -91 387 rmoveto
          -103 callsubr
          endchar
        </CharString>
        <CharString name="P">
          45 21 -21 306 36 353 36 hstem
          83 -26 callsubr
          vstem
          83 -85 callgsubr
          288 159 vlineto
          110 86 57 150 hvcurveto
          12 -15 callsubr
          vhcurveto
          -177 hlineto
          -11 -1 -7 -7 -9 vvcurveto
          195 -19 rmoveto
          26 callsubr
          hvcurveto
          -12 vlineto
          -116 -60 -55 -100 vhcurveto
          -159 353 hlineto
          endchar
        </CharString>
        <CharString name="Q">
          75 -88 -21 104 35 665 36 hstem
          76 36 142 36 141 36 vstem
          254 -91 rmoveto
          -97 callgsubr
          86 vlineto
          101 5 76 58 142 vvcurveto
          325 -15 callsubr
          -58 callgsubr
          -24 callsubr
          -143 76 -57 102 -5 vhcurveto
          177 205 rmoveto
          -109 -53 -54 -88 -6 vhcurveto
          83 -95 callgsubr
          -84 vlineto
          -90 6 -52 54 110 vvcurveto
          -76 callgsubr
          26 callsubr
          vhcurveto
          endchar
        </CharString>
        <CharString name="R">
          41 16 callsubr
          -96 callsubr
          endchar
        </CharString>
        <CharString name="Racute">
          41 16 callsubr
          222 -20 -96 callsubr
          216 222 -107 callgsubr
          endchar
        </CharString>
        <CharString name="Rcaron">
          41 16 callsubr
          259 -20 -96 callsubr
          279 264 -106 callsubr
          endchar
        </CharString>
        <CharString name="Rcommaaccent">
          41 -120 -21 162 -21 348 -37 callgsubr
          -96 callsubr
          178 -779 -107 callgsubr
          endchar
        </CharString>
        <CharString name="S">
          13 -6 -24 callgsubr
          -22 callsubr
          hintmask 10110100
          230 30 rmoveto
          hintmask 01110100
          -91 callsubr
          hintmask 10101100
          -76 callsubr
          endchar
        </CharString>
        <CharString name="Sacute">
          13 -6 -24 callgsubr
          222 -20 -22 callsubr
          hintmask 10111010
          230 30 rmoveto
          hintmask 01111010
          -91 callsubr
          hintmask 10110110
          -76 callsubr
          64 887 -107 callgsubr
          endchar
        </CharString>
        <CharString name="Scaron">
          13 -6 -24 callgsubr
          259 -20 -22 callsubr
          hintmask 10111010
          230 30 rmoveto
          hintmask 01111010
          -91 callsubr
          hintmask 10110110
          -76 callsubr
          127 929 -106 callsubr
          endchar
        </CharString>
        <CharString name="Scedilla">
          13 25 callsubr
          59 -24 callgsubr
          hstemhm
          42 54 -36 36 228 33 40 36 hintmask 1110110110000000
          230 30 rmoveto
          hintmask 1101110110000000
          -135 -17 86 -19 hhcurveto
          -7 -10 -11 -10 -27 65 -74 128 hvcurveto
          10 hlineto
          -20 -42 callgsubr
          92 13 63 61 124 285 -337 -134 215 vvcurveto
          108 85 26 75 vhcurveto
          90 37 -38 14 hhcurveto
          9 9 14 8 23 -76 29 -82 hvcurveto
          hintmask 1110101110000000
          -76 callsubr
          endchar
        </CharString>
        <CharString name="Scircumflex">
          13 -6 -24 callgsubr
          222 -20 -22 callsubr
          hintmask 10111010
          230 30 rmoveto
          hintmask 01111010
          -91 callsubr
          hintmask 10110110
          -76 callsubr
          7 888 rmoveto
          -107 callsubr
        </CharString>
        <CharString name="Scommaaccent">
          13 -120 -21 135 -24 callgsubr
          -22 callsubr
          hintmask 11011010
          230 30 rmoveto
          hintmask 10111010
          -91 callsubr
          hintmask 11010110
          -76 callsubr
          78 -114 -107 callgsubr
          endchar
        </CharString>
        <CharString name="T">
          -13 21 -21 695 36 -75 callsubr
          endchar
        </CharString>
        <CharString name="Tbar">
          -9 21 -21 347 36 312 36 hstem
          212 36 vstem
          212 695 rmoveto
          -312 -148 vlineto
          -11 -7 -9 -9 -27 callsubr
          11 hvcurveto
          148 -329 hlineto
          -97 callgsubr
          329 147 vlineto
          13 5 10 9 9 -6 8 -12 hvcurveto
          -147 312 177 hlineto
          13 5 10 9 9 -6 8 -12 hvcurveto
          -391 hlineto
          -11 -7 -9 -9 -27 callsubr
          11 hvcurveto
          endchar
        </CharString>
        <CharString name="Tcaron">
          -13 21 -21 695 36 259 -20 -75 callsubr
          315 264 -106 callsubr
          endchar
        </CharString>
        <CharString name="Tcommaaccent">
          -13 -120 -21 162 -21 695 36 -75 callsubr
          252 -779 -107 callgsubr
          endchar
        </CharString>
        <CharString name="Thorn">
          15 21 -21 134 -47 callgsubr
          113 -20 hstem
          83 -37 callsubr
          vstem
          83 18 rmoveto
          -10 callgsubr
          9 8 9 9 vhcurveto
          194 vlineto
          -46 17 68 -32 63 hhcurveto
          79 87 51 96 hvcurveto
          192 vlineto
          96 -84 49 -87 -74 -46 -35 -41 -23 vhcurveto
          172 vlineto
          10 -7 7 -11 -9 -8 -5 -11 vhcurveto
          180 -546 rmoveto
          -84 -61 58 54 hvcurveto
          192 vlineto
          65 68 45 77 67 67 -35 -75 vhcurveto
          -192 vlineto
          -77 -68 -35 -66 vhcurveto
          endchar
        </CharString>
        <CharString name="U">
          -34 callsubr
          hstem
          79 -26 callsubr
          vstem
          79 200 rmoveto
          -150 85 -56 110 110 86 56 150 vhcurveto
          514 -95 callgsubr
          -514 vlineto
          -81 callgsubr
          514 -95 callgsubr
          endchar
        </CharString>
        <CharString name="Uacute">
          -34 callsubr
          242 -20 hstem
          79 -26 callsubr
          vstem
          79 200 rmoveto
          -150 85 -56 110 110 86 56 150 vhcurveto
          514 -95 callgsubr
          -514 vlineto
          -81 callgsubr
          514 -95 callgsubr
          252 203 -107 callgsubr
          endchar
        </CharString>
        <CharString name="Ubreve">
          -34 callsubr
          149 -40 callsubr
          79 36 50 -12 callgsubr
          51 36 hintmask 11011111
          79 200 rmoveto
          -150 85 -56 110 110 86 56 150 vhcurveto
          514 -95 callgsubr
          -514 vlineto
          -81 callgsubr
          514 -95 callgsubr
          271 255 rmoveto
          hintmask 11101111
          -39 callgsubr
          hintmask 11011111
          -87 callsubr
          endchar
        </CharString>
        <CharString name="Ucircumflex">
          -34 callsubr
          242 -20 hstem
          79 -26 callsubr
          vstem
          79 200 rmoveto
          -150 85 -56 110 110 86 56 150 vhcurveto
          514 -95 callgsubr
          -514 vlineto
          -81 callgsubr
          514 -95 callgsubr
          195 204 rmoveto
          -107 callsubr
        </CharString>
        <CharString name="Udieresis">
          -34 callsubr
          148 59 hstem
          79 36 74 59 52 59 75 36 vstem
          79 200 rmoveto
          -150 85 -56 110 110 86 56 150 vhcurveto
          514 -95 callgsubr
          -514 vlineto
          -81 callgsubr
          514 -95 callgsubr
          140 204 -104 callgsubr
          endchar
        </CharString>
        <CharString name="Ugrave">
          -34 callsubr
          242 -20 hstem
          79 -26 callsubr
          vstem
          79 200 rmoveto
          -150 85 -56 110 110 86 56 150 vhcurveto
          514 -95 callgsubr
          -514 vlineto
          -81 callgsubr
          514 -95 callgsubr
          234 149 -104 callsubr
          endchar
        </CharString>
        <CharString name="Uhungarumlaut">
          -34 callsubr
          242 -20 hstem
          79 -26 callsubr
          vstem
          79 200 rmoveto
          -150 85 -56 110 110 86 56 150 vhcurveto
          514 -95 callgsubr
          -514 vlineto
          -81 callgsubr
          514 -95 callgsubr
          229 203 -84 callsubr
        </CharString>
        <CharString name="Umacron">
          -34 callsubr
          195 35 hstem
          79 -26 callsubr
          vstem
          79 200 rmoveto
          -150 85 -56 110 110 86 56 150 vhcurveto
          514 -95 callgsubr
          -514 vlineto
          -81 callgsubr
          514 -95 callgsubr
          68 209 rmoveto
          -93 callgsubr
          endchar
        </CharString>
        <CharString name="Uogonek">
          81 -195 26 163 -13 callsubr
          hstem
          79 36 124 29 166 36 vstem
          331 -169 rmoveto
          -29 callgsubr
          hvcurveto
          76 20 54 60 118 vvcurveto
          514 -95 callgsubr
          -514 vlineto
          -81 callgsubr
          514 -95 callgsubr
          -514 vlineto
          -150 85 -56 110 5 6 0 1 6 vhcurveto
          -32 -36 -20 -39 -48 -71 callgsubr
          vhcurveto
          endchar
        </CharString>
        <CharString name="Uring">
          -34 callsubr
          132 23 135 26 hstem
          79 36 69 24 131 25 70 36 vstem
          79 200 rmoveto
          -150 85 -56 110 110 86 56 150 vhcurveto
          514 -95 callgsubr
          -514 vlineto
          -81 callgsubr
          514 -95 callgsubr
          195 313 -83 callsubr
          endchar
        </CharString>
        <CharString name="Utilde">
          -34 callsubr
          167 34 3 34 hstem
          79 -26 callsubr
          vstem
          79 200 rmoveto
          -150 85 -56 110 110 86 56 150 vhcurveto
          514 -95 callgsubr
          -514 vlineto
          -81 callgsubr
          514 -95 callgsubr
          264 198 rmoveto
          -103 callsubr
          endchar
        </CharString>
        <CharString name="V">
          51 15 -21 737 -20 hstem
          60 718 rmoveto
          9 -3 -7 4 -8 hhcurveto
          -9 -9 -6 -10 -2 0 -2 1 -2 hvcurveto
          217 -701 rlineto
          -10 3 7 -4 8 hhcurveto
          8 8 5 8 callsubr
          215 701 rlineto
          2 1 1 2 vvcurveto
          9 -10 8 -10 -7 -6 -4 -9 -3 vhcurveto
          -199 -648 rlineto
          endchar
        </CharString>
        <CharString name="W">
          -23 callsubr
          hstem
          -101 callgsubr
          endchar
        </CharString>
        <CharString name="Wacute">
          -23 callsubr
          242 -20 hstem
          -101 callgsubr
          78 462 -107 callgsubr
          endchar
        </CharString>
        <CharString name="Wcircumflex">
          -23 callsubr
          242 -20 hstem
          -101 callgsubr
          21 463 rmoveto
          -107 callsubr
        </CharString>
        <CharString name="Wdieresis">
          -23 callsubr
          148 59 hstem
          284 59 52 59 vstem
          -101 callgsubr
          -34 463 -104 callgsubr
          endchar
        </CharString>
        <CharString name="Wgrave">
          -23 callsubr
          242 -20 hstem
          -101 callgsubr
          60 408 -104 callsubr
          endchar
        </CharString>
        <CharString name="X">
          -21 -49 callsubr
          hstem
          76 695 rmoveto
          14 -7 -9 22 -14 hhcurveto
          -12 -6 -5 -9 -5 2 -6 3 -6 hvcurveto
          170 -334 -172 -337 23 callsubr
          14 8 22 14 7 vhcurveto
          148 291 149 -291 rlineto
          -14 7 8 -22 14 hhcurveto
          10 8 8 10 3 -1 4 -2 4 hvcurveto
          -173 337 171 334 rlineto
          3 6 2 6 5 vvcurveto
          9 -6 5 -12 -14 -9 -22 -14 -7 vhcurveto
          -148 -290 rlineto
          endchar
        </CharString>
        <CharString name="Y">
          41 -49 callsubr
          hstem
          236 36 vstem
          -98 callsubr
          endchar
        </CharString>
        <CharString name="Yacute">
          41 -49 callsubr
          242 -20 hstem
          236 36 vstem
          -98 callsubr
          37 638 -107 callgsubr
          endchar
        </CharString>
        <CharString name="Ycircumflex">
          41 -49 callsubr
          242 -20 hstem
          236 36 vstem
          -98 callsubr
          -19 639 rmoveto
          -107 callsubr
        </CharString>
        <CharString name="Ydieresis">
          41 -49 callsubr
          148 59 hstem
          169 59 8 36 8 59 cntrmask 00011100
          -98 callsubr
          -74 639 -104 callgsubr
          endchar
        </CharString>
        <CharString name="Ygrave">
          41 -49 callsubr
          242 -20 hstem
          236 36 vstem
          -98 callsubr
          20 584 -104 callsubr
          endchar
        </CharString>
        <CharString name="Z">
          20 callgsubr
          hstem
          -90 callsubr
          endchar
        </CharString>
        <CharString name="Zacute">
          20 callgsubr
          222 -20 hstem
          -90 callsubr
          234 917 -107 callgsubr
          endchar
        </CharString>
        <CharString name="Zcaron">
          20 callgsubr
          259 -20 hstem
          -90 callsubr
          297 959 -106 callsubr
          endchar
        </CharString>
        <CharString name="Zdotaccent">
          20 callgsubr
          128 59 hstem
          193 59 vstem
          -90 callsubr
          178 918 rmoveto
          -83 callgsubr
        </CharString>
        <CharString name="a">
          -64 callsubr
          -14 callsubr
          hintmask 10111100
          -47 callsubr
          hintmask 01111100
          -87 callgsubr
          hintmask 10111100
          -63 callsubr
        </CharString>
        <CharString name="a.ss01">
          -37 -6 35 194 34 186 35 hstem
          34 35 254 35 vstem
          193 -31 callsubr
          -61 -63 -23 -19 -7 7 -13 11 hvcurveto
          12 30 27 62 hhcurveto
          95 37 -82 -75 hvcurveto
          -29 -56 vlineto
          -140 -93 -25 -108 -88 63 -42 74 69 49 35 41 38 hvcurveto
          -46 5 16 -30 52 hhcurveto
          10 8 9 9 -71 callsubr
          -30 -12 25 36 hvcurveto
          196 vlineto
          99 -42 93 -123 vhcurveto
          130 -339 rmoveto
          -43 -74 -67 -80 -55 -45 32 63 89 92 10 107 vhcurveto
          55 hlineto
          endchar
        </CharString>
        <CharString name="aacute">
          -64 callsubr
          216 -20 -14 callsubr
          hintmask 10111110
          194 478 -95 callsubr
          -71 435 -107 callgsubr
          endchar
        </CharString>
        <CharString name="abreve">
          -64 callsubr
          123 -40 callsubr
          35 35 28 -12 callgsubr
          8 35 hintmask 1011011111000000
          283 710 rmoveto
          hintmask 1011101111000000
          -39 callgsubr
          hintmask 1011011111000000
          -87 callsubr
          -122 -232 -100 callgsubr
          hintmask 0111101111000000
          -87 callgsubr
          hintmask 1011101111000000
          -63 callsubr
        </CharString>
        <CharString name="acircumflex">
          -64 callsubr
          216 -20 -14 callsubr
          hintmask 10111110
          201 659 rmoveto
          -106 callgsubr
          97 -125 -95 callsubr
          endchar
        </CharString>
        <CharString name="acute">
          -335 622 -21 93 -20 hstem
          123 658 -107 callgsubr
          endchar
        </CharString>
        <CharString name="adieresis">
          -64 callsubr
          122 59 hstemhm
          35 35 42 59 52 59 42 35 hintmask 1011111110000000
          142 659 -104 callgsubr
          -59 -181 -100 callgsubr
          hintmask 0111111110000000
          -87 callgsubr
          hintmask 1011111110000000
          -63 callsubr
        </CharString>
        <CharString name="ae">
          29 callgsubr
          1 -20 hstemhm
          35 35 252 39 283 35 hintmask 11011110
          13 callgsubr
          hintmask 11101110
          -62 callsubr
          hintmask 11011110
          -48 callsubr
          endchar
        </CharString>
        <CharString name="aeacute">
          29 callgsubr
          216 -20 hstem
          35 35 252 39 283 35 vstem
          13 callgsubr
          -62 callsubr
          -48 callsubr
          94 435 -107 callgsubr
          endchar
        </CharString>
        <CharString name="agrave">
          -64 callsubr
          216 -20 -14 callsubr
          hintmask 10111110
          235 604 -104 callsubr
          54 -180 -95 callsubr
          endchar
        </CharString>
        <CharString name="amacron">
          -64 callsubr
          169 35 -14 callsubr
          hintmask 10111110
          79 664 rmoveto
          -93 callgsubr
          115 -186 -95 callsubr
          endchar
        </CharString>
        <CharString name="ampersand">
          127 -10 35 -10 -21 722 32 hstemhm
          41 37 18 42 351 32 hintmask 10111100
          263 748 rmoveto
          -90 -77 -59 -106 -81 45 -56 41 -49 hvcurveto
          -69 -29 -72 -62 -107 vvcurveto
          -112 78 -97 141 97 62 46 61 39 vhcurveto
          90 -97 rlineto
          hintmask 01111100
          -4 4 4 -2 4 hhcurveto
          8 8 7 9 3 -2 4 -3 4 hvcurveto
          -97 106 rlineto
          43 88 4 106 36 vvcurveto
          17 -5 6 -10 -12 -5 -5 -16 vhcurveto
          -1 -51 -7 -83 -31 -71 -223 247 rcurveline
          -49 54 -40 51 74 vvcurveto
          81 48 55 81 vhcurveto
          hintmask 10111100
          97 11 -71 19 hhcurveto
          11 6 6 10 20 -44 67 -104 hvcurveto
          3 -723 rmoveto
          -121 -67 85 93 99 75 42 50 27 hvcurveto
          231 -249 rlineto
          -56 -32 -51 -41 -85 hhcurveto
          endchar
        </CharString>
        <CharString name="aogonek">
          -45 -195 26 163 35 194 -46 callgsubr
          hstem
          35 35 179 29 46 35 vstem
          -47 callsubr
          -44 -42 -31 -46 -58 -71 callgsubr
          -29 callgsubr
          vhcurveto
          5 3 4 6 7 vvcurveto
          268 vlineto
          99 -42 93 -123 vhcurveto
          130 -339 rmoveto
          -63 callsubr
        </CharString>
        <CharString name="approxequal">
          -27 140 34 3 34 130 34 3 34 hstem
          289 174 rmoveto
          -103 callsubr
          201 vmoveto
          -103 callsubr
          endchar
        </CharString>
        <CharString name="aring">
          -64 callsubr
          106 23 135 26 hstemhm
          35 35 37 24 131 25 37 35 hintmask 1011111111000000
          197 768 -83 callsubr
          -68 -199 -100 callgsubr
          hintmask 0111111111000000
          -87 callgsubr
          hintmask 1011111111000000
          -63 callsubr
        </CharString>
        <CharString name="arrowdown">
          14 callgsubr
          179 rmoveto
          -9 -9 -6 -11 -5 1 -4 4 -4 hvcurveto
          214 -215 rlineto
          -6 6 6 -3 5 hhcurveto
          6 6 3 6 6 hvcurveto
          214 215 rlineto
          3 4 2 4 5 vvcurveto
          9 -8 8 -10 -4 -4 -1 -4 -4 vhcurveto
          -189 -190 rlineto
          555 vlineto
          -70 callgsubr
          -555 vlineto
          -189 190 rlineto
          4 -3 -5 1 -4 hhcurveto
          endchar
        </CharString>
        <CharString name="arrowleft">
          22 callgsubr
          324 22 rmoveto
          4 -1 5 -4 3 vhcurveto
          -190 189 rlineto
          555 27 callsubr
          -555 hlineto
          190 189 rlineto
          4 4 1 4 4 vvcurveto
          7 callgsubr
          -9 -5 -4 -2 -3 -4 vhcurveto
          -215 -214 rlineto
          -6 -6 -3 -6 -6 vvcurveto
          -5 3 -6 6 -6 vhcurveto
          215 -214 rlineto
          -4 4 4 -1 5 hhcurveto
          11 6 9 9 hvcurveto
          endchar
        </CharString>
        <CharString name="arrowright">
          22 callgsubr
          447 22 rmoveto
          -9 6 -9 11 5 4 1 4 4 vhcurveto
          215 214 rlineto
          6 6 3 6 5 vvcurveto
          6 -3 6 -6 6 vhcurveto
          -215 214 rlineto
          3 -4 -4 2 -5 hhcurveto
          -9 -8 -8 -10 -4 1 -4 4 -4 hvcurveto
          190 -189 rlineto
          -555 hlineto
          -73 callgsubr
          555 hlineto
          -190 -189 rlineto
          -4 -3 -1 -5 -4 vvcurveto
          endchar
        </CharString>
        <CharString name="arrowup">
          14 callgsubr
          302 rmoveto
          4 5 1 4 3 hvcurveto
          189 190 rlineto
          -555 vlineto
          -10 7 -7 10 10 8 7 10 vhcurveto
          555 vlineto
          189 -190 rlineto
          -4 4 4 -1 4 hhcurveto
          10 8 8 9 5 -2 4 -3 4 hvcurveto
          -214 215 rlineto
          6 -6 -6 3 -6 hhcurveto
          -5 -6 -3 -6 -6 hvcurveto
          -214 -215 rlineto
          -4 -4 -1 -4 -5 vvcurveto
          -11 -68 callgsubr
          vhcurveto
          endchar
        </CharString>
        <CharString name="asciicircum">
          -208 621 -21 22 -21 93 -20 hstemhm
          hintmask 01100000
          130 -72 callgsubr
          hintmask 10100000
          19 callgsubr
        </CharString>
        <CharString name="asciitilde">
          -68 223 34 3 34 hstem
          269 257 rmoveto
          -103 callsubr
          endchar
        </CharString>
        <CharString name="asterisk">
          -52 428 -21 324 -20 hstem
          192 31 vstem
          232 547 rmoveto
          133 39 rlineto
          8 2 4 7 7 vvcurveto
          9 -8 11 -9 -1 -3 0 -1 -2 vhcurveto
          -133 -48 5 141 rlineto
          11 -9 6 -9 -9 -9 -6 -11 vhcurveto
          5 -140 -133 47 7 callsubr
          -2 0 -1 hhcurveto
          -11 -7 -10 -10 -7 3 -7 8 -2 hvcurveto
          134 -40 -84 -110 rlineto
          -3 -4 -1 -3 -4 vvcurveto
          -11 13 -7 8 4 4 2 4 3 vhcurveto
          80 116 79 -115 rlineto
          -5 4 5 -2 4 hhcurveto
          10 10 8 11 20 callsubr
          endchar
        </CharString>
        <CharString name="at">
          239 -90 35 107 22 159 34 89 58 -35 35 101 37 hstemhm
          61 34 115 35 208 35 137 34 hintmask 1111011111000000
          236 374 rmoveto
          -7 6 -11 11 vhcurveto
          hintmask 1110111111000000
          16 11 23 66 hhcurveto
          74 33 -29 -62 hvcurveto
          -21 -49 vlineto
          -122 -72 -19 -90 -80 55 -26 71 59 27 17 33 35 hvcurveto
          -31 9 38 -30 47 hhcurveto
          85 23 96 97 209 -105 109 -191 -217 -85 -150 -182 -217 128 -93 137 83 81 33 21 6 -7 8 -8 hvcurveto
          -18 -37 -33 -91 hhcurveto
          -174 -60 135 141 152 66 142 199 179 86 -107 -175 -71 -14 -88 -58 -30 -32 23 28 -3 hvcurveto
          164 vlineto
          79 -45 46 -88 -54 -65 -17 -23 vhcurveto
          217 -208 rmoveto
          -35 -41 -46 -78 -50 -39 20 52 71 70 5 90 vhcurveto
          48 hlineto
          endchar
        </CharString>
        <CharString name="atilde">
          -64 callsubr
          141 34 3 34 -14 callsubr
          hintmask 10111111
          265 -41 callgsubr
          -71 -175 -100 callgsubr
          hintmask 01111111
          -87 callgsubr
          hintmask 10111111
          -63 callsubr
        </CharString>
        <CharString name="b">
          -15 callgsubr
          69 -37 callsubr
          hintmask 01111100
          86 -73 callsubr
          52 vlineto
          hintmask 10111100
          -54 callgsubr
        </CharString>
        <CharString name="b.ss02">
          -2 -21 callsubr
          290 -20 hstem
          66 -37 callsubr
          vstem
          83 768 rmoveto
          -10 -7 -6 -10 hvcurveto
          -606 vlineto
          -113 87 -39 81 133 48 104 78 -20 callgsubr
          -82 81 -98 -67 -45 -37 -39 -22 vhcurveto
          349 vlineto
          -71 callsubr
          vhcurveto
          297 -592 rmoveto
          -54 -28 -93 -115 -75 -61 39 87 vhcurveto
          143 vlineto
          91 69 54 68 78 64 -72 -73 vhcurveto
          endchar
        </CharString>
        <CharString name="backslash">
          -128 21 -21 754 -20 hstem
          279 12 rmoveto
          -9 3 7 -3 7 hhcurveto
          9 8 6 9 2 0 2 -1 2 hvcurveto
          -252 724 rlineto
          6 -2 -6 3 -6 hhcurveto
          -9 -9 -7 -12 -2 0 -3 1 -3 hvcurveto
          endchar
        </CharString>
        <CharString name="bar">
          -284 0 -21 789 -20 hstem
          74 36 vstem
          92 -21 rmoveto
          -19 callsubr
          hvcurveto
          755 -35 callgsubr
          -755 vlineto
          -28 callgsubr
          vhcurveto
          endchar
        </CharString>
        <CharString name="braceleft">
          -183 -20 35 718 35 hstemhm
          34 96 -57 36 -36 192 -171 36 hintmask 11100000
          34 384 rmoveto
          hintmask 11000100
          -33 60 27 -31 vvcurveto
          hintmask 11001000
          -19 -21 -166 -33 vvcurveto
          -89 77 -60 98 8 9 7 11 7 -4 10 -13 vhcurveto
          hintmask 11010000
          -45 -94 24 88 hvcurveto
          hintmask 11100000
          38 21 159 23 vvcurveto
          21 -22 12 -12 4 vhcurveto
          12 3 22 13 22 vvcurveto
          hintmask 11010000
          19 -21 132 31 vvcurveto
          65 57 64 82 vhcurveto
          hintmask 11001000
          9 -3 callgsubr
          -9 -97 -78 -75 -86 hvcurveto
          hintmask 11000100
          -30 21 -137 -18 vvcurveto
          hintmask 11100000
          -31 -60 25 -32 vvcurveto
          endchar
        </CharString>
        <CharString name="braceright">
          -183 -20 35 718 35 hstemhm
          20 192 -57 36 -36 96 -75 36 hintmask 11001000
          251 384 rmoveto
          hintmask 11010000
          32 -60 -25 31 vvcurveto
          hintmask 11100000
          18 21 137 30 vvcurveto
          86 -78 75 -97 -9 -8 -8 -9 -18 callgsubr
          9 vhcurveto
          hintmask 11000100
          82 57 -64 -65 hvcurveto
          hintmask 11010000
          -31 -21 -132 -19 vvcurveto
          -22 21 -13 13 -3 vhcurveto
          -13 -4 -21 -12 -21 vvcurveto
          hintmask 11000100
          -23 21 -159 -38 vvcurveto
          -88 -94 -24 -45 21 callsubr
          98 77 60 89 hvcurveto
          hintmask 11010000
          33 -21 166 19 vvcurveto
          hintmask 11001000
          31 60 -27 33 vvcurveto
          endchar
        </CharString>
        <CharString name="bracketleft">
          -183 -21 35 719 35 hstemhm
          74 36 -36 191 hintmask 11010000
          248 -21 rmoveto
          -57 callsubr
          hintmask 11100000
          -138 719 138 hlineto
          hintmask 11010000
          9 -3 callgsubr
          -9 hvcurveto
          -156 hlineto
          -17 callsubr
          -9 hvcurveto
          -755 vlineto
          -10 9 -7 9 vhcurveto
          endchar
        </CharString>
        <CharString name="bracketright">
          -183 -21 35 719 35 hstemhm
          20 191 -36 36 hintmask 11100000
          193 -21 rmoveto
          -48 callgsubr
          10 hvcurveto
          755 vlineto
          9 -8 8 -10 vhcurveto
          -156 hlineto
          -9 -8 -8 -9 -18 callgsubr
          9 hvcurveto
          hintmask 11010000
          138 -719 -138 hlineto
          hintmask 11100000
          -9 -8 -8 -10 -9 callgsubr
          9 hvcurveto
          endchar
        </CharString>
        <CharString name="breve">
          -250 601 -40 callsubr
          0 -12 callgsubr
          hintmask 01110000
          185 710 rmoveto
          hintmask 10110000
          -39 callgsubr
          hintmask 01110000
          -87 callsubr
          endchar
        </CharString>
        <CharString name="brokenbar">
          -282 0 -21 789 -20 hstem
          75 36 vstem
          93 -21 rmoveto
          -19 callsubr
          hvcurveto
          282 -35 callgsubr
          -282 vlineto
          -28 callgsubr
          vhcurveto
          473 vmoveto
          -19 callsubr
          hvcurveto
          282 -35 callgsubr
          -282 vlineto
          -28 callgsubr
          vhcurveto
          endchar
        </CharString>
        <CharString name="bullet">
          -164 206 187 hstem
          56 191 vstem
          152 393 rmoveto
          -52 -44 -44 -49 -50 44 -44 52 51 44 44 50 49 -44 44 -51 hvcurveto
          endchar
        </CharString>
        <CharString name="c">
          -36 callgsubr
          hstemhm
          52 35 hintmask 01101000
          235 -6 rmoveto
          85 52 38 21 9 -8 8 -9 hvcurveto
          hintmask 10011000
          -68 callsubr
          hintmask 01101000
          79 17 -41 17 hhcurveto
          -19 callsubr
          21 -51 38 -80 -125 -58 -80 -102 hvcurveto
          -120 vlineto
          -104 59 -78 124 vhcurveto
          endchar
        </CharString>
        <CharString name="cacute">
          -36 callgsubr
          216 -81 callsubr
          33 664 -107 callgsubr
          endchar
        </CharString>
        <CharString name="caron">
          -188 609 -16 callsubr
          261 700 -106 callsubr
          endchar
        </CharString>
        <CharString name="caron.alt">
          -397 619 -16 callsubr
          0 71 vstem
          36 741 -43 callsubr
          endchar
        </CharString>
        <CharString name="ccaron">
          -36 callgsubr
          253 -81 callsubr
          97 706 -106 callsubr
          endchar
        </CharString>
        <CharString name="ccedilla">
          -66 25 callsubr
          60 34 -34 75 332 76 -35 35 hstemhm
          52 35 209 33 hintmask 11011011
          372 53 rmoveto
          9 -8 8 -9 vhcurveto
          hintmask 11100111
          -68 callsubr
          hintmask 11101011
          79 17 -41 17 hhcurveto
          -19 callsubr
          21 -51 38 -80 -125 -58 -80 -102 hvcurveto
          -120 vlineto
          -99 53 -76 112 -6 vhcurveto
          -20 -85 -82 callgsubr
          14 60 rlineto
          77 4 46 34 20 vvcurveto
          endchar
        </CharString>
        <CharString name="ccircumflex">
          -36 callgsubr
          216 -81 callsubr
          -23 665 rmoveto
          -107 callsubr
        </CharString>
        <CharString name="cdotaccent">
          -36 callgsubr
          122 59 hstemhm
          52 35 95 59 hintmask 01101110
          235 -6 rmoveto
          85 52 38 21 9 -8 8 -9 hvcurveto
          hintmask 10011110
          -68 callsubr
          hintmask 01101110
          79 17 -41 17 hhcurveto
          -19 callsubr
          21 -51 38 -80 -125 -58 -80 -102 hvcurveto
          -120 vlineto
          -104 59 -78 124 vhcurveto
          -23 665 rmoveto
          -83 callgsubr
        </CharString>
        <CharString name="cedilla">
          -312 25 callsubr
          74 -20 hstem
          123 33 vstem
          80 9 rmoveto
          -32 hlineto
          -24 -99 -82 callgsubr
          endchar
        </CharString>
        <CharString name="cent">
          -62 61 -21 134 35 -35 76 232 76 -35 35 136 -20 hstemhm
          41 35 107 36 -36 178 hintmask 1011011100000000
          201 40 rmoveto
          -19 callsubr
          hvcurveto
          117 vlineto
          hintmask 1011011010000000
          69 73 27 31 11 -10 7 -9 hvcurveto
          hintmask 1100111100000000
          -19 -15 -41 -89 hhcurveto
          314 vlineto
          hintmask 1101011010000000
          88 17 -41 18 hhcurveto
          9 10 7 11 hvcurveto
          hintmask 1101011100000000
          29 -66 29 -76 vhcurveto
          119 -35 callgsubr
          -122 vlineto
          -98 -16 -44 -73 -90 vvcurveto
          -20 vlineto
          -92 47 -72 95 -15 vhcurveto
          -120 vlineto
          -28 callgsubr
          vhcurveto
          -125 336 rmoveto
          76 35 52 72 15 vhcurveto
          -306 vlineto
          -72 14 -35 52 77 vvcurveto
          endchar
        </CharString>
        <CharString name="circumflex">
          -208 621 -21 22 -21 93 -20 hstemhm
          hintmask 01100000
          130 -72 callgsubr
          hintmask 10100000
          19 callgsubr
        </CharString>
        <CharString name="colon">
          -275 -6 72 284 72 hstem
          61 71 vstem
          97 -7 callsubr
          356 vmoveto
          -6 callsubr
        </CharString>
        <CharString name="comma">
          -306 -56 -16 callsubr
          45 71 vstem
          80 66 -46 callsubr
        </CharString>
        <CharString name="commaaccent">
          -263 -120 -21 93 -20 hstem
          151 -84 -107 callgsubr
          endchar
        </CharString>
        <CharString name="copyright">
          260 35 35 98 33 331 34 84 35 hstem
          57 35 175 36 124 36 173 -62 callgsubr
          -209 105 rmoveto
          -8 6 -6 12 13 5 4 18 49 -36 42 -62 -53 -45 -32 -84 vhcurveto
          -167 vlineto
          -84 44 -31 53 62 37 42 50 17 -5 5 -13 -11 -6 -5 -9 -1 vhcurveto
          -26 -3 -5 -41 -52 hhcurveto
          -41 -23 26 56 hvcurveto
          167 vlineto
          56 23 26 40 52 8 -42 -23 1 vhcurveto
          endchar
        </CharString>
        <CharString name="currency">
          21 290 38 286 38 hstem
          69 38 279 38 vstem
          246 652 rmoveto
          -44 -41 -17 -28 -31 hvcurveto
          -25 26 rlineto
          3 -3 -5 2 -4 hhcurveto
          -9 -9 -7 -10 -5 2 -5 3 -3 hvcurveto
          26 -27 rlineto
          -23 -30 -14 -39 -40 vvcurveto
          -41 14 -38 24 -31 vhcurveto
          -34 -34 1 callgsubr
          33 33 rlineto
          -29 32 40 -18 44 hhcurveto
          41 38 16 26 31 hvcurveto
          29 -28 rlineto
          -4 3 5 -1 4 hhcurveto
          9 8 9 8 4 -2 4 -3 4 hvcurveto
          -29 29 rlineto
          27 32 17 40 43 vvcurveto
          44 -16 40 -27 31 vhcurveto
          28 28 1 callsubr
          -28 -28 rlineto
          25 -31 -38 15 -41 hhcurveto
          -18 callsubr
        </CharString>
        <CharString name="d">
          -15 callgsubr
          50 -37 callsubr
          hintmask 10111100
          382 768 rmoveto
          -10 -8 -5 callsubr
          -349 vlineto
          -72 callsubr
          -52 vlineto
          hintmask 01111100
          -10 callgsubr
          10 7 9 9 vhcurveto
          733 vlineto
          -45 callgsubr
          hintmask 10111100
          -29 callsubr
          endchar
        </CharString>
        <CharString name="dagger">
          -65 0 -21 461 29 3 -20 279 -20 hstemhm
          183 36 hintmask 11011000
          24 454 -21 callgsubr
          142 6 rlineto
          -447 vlineto
          -28 callgsubr
          -19 callsubr
          vhcurveto
          447 vlineto
          142 -6 rlineto
          -48 callgsubr
          10 hvcurveto
          hintmask 10111000
          10 -9 8 -9 vhcurveto
          -142 -6 rlineto
          248 -35 callgsubr
          -248 vlineto
          -142 6 rlineto
          -54 callsubr
        </CharString>
        <CharString name="daggerdbl">
          -31 0 -21 247 29 185 29 3 -20 279 -20 hstemhm
          41 195 -36 36 -36 196 hintmask 11101100
          41 454 -21 callgsubr
          hintmask 11101010
          142 6 rlineto
          -191 vlineto
          -142 6 rlineto
          hintmask 11101100
          -10 -7 -7 -10 -10 7 -8 10 hvcurveto
          hintmask 11101010
          142 6 rlineto
          -233 vlineto
          -28 callgsubr
          -19 callsubr
          vhcurveto
          233 vlineto
          142 -6 rlineto
          hintmask 11101001
          9 -10 callsubr
          10 -27 callsubr
          hvcurveto
          hintmask 11101100
          -142 -6 rlineto
          191 vlineto
          142 -6 rlineto
          hintmask 11101001
          -48 callgsubr
          10 hvcurveto
          hintmask 11011100
          10 -9 8 -9 vhcurveto
          -142 -6 rlineto
          248 6 callgsubr
          vhcurveto
          hintmask 11101010
          -17 callsubr
          -9 hvcurveto
          -248 vlineto
          hintmask 11011100
          -142 6 rlineto
          -54 callsubr
        </CharString>
        <CharString name="dcaron">
          -15 callgsubr
          50 -37 callsubr
          63 71 hintmask 10111110
          382 768 rmoveto
          -10 -8 -5 callsubr
          -349 vlineto
          -72 callsubr
          -52 vlineto
          hintmask 01111110
          -10 callgsubr
          10 7 9 9 vhcurveto
          733 vlineto
          -45 callgsubr
          hintmask 10111110
          -29 callsubr
          413 565 -43 callsubr
          endchar
        </CharString>
        <CharString name="dcroat">
          0 -6 35 -8 -33 callsubr
          105 35 150 -20 hstemhm
          50 -37 callsubr
          hintmask 10111110
          382 768 rmoveto
          -10 -8 -5 callsubr
          -133 -138 vlineto
          -73 callgsubr
          138 -181 hlineto
          -72 callsubr
          -52 vlineto
          hintmask 01111110
          -10 callgsubr
          10 7 9 9 vhcurveto
          565 57 vlineto
          -94 callgsubr
          -57 133 hlineto
          -45 callgsubr
          hintmask 10111110
          -29 callsubr
          endchar
        </CharString>
        <CharString name="degree">
          -39 406 38 286 38 hstem
          37 38 279 38 vstem
          214 768 rmoveto
          -97 -80 -84 -96 -20 callsubr
          -33 callgsubr
          99 -83 81 -95 hvcurveto
          -18 callsubr
        </CharString>
        <CharString name="dieresis">
          -298 600 59 hstem
          0 59 52 59 vstem
          30 659 -104 callgsubr
          endchar
        </CharString>
        <CharString name="divide">
          -7 37 86 100 35 100 86 hstem
          183 87 cntrmask 11100000
          227 123 rmoveto
          2 callgsubr
          321 vmoveto
          2 callgsubr
          -174 -204 -21 callgsubr
          320 hlineto
          -94 callgsubr
          -320 -50 callgsubr
        </CharString>
        <CharString name="dollar">
          16 -31 -21 56 36 -36 122 558 37 47 -20 hstemhm
          44 230 -212 36 140 36 -36 179 -18 36 hintmask 1101101101000000
          238 40 rmoveto
          hintmask 1011110001000000
          -141 -17 86 -19 hhcurveto
          -7 -10 -11 -10 hvcurveto
          hintmask 1101101101000000
          -27 66 -74 128 vhcurveto
          -39 vlineto
          -28 callgsubr
          -19 callsubr
          vhcurveto
          41 vlineto
          95 11 66 58 120 vvcurveto
          138 -80 40 -81 29 vhcurveto
          282 vlineto
          -4 78 34 -33 13 hhcurveto
          hintmask 1101101010000000
          9 9 14 8 hvcurveto
          hintmask 1101110001000000
          21 -67 28 -76 3 vhcurveto
          30 6 callgsubr
          vhcurveto
          hintmask 1101101101000000
          -17 callsubr
          -9 hvcurveto
          -31 vlineto
          -80 -4 -96 -33 -125 vvcurveto
          -128 89 -26 87 -29 vhcurveto
          161 -183 rmoveto
          -86 -43 -51 -82 -12 vhcurveto
          319 vlineto
          67 -27 58 -38 -105 vvcurveto
          -301 369 rmoveto
          91 70 28 70 4 vhcurveto
          -270 vlineto
          -74 25 -66 27 95 vvcurveto
          endchar
        </CharString>
        <CharString name="dotaccent">
          -261 600 59 hstem
          80 59 vstem
          110 659 rmoveto
          -83 callgsubr
        </CharString>
        <CharString name="dotlessi">
          6 callsubr
          hstem
          68 35 vstem
          85 472 rmoveto
          -9 -8 -5 callsubr
          -437 vlineto
          -9 8 -9 9 10 8 9 9 vhcurveto
          437 vlineto
          -71 callsubr
          vhcurveto
          endchar
        </CharString>
        <CharString name="dotlessj">
          17 callgsubr
          hstem
          69 35 vstem
          86 472 -55 callsubr
          -503 -60 callgsubr
          503 vlineto
          -71 callsubr
          vhcurveto
          endchar
        </CharString>
        <CharString name="e">
          -23 22 callsubr
          51 35 285 35 hintmask 01111100
          -91 callgsubr
          hintmask 10111100
          -99 callgsubr
          endchar
        </CharString>
        <CharString name="eacute">
          -23 -67 callgsubr
          216 -20 hstemhm
          51 35 285 35 hintmask 01111110
          -91 callgsubr
          hintmask 10111110
          -99 callgsubr
          -26 400 -107 callgsubr
          endchar
        </CharString>
        <CharString name="ebreve">
          -23 -67 callgsubr
          123 -40 callsubr
          51 35 33 -12 callgsubr
          34 35 hintmask 0111101111000000
          -91 callgsubr
          hintmask 1011011111000000
          -99 callgsubr
          -7 452 rmoveto
          hintmask 1011101111000000
          -39 callgsubr
          hintmask 1011011111000000
          -87 callsubr
          endchar
        </CharString>
        <CharString name="ecaron">
          -23 -67 callgsubr
          253 -20 hstemhm
          51 35 285 35 hintmask 01111110
          -91 callgsubr
          hintmask 10111110
          -99 callgsubr
          37 442 -106 callsubr
          endchar
        </CharString>
        <CharString name="ecircumflex">
          -23 -67 callgsubr
          216 -20 hstemhm
          51 35 285 35 hintmask 01111110
          -91 callgsubr
          hintmask 10111110
          -99 callgsubr
          -83 401 rmoveto
          -107 callsubr
        </CharString>
        <CharString name="edieresis">
          -23 -67 callgsubr
          122 59 hstemhm
          51 35 57 59 52 59 58 35 hintmask 0111111110000000
          -91 callgsubr
          hintmask 1011111110000000
          -99 callgsubr
          -138 401 -104 callgsubr
          endchar
        </CharString>
        <CharString name="edotaccent">
          -23 -67 callgsubr
          122 59 hstemhm
          51 35 113 59 113 35 cntrmask 00000111
          hintmask 01111111
          -91 callgsubr
          hintmask 10111111
          -99 callgsubr
          -82 401 rmoveto
          -83 callgsubr
        </CharString>
        <CharString name="egrave">
          -23 -67 callgsubr
          216 -20 hstemhm
          51 35 285 35 hintmask 01111110
          -91 callgsubr
          hintmask 10111110
          -99 callgsubr
          -44 346 -104 callsubr
          endchar
        </CharString>
        <CharString name="eight">
          21 -6 36 349 37 279 36 hstemhm
          49 36 -17 36 282 36 -18 36 hintmask 11101100
          245 731 rmoveto
          -100 -77 -40 -134 -87 34 -49 51 -23 hvcurveto
          hintmask 11110010
          -62 -26 -42 -57 -103 vvcurveto
          -12 vlineto
          -149 86 -57 110 110 85 57 149 vhcurveto
          12 vlineto
          103 -41 57 -62 26 vhcurveto
          hintmask 11110100
          51 23 34 49 87 vvcurveto
          134 -77 40 -100 vhcurveto
          hintmask 11110010
          159 -531 rmoveto
          -115 -59 -55 -99 -100 -61 -39 callsubr
          12 vlineto
          115 61 52 99 99 60 -52 -115 vhcurveto
          -159 483 rmoveto
          hintmask 11101100
          88 53 -39 -99 -100 -53 -41 -88 -88 -53 41 100 99 53 39 88 hvcurveto
          endchar
        </CharString>
        <CharString name="eightinferior">
          -156 -3 29 158 30 122 30 hstem
          52 23 163 33 vstem
          156 366 -102 callgsubr
          endchar
        </CharString>
        <CharString name="eightsuperior">
          -154 362 29 158 30 122 30 hstem
          53 23 163 33 vstem
          157 731 -102 callgsubr
          endchar
        </CharString>
        <CharString name="ellipsis">
          46 -6 72 hstem
          45 71 106 71 105 71 vstem
          81 -7 callsubr
          177 hmoveto
          -21 -15 -16 -20 -19 15 -17 21 19 16 17 19 20 -16 16 -19 hvcurveto
          176 hmoveto
          -6 callsubr
        </CharString>
        <CharString name="emacron">
          -23 -67 callgsubr
          169 35 hstemhm
          51 35 285 35 hintmask 01111110
          -91 callgsubr
          hintmask 10111110
          -99 callgsubr
          -210 406 rmoveto
          -93 callgsubr
          endchar
        </CharString>
        <CharString name="emdash">
          267 15 callgsubr
          600 hlineto
          -94 callgsubr
          -600 -50 callgsubr
        </CharString>
        <CharString name="endash">
          -13 15 callgsubr
          320 hlineto
          -94 callgsubr
          -320 -50 callgsubr
        </CharString>
        <CharString name="eng">
          13 -237 35 223 17 callsubr
          hintmask 11101100
          237 -31 callsubr
          -67 -45 -37 -39 -22 hvcurveto
          53 vlineto
          hintmask 11011100
          -70 callgsubr
          -437 -90 callgsubr
          280 vlineto
          hintmask 11101100
          91 69 54 68 78 64 -72 -73 vhcurveto
          -346 -60 callgsubr
          346 vlineto
          99 -82 81 -98 vhcurveto
          endchar
        </CharString>
        <CharString name="eogonek">
          -23 -170 26 -26 240 -76 35 194 -46 callgsubr
          hstemhm
          51 35 183 29 73 35 hintmask 10111111
          361 -144 rmoveto
          -1 callgsubr
          50 29 36 37 36 hvcurveto
          17 11 10 12 8 vvcurveto
          hintmask 01011111
          8 -9 10 -9 vhcurveto
          hintmask 10111111
          -19 -15 -41 -84 hhcurveto
          -98 -71 56 91 hvcurveto
          47 237 vlineto
          43 40 2 73 104 -83 76 -94 -97 -81 -81 -96 hvcurveto
          -125 vlineto
          -109 84 -73 118 19 17 2 3 16 vhcurveto
          -22 -30 -14 -33 -39 -71 callgsubr
          vhcurveto
          -275 402 rmoveto
          43 vlineto
          75 62 67 81 86 56 -76 -72 -31 -11 -6 -49 vhcurveto
          endchar
        </CharString>
        <CharString name="equal">
          -37 159 35 168 35 hstem
          73 176 -21 callgsubr
          250 hlineto
          -94 callgsubr
          -250 hlineto
          -69 callgsubr
          hvcurveto
          203 vmoveto
          -69 callsubr
          250 hlineto
          -94 callgsubr
          -250 -50 callgsubr
        </CharString>
        <CharString name="estimated">
          67 22 callsubr
          59 85 265 75 hintmask 01111100
          277 -31 callsubr
          -117 -101 -96 -111 hvcurveto
          -65 vlineto
          -127 100 -85 142 105 63 39 19 8 -9 10 -9 vhcurveto
          hintmask 10111100
          -24 -19 -41 -105 hhcurveto
          -90 -69 56 91 hvcurveto
          47 257 vlineto
          42 41 2 73 104 -97 76 -110 hvcurveto
          -133 -220 rmoveto
          43 vlineto
          75 58 67 75 80 52 -76 -72 -31 -11 -6 -49 vhcurveto
          endchar
        </CharString>
        <CharString name="eth">
          0 -21 callsubr
          253 37 hstem
          50 35 285 35 vstem
          127 731 rmoveto
          44 50 -21 -45 43 hvcurveto
          -92 -53 rlineto
          -6 -3 -3 -6 -5 vvcurveto
          -9 8 -10 9 3 3 1 2 3 vhcurveto
          98 56 41 -55 32 -81 10 -110 rlinecurve
          55 -17 -69 31 -57 hhcurveto
          -97 -80 -84 -96 hvcurveto
          -122 vlineto
          -20 callsubr
          -33 callgsubr
          vhcurveto
          189 vlineto
          127 -37 97 -50 67 vhcurveto
          74 43 rlineto
          6 3 3 6 6 vvcurveto
          9 -9 8 -9 -3 -2 -1 -1 -2 vhcurveto
          -80 -46 rlineto
          57 -51 -59 28 -47 hhcurveto
          -18 -6 -10 -10 -9 4 -8 8 hvcurveto
          243 -555 rmoveto
          -75 -64 -72 -79 -79 -63 72 75 vhcurveto
          122 vlineto
          73 62 72 80 78 65 -69 -71 vhcurveto
          endchar
        </CharString>
        <CharString name="exclam">
          -275 -6 72 682 -20 hstem
          70 53 vstem
          123 717 rmoveto
          20 -12 11 -15 -15 -11 -11 -20 vhcurveto
          -180 11 -194 -180 vvcurveto
          -10 8 -6 7 6 10 6 10 vhcurveto
          180 11 194 180 vvcurveto
          -26 -651 rmoveto
          -6 callsubr
        </CharString>
        <CharString name="exclamdown">
          -275 15 -21 682 72 hstem
          70 53 vstem
          123 25 rmoveto
          180 -11 194 180 vvcurveto
          10 -10 6 -6 -7 -8 -6 -10 vhcurveto
          -180 -11 -194 -180 vvcurveto
          -20 11 -11 15 15 12 11 20 vhcurveto
          -26 651 rmoveto
          19 16 16 20 19 -16 17 -19 -21 -15 -17 -19 -20 15 -16 21 hvcurveto
          endchar
        </CharString>
        <CharString name="f">
          -179 21 -21 437 35 261 35 hstemhm
          69 35 -35 206 hintmask 11110000
          104 590 rmoveto
          74 1 61 69 81 hhcurveto
          10 hlineto
          hintmask 11101000
          10 8 7 10 7 callgsubr
          -10 hvcurveto
          -10 hlineto
          -96 -82 -82 -96 hvcurveto
          -573 vlineto
          -10 7 -7 9 vhcurveto
          hintmask 11110000
          10 9 7 10 hvcurveto
          420 153 vlineto
          hintmask 11101000
          10 -3 callgsubr
          -10 hvcurveto
          hintmask 11110000
          -153 hlineto
          endchar
        </CharString>
        <CharString name="fi">
          9 21 -21 437 35 261 35 hstem
          69 35 271 35 vstem
          262 733 rmoveto
          83 28 -41 15 hhcurveto
          6 10 7 11 30 -76 28 -69 -126 -64 -94 -84 -32 callsubr
          50 32 93 126 vhcurveto
          130 -261 rmoveto
          -9 -8 -5 callsubr
          -437 vlineto
          -9 8 -9 9 10 8 9 9 vhcurveto
          437 vlineto
          -71 callsubr
          vhcurveto
          endchar
        </CharString>
        <CharString name="five">
          -9 -6 36 353 36 276 36 hstem
          32 36 10 35 274 36 vstem
          104 419 rmoveto
          19 276 rlineto
          249 hlineto
          10 5 9 9 9 -5 9 -10 hvcurveto
          -267 hlineto
          -11 -6 -7 -11 -1 hvcurveto
          -18 -299 rlineto
          -2 -1 -13 -2 vvcurveto
          -7 3 -7 22 vhcurveto
          135 hlineto
          99 60 -53 -111 hvcurveto
          -19 vlineto
          -75 callgsubr
          -88 -71 48 83 12 -10 6 -9 -9 -8 -6 -14 -91 72 -74 123 110 86 56 150 vhcurveto
          19 vlineto
          146 -85 54 -110 vhcurveto
          endchar
        </CharString>
        <CharString name="fiveeighths">
          265 -22 callgsubr
          -4 31 158 29 120 31 37 -20 hstemhm
          35 34 162 34 209 23 163 33 hintmask 1011011111110000
          578 366 -102 callgsubr
          14 402 -99 callsubr
          hintmask 0110111111110000
          -80 callsubr
          -117 589 -86 callgsubr
        </CharString>
        <CharString name="fiveinferior">
          -170 -3 11 callsubr
          215 -86 callgsubr
        </CharString>
        <CharString name="fivesuperior">
          -170 362 11 callsubr
          580 -86 callgsubr
        </CharString>
        <CharString name="fl">
          19 21 -21 437 35 268 28 hstem
          69 35 271 35 vstem
          375 693 rmoveto
          -675 vlineto
          -9 8 -9 9 10 8 9 9 vhcurveto
          680 vlineto
          48 -38 -56 22 -54 hhcurveto
          -97 -96 -68 -110 -32 callsubr
          92 78 58 80 40 42 -15 -32 31 vhcurveto
          endchar
        </CharString>
        <CharString name="florin">
          -144 -137 35 469 35 331 35 hstem
          163 590 rmoveto
          74 11 71 69 81 hhcurveto
          4 hlineto
          11 9 8 11 9 -6 7 -9 hvcurveto
          -4 hlineto
          -96 -94 -82 -96 -13 hvcurveto
          -76 -538 rlineto
          -78 -11 -25 -76 -52 hhcurveto
          -20 hlineto
          -11 -10 -8 -11 -8 6 -8 10 hvcurveto
          20 hlineto
          80 34 92 97 14 hvcurveto
          44 315 rlineto
          153 hlineto
          11 10 9 11 8 -6 7 -10 hvcurveto
          -153 hlineto
          endchar
        </CharString>
        <CharString name="four">
          -51 21 -21 178 36 517 -20 hstem
          289 36 vstem
          289 -85 callgsubr
          160 59 vlineto
          12 6 9 9 -68 callgsubr
          -12 hvcurveto
          -59 234 hlineto
          -97 callsubr
          -234 -232 vlineto
          248 490 rlineto
          2 4 1 3 4 vvcurveto
          9 -8 7 -9 -7 -8 -4 -10 -5 vhcurveto
          -257 -509 -4 callgsubr
          -1 -4 -5 vvcurveto
          -41 callsubr
          12 vhcurveto
          261 hlineto
          endchar
        </CharString>
        <CharString name="fourinferior">
          -194 21 14 callsubr
          13 rmoveto
          -9 8 -4 8 9 8 4 9 vhcurveto
          73 31 vlineto
          8 6 8 8 8 -5 8 -9 hvcurveto
          -31 96 hlineto
          8 -8 4 -9 -8 -8 -4 -8 vhcurveto
          -96 -114 vlineto
          131 227 rlineto
          1 2 1 3 2 vvcurveto
          8 -9 6 -8 -5 -7 -4 -7 -4 vhcurveto
          -141 -247 rlineto
          -1 -3 -1 -3 -2 vvcurveto
          -8 5 -6 8 vhcurveto
          144 hlineto
          endchar
        </CharString>
        <CharString name="foursuperior">
          -194 386 14 callsubr
          378 rmoveto
          -9 8 -4 8 9 8 4 9 vhcurveto
          73 31 vlineto
          8 6 8 8 8 -5 8 -9 hvcurveto
          -31 96 hlineto
          8 -8 4 -9 -8 -8 -4 -8 vhcurveto
          -96 -114 vlineto
          131 227 rlineto
          1 2 1 3 2 vvcurveto
          8 -9 6 -8 -5 -7 -4 -7 -4 vhcurveto
          -141 -247 rlineto
          -1 -3 -1 -3 -2 vvcurveto
          -8 5 -6 8 vhcurveto
          144 hlineto
          endchar
        </CharString>
        <CharString name="fraction">
          -338 1 -21 788 -20 hstem
          278 738 -99 callsubr
          -51 callsubr
        </CharString>
        <CharString name="g">
          -36 callsubr
          -35 48 hstemhm
          32 35 -8 35 253 35 -4 35 hintmask 11010110
          -74 callsubr
          hintmask 11011001
          -86 callsubr
          hintmask 11100110
          30 -29 -41 18 -49 hhcurveto
          -74 callgsubr
          hintmask 11101001
          -82 callsubr
          hintmask 11101010
          -60 callsubr
          endchar
        </CharString>
        <CharString name="g.ss03">
          0 -237 35 196 -47 callgsubr
          -6 -20 hstemhm
          50 -37 callsubr
          hintmask 11011100
          222 -237 rmoveto
          131 46 96 109 hvcurveto
          487 vlineto
          10 -7 7 -10 -10 -8 -7 -10 vhcurveto
          -53 vlineto
          hintmask 11101100
          -72 callsubr
          -95 vlineto
          -91 -15 -86 -126 vhcurveto
          -91 -28 46 -18 hhcurveto
          -9 -7 -11 -8 -28 74 -34 78 hvcurveto
          -137 535 rmoveto
          73 64 72 78 68 69 -54 -91 vhcurveto
          -159 vlineto
          -29 callsubr
          endchar
        </CharString>
        <CharString name="gbreve">
          -36 callsubr
          -35 48 110 -40 callsubr
          32 35 -8 35 32 -12 callgsubr
          3 35 -4 35 hintmask 1101100111100000
          -74 callsubr
          hintmask 1101101011010000
          -86 callsubr
          hintmask 1110100111100000
          30 -29 -41 18 -49 hhcurveto
          -74 callgsubr
          hintmask 1110101011010000
          -82 callsubr
          hintmask 1110011011100000
          -60 callsubr
          -106 258 rmoveto
          hintmask 1110101011100000
          -39 callgsubr
          hintmask 1110011011100000
          -87 callsubr
          endchar
        </CharString>
        <CharString name="gcircumflex">
          -36 callsubr
          -35 48 203 -20 hstemhm
          32 35 -8 35 253 35 -4 35 hintmask 1101101100000000
          -74 callsubr
          hintmask 1101110010000000
          -86 callsubr
          hintmask 1110101100000000
          30 -29 -41 18 -49 hhcurveto
          -74 callgsubr
          hintmask 1110110010000000
          -82 callsubr
          hintmask 1110110100000000
          -60 callsubr
          -182 207 rmoveto
          -107 callsubr
        </CharString>
        <CharString name="gcommaaccent">
          -36 callsubr
          522 -20 hstemhm
          32 35 -8 35 95 71 87 35 -4 35 hintmask 1111011100000000
          -74 callsubr
          hintmask 1111101010000000
          -86 callsubr
          30 -29 -41 18 -49 hhcurveto
          hintmask 1111011100000000
          -74 callgsubr
          hintmask 1111101010000000
          -82 callsubr
          hintmask 1111101100000000
          -60 callsubr
          -193 405 rmoveto
          -78 callgsubr
          56 -199 -107 callgsubr
          endchar
        </CharString>
        <CharString name="gdotaccent">
          -36 callsubr
          -35 48 109 59 hstemhm
          32 35 -8 35 111 59 83 35 -4 35 hintmask 1101101110000000
          -74 callsubr
          hintmask 1101110101000000
          -86 callsubr
          hintmask 1110101110000000
          30 -29 -41 18 -49 hhcurveto
          -74 callgsubr
          hintmask 1110110101000000
          -82 callsubr
          hintmask 1110110110000000
          -60 callsubr
          -182 207 rmoveto
          -83 callgsubr
        </CharString>
        <CharString name="germandbls">
          60 -20 31 10 -21 392 35 10 35 261 35 hstemhm
          106 35 112 164 -35 35 35 32 hintmask 1011110110000000
          319 -20 rmoveto
          82 83 66 150 hvcurveto
          19 vlineto
          101 -75 84 -65 13 vhcurveto
          49 22 24 81 73 vvcurveto
          123 -68 56 -90 -109 -44 -82 -96 vhcurveto
          -118 -81 vlineto
          -73 callgsubr
          81 -420 hlineto
          hintmask 0111110110000000
          -10 7 -7 9 10 9 7 10 vhcurveto
          573 vlineto
          74 29 69 89 82 41 -59 -97 -55 -13 -90 -84 -5 vhcurveto
          hintmask 1011111010000000
          -17 -1 -15 -2 -16 vvcurveto
          -14 12 -1 19 -1 vhcurveto
          129 -9 39 -98 -70 vvcurveto
          -19 vlineto
          -122 -57 -63 -86 vhcurveto
          -51 -20 22 -13 hhcurveto
          -8 -7 -8 -9 -30 84 -6 25 hvcurveto
          endchar
        </CharString>
        <CharString name="grave">
          -335 622 -21 93 -20 hstem
          105 604 -104 callsubr
          endchar
        </CharString>
        <CharString name="greater">
          -73 -14 callgsubr
          319 277 rmoveto
          -258 -171 -7 callgsubr
          182 rlineto
          5 3 5 7 8 vvcurveto
          -30 callgsubr
          -4 3 vhcurveto
          -275 182 -5 callgsubr
        </CharString>
        <CharString name="greaterequal">
          -33 68 35 420 -20 hstem
          63 85 -21 callgsubr
          278 hlineto
          -94 callgsubr
          -278 hlineto
          -69 callgsubr
          hvcurveto
          267 260 rmoveto
          -258 -145 -7 callgsubr
          156 rlineto
          5 3 5 7 8 vvcurveto
          -30 callgsubr
          -4 3 vhcurveto
          -275 156 -5 callgsubr
        </CharString>
        <CharString name="guillemotleft">
          -107 -14 callgsubr
          141 83 -78 callsubr
          242 -177 -78 callsubr
          endchar
        </CharString>
        <CharString name="guillemotright">
          -107 -14 callgsubr
          316 260 -77 callgsubr
          -50 177 -77 callgsubr
          endchar
        </CharString>
        <CharString name="guilsinglleft">
          -253 -14 callgsubr
          141 83 -78 callsubr
          endchar
        </CharString>
        <CharString name="guilsinglright">
          -253 -14 callgsubr
          170 260 -77 callgsubr
          endchar
        </CharString>
        <CharString name="h">
          14 21 5 callsubr
          hstem
          69 -37 callsubr
          vstem
          104 298 rmoveto
          -93 callsubr
          349 vlineto
          -70 callgsubr
          -61 callsubr
          endchar
        </CharString>
        <CharString name="hbar">
          14 21 -33 callsubr
          114 35 141 -20 hstem
          69 -37 callsubr
          vstem
          20 609 -21 callgsubr
          32 -574 hlineto
          -27 callsubr
          -2 callsubr
          9 vhcurveto
          280 vlineto
          -93 callsubr
          190 153 vlineto
          -94 callgsubr
          -153 124 hlineto
          -70 callgsubr
          -124 -32 vlineto
          -54 callsubr
        </CharString>
        <CharString name="hcircumflex">
          14 21 5 callsubr
          201 -20 hstem
          69 -37 callsubr
          vstem
          104 298 rmoveto
          -93 callsubr
          349 vlineto
          -70 callgsubr
          -61 callsubr
          -16 896 rmoveto
          -107 callsubr
        </CharString>
        <CharString name="hungarumlaut">
          -188 622 -21 93 -20 hstem
          123 658 -84 callsubr
        </CharString>
        <CharString name="hyphen">
          -73 15 callgsubr
          260 hlineto
          -94 callgsubr
          -260 -50 callgsubr
        </CharString>
        <CharString name="i">
          6 callsubr
          176 63 hstemhm
          53 63 -48 35 hintmask 11101000
          85 472 rmoveto
          -9 -8 -5 callsubr
          -437 vlineto
          -9 8 -9 9 10 8 9 9 vhcurveto
          437 vlineto
          -71 callsubr
          vhcurveto
          219 vmoveto
          hintmask 11110000
          -65 callgsubr
          endchar
        </CharString>
        <CharString name="iacute">
          6 callsubr
          242 -20 hstem
          68 35 vstem
          85 472 rmoveto
          -9 -8 -5 callsubr
          -437 vlineto
          -9 8 -9 9 10 8 9 9 vhcurveto
          437 vlineto
          -71 callsubr
          vhcurveto
          56 186 -107 callgsubr
          endchar
        </CharString>
        <CharString name="ibreve">
          6 callsubr
          149 -40 callsubr
          -23 32 59 35 59 33 hintmask 11011110
          85 472 rmoveto
          -9 -8 -5 callsubr
          -437 vlineto
          -9 8 -9 9 10 8 9 9 vhcurveto
          437 vlineto
          -71 callsubr
          vhcurveto
          77 238 rmoveto
          hintmask 11101110
          -39 callgsubr
          hintmask 11011110
          -87 callsubr
          endchar
        </CharString>
        <CharString name="icircumflex">
          6 callsubr
          242 -20 hstem
          68 35 vstem
          85 472 rmoveto
          -9 -8 -5 callsubr
          -437 vlineto
          -9 8 -9 9 10 8 9 9 vhcurveto
          437 vlineto
          -71 callsubr
          vhcurveto
          187 vmoveto
          -107 callsubr
        </CharString>
        <CharString name="idieresis">
          6 callsubr
          148 59 hstem
          1 59 8 35 9 59 vstem
          85 472 rmoveto
          -9 -8 -5 callsubr
          -437 vlineto
          -9 8 -9 9 10 8 9 9 vhcurveto
          437 vlineto
          -71 callsubr
          vhcurveto
          -54 187 -104 callgsubr
          endchar
        </CharString>
        <CharString name="igrave">
          6 callsubr
          242 -20 hstem
          68 35 vstem
          85 472 rmoveto
          -9 -8 -5 callsubr
          -437 vlineto
          -9 8 -9 9 10 8 9 9 vhcurveto
          437 vlineto
          -71 callsubr
          vhcurveto
          38 132 -104 callsubr
          endchar
        </CharString>
        <CharString name="ij">
          -123 -237 35 223 -2 callgsubr
          176 63 hstemhm
          53 63 -48 35 123 63 -48 35 hintmask 11110110
          85 472 rmoveto
          -9 -8 -5 callsubr
          -437 vlineto
          -9 8 -9 9 10 8 9 9 vhcurveto
          437 vlineto
          -71 callsubr
          vhcurveto
          219 vmoveto
          hintmask 11111001
          -65 callgsubr
          173 -219 -55 callsubr
          -503 -60 callgsubr
          503 vlineto
          -71 callsubr
          vhcurveto
          219 vmoveto
          hintmask 11111010
          -65 callgsubr
          endchar
        </CharString>
        <CharString name="imacron">
          6 callsubr
          195 35 hstem
          68 35 vstem
          85 472 rmoveto
          -9 -8 -5 callsubr
          -437 vlineto
          -9 8 -9 9 10 8 9 9 vhcurveto
          437 vlineto
          -71 callsubr
          vhcurveto
          -128 192 rmoveto
          -93 callgsubr
          endchar
        </CharString>
        <CharString name="infinity">
          375 79 36 242 36 hstem
          65 36 641 36 vstem
          224 393 rmoveto
          -82 -77 -52 -105 -105 77 -52 82 73 78 45 73 46 hvcurveto
          -73 47 77 -45 73 hhcurveto
          83 77 52 105 105 -77 52 -82 -74 -77 -46 -73 -47 hvcurveto
          73 -46 -78 46 -73 hhcurveto
          218 -157 rmoveto
          82 38 75 39 63 hhcurveto
          67 57 -38 -83 -83 -57 -38 -67 -63 -75 39 82 -38 hvcurveto
          -41 hmoveto
          -82 -38 -75 -39 -63 hhcurveto
          -67 -57 38 83 83 57 38 67 63 75 -39 -82 38 hvcurveto
          endchar
        </CharString>
        <CharString name="integral">
          -142 -200 35 878 35 hstem
          145 36 vstem
          27 -200 rmoveto
          92 62 48 84 hvcurveto
          669 vlineto
          54 42 58 76 9 8 8 10 9 -7 8 -10 -91 -63 -70 -77 vhcurveto
          -669 vlineto
          -80 -65 -17 -53 -13 -4 -10 -7 -11 10 -7 7 vhcurveto
          endchar
        </CharString>
        <CharString name="iogonek">
          -295 -193 26 639 -20 176 63 hstemhm
          -3 29 29 63 -48 35 hintmask 11110100
          89 -167 23 callgsubr
          5 3 3 6 6 vvcurveto
          437 vlineto
          -71 callsubr
          -9 -8 -7 -10 vhcurveto
          -437 vlineto
          -43 -41 -30 -46 -57 -71 callgsubr
          vhcurveto
          -2 858 rmoveto
          hintmask 11111000
          -65 callgsubr
          endchar
        </CharString>
        <CharString name="itilde">
          6 callsubr
          167 34 3 34 hstem
          68 35 vstem
          85 472 rmoveto
          -9 -8 -5 callsubr
          -437 vlineto
          -9 8 -9 9 10 8 9 9 vhcurveto
          437 vlineto
          -71 callsubr
          vhcurveto
          68 181 rmoveto
          -103 callsubr
          endchar
        </CharString>
        <CharString name="j">
          17 callgsubr
          176 63 hstemhm
          54 63 -48 35 hintmask 11101000
          86 472 -55 callsubr
          -503 -60 callgsubr
          503 vlineto
          -71 callsubr
          vhcurveto
          219 vmoveto
          hintmask 11110000
          -65 callgsubr
          endchar
        </CharString>
        <CharString name="jcircumflex">
          17 callgsubr
          242 -20 hstemhm
          -36 140 -35 35 hintmask 11101000
          86 472 -55 callsubr
          -503 vlineto
          -89 -10 -65 -77 vhcurveto
          hintmask 11110000
          -10 -8 -7 -10 -10 callgsubr
          92 30 78 111 hvcurveto
          503 vlineto
          -71 callsubr
          vhcurveto
          1 187 rmoveto
          -107 callsubr
        </CharString>
        <CharString name="k">
          -31 6 callsubr
          316 -20 hstem
          69 35 vstem
          86 -73 callsubr
          168 vlineto
          105 92 184 -269 rlineto
          -6 4 5 -3 5 hhcurveto
          10 7 9 9 3 -1 4 -2 3 hvcurveto
          -185 273 161 140 rlineto
          5 4 1 6 5 vvcurveto
          12 -10 4 -9 -4 -3 -2 -2 -3 vhcurveto
          -270 -235 rlineto
          518 vlineto
          -71 callsubr
          vhcurveto
          endchar
        </CharString>
        <CharString name="kcommaaccent">
          -31 -120 -21 162 -2 callgsubr
          316 -20 hstem
          69 35 vstem
          86 -73 callsubr
          168 vlineto
          105 92 184 -269 rlineto
          -6 4 5 -3 5 hhcurveto
          10 7 9 9 3 -1 4 -2 3 hvcurveto
          -185 273 161 140 rlineto
          5 4 1 6 5 vvcurveto
          12 -10 4 -9 -4 -3 -2 -2 -3 vhcurveto
          -270 -235 rlineto
          518 vlineto
          -71 callsubr
          vhcurveto
          190 -852 -107 callgsubr
          endchar
        </CharString>
        <CharString name="kgreenlandic">
          -32 6 callsubr
          hstem
          68 35 vstem
          85 472 -55 callsubr
          -437 -90 callgsubr
          168 vlineto
          105 92 184 -269 rlineto
          -6 4 5 -3 5 hhcurveto
          10 7 9 9 3 -1 4 -2 3 hvcurveto
          -185 273 161 140 rlineto
          5 4 1 6 5 vvcurveto
          12 -10 4 -9 -4 -3 -2 -2 -3 vhcurveto
          -270 -235 rlineto
          222 vlineto
          -71 callsubr
          vhcurveto
          endchar
        </CharString>
        <CharString name="l">
          -279 21 -21 768 -20 hstem
          77 35 vstem
          94 -73 callsubr
          733 vlineto
          -71 callsubr
          vhcurveto
          endchar
        </CharString>
        <CharString name="lacute">
          -279 21 -21 768 -20 156 -20 hstem
          77 35 vstem
          94 -73 callsubr
          733 vlineto
          -71 callsubr
          vhcurveto
          57 100 -107 callgsubr
          endchar
        </CharString>
        <CharString name="lcaron">
          -279 21 -21 768 -20 hstem
          77 35 69 71 vstem
          94 -73 callsubr
          733 vlineto
          -71 callsubr
          vhcurveto
          123 -27 -43 callsubr
          endchar
        </CharString>
        <CharString name="lcommaaccent">
          -279 -120 -21 162 -21 768 -20 hstem
          77 35 vstem
          94 -73 callsubr
          733 vlineto
          -71 callsubr
          vhcurveto
          60 -852 -107 callgsubr
          endchar
        </CharString>
        <CharString name="ldot">
          -182 21 -21 264 72 432 -20 hstem
          77 35 90 71 vstem
          94 -73 callsubr
          733 vlineto
          -71 callsubr
          vhcurveto
          144 -432 rmoveto
          -6 callsubr
        </CharString>
        <CharString name="less">
          -73 -14 callgsubr
          334 449 -8 callgsubr
          -182 12 callgsubr
          -182 -8 callsubr
          171 rlineto
          endchar
        </CharString>
        <CharString name="lessequal">
          -34 68 35 420 -20 hstem
          371 85 rmoveto
          10 -7 8 -10 vhcurveto
          -278 hlineto
          -9 -9 -8 -10 -10 9 -7 9 hvcurveto
          278 hlineto
          10 7 7 10 hvcurveto
          -9 406 -8 callgsubr
          -156 12 callgsubr
          -156 -8 callsubr
          145 rlineto
          endchar
        </CharString>
        <CharString name="logicalnot">
          11 84 -21 160 35 hstem
          371 35 vstem
          389 63 rmoveto
          10 7 7 10 hvcurveto
          160 vlineto
          10 -9 8 -9 vhcurveto
          -310 hlineto
          -73 callgsubr
          293 -143 hlineto
          -10 -17 callgsubr
          endchar
        </CharString>
        <CharString name="lozenge">
          -20 20 -21 732 -20 hstem
          407 327 rmoveto
          8 15 5 11 12 vvcurveto
          12 -5 12 -8 16 vhcurveto
          -148 290 rlineto
          24 -12 -6 12 -17 hhcurveto
          -17 -6 -12 -24 -12 hvcurveto
          -148 -290 rlineto
          -8 -16 -5 -12 -12 vvcurveto
          -12 5 -11 8 -15 vhcurveto
          149 -291 rlineto
          -24 12 6 -13 16 hhcurveto
          15 7 14 23 12 hvcurveto
          129 330 rmoveto
          -163 -318 -163 318 163 318 rlineto
          endchar
        </CharString>
        <CharString name="lslash">
          -171 21 -21 768 -20 hstem
          125 35 vstem
          142 768 -55 callsubr
          -396 vlineto
          -96 -55 rlineto
          -6 -3 -3 -6 -5 vvcurveto
          -10 9 -9 8 3 3 1 2 3 vhcurveto
          79 45 rlineto
          -297 -90 callgsubr
          318 vlineto
          111 64 3 callgsubr
          -94 -55 rlineto
          376 vlineto
          -71 callsubr
          vhcurveto
          endchar
        </CharString>
        <CharString name="m">
          299 -31 callgsubr
          hstemhm
          68 35 265 35 265 35 cntrmask 00011100
          hintmask 11011100
          368 17 rmoveto
          -12 9 -5 8 9 9 5 12 vhcurveto
          287 vlineto
          83 68 56 67 62 68 -49 -96 -30 callsubr
          115 -80 65 -84 -58 -59 -32 -68 -35 vhcurveto
          59 -26 -55 41 -69 hhcurveto
          -67 -45 -37 -39 -22 hvcurveto
          53 vlineto
          hintmask 10111100
          -70 callgsubr
          -437 -90 callgsubr
          280 vlineto
          hintmask 11011100
          91 69 54 67 71 58 -61 -79 vhcurveto
          endchar
        </CharString>
        <CharString name="m.ss04">
          295 21 -33 callsubr
          hstem
          64 35 265 35 265 35 cntrmask 00111000
          381 374 rmoveto
          71 -37 -61 33 -59 hhcurveto
          -82 -78 -65 -115 hvcurveto
          -281 vlineto
          -9 7 -8 10 10 8 8 9 vhcurveto
          281 vlineto
          97 67 48 62 70 66 -60 -85 vhcurveto
          -281 vlineto
          -12 9 -5 8 9 9 5 12 vhcurveto
          281 vlineto
          85 65 60 69 63 68 -49 -96 -30 callsubr
          115 -80 65 -84 -59 -60 -33 -71 -35 vhcurveto
          endchar
        </CharString>
        <CharString name="macron">
          -213 647 35 hstem
          664 vmoveto
          -93 callgsubr
          endchar
        </CharString>
        <CharString name="minus">
          12 267 35 hstem
          63 284 -21 callgsubr
          320 hlineto
          -94 callgsubr
          -320 -50 callgsubr
        </CharString>
        <CharString name="mu">
          9 -216 -21 231 35 443 -20 hstem
          77 -37 callsubr
          vstem
          112 454 rmoveto
          9 -8 9 -10 -10 -7 -9 -9 vhcurveto
          -674 vlineto
          -10 7 -7 10 10 8 7 10 vhcurveto
          290 vlineto
          -39 22 53 -37 67 hhcurveto
          98 74 81 99 hvcurveto
          280 vlineto
          12 -9 6 -9 -8 -9 -6 -12 vhcurveto
          -280 vlineto
          -73 -63 -72 -72 -74 -70 77 44 vhcurveto
          endchar
        </CharString>
        <CharString name="multiply">
          -75 166 -21 261 -20 hstem
          327 162 rmoveto
          4 -1 4 -4 4 vhcurveto
          -101 101 101 101 1 callsubr
          -101 -101 -100 101 rlineto
          3 -3 -5 2 -5 hhcurveto
          -9 -8 -8 -9 -5 2 -5 3 -3 hvcurveto
          101 -101 -101 -101 1 callgsubr
          101 101 102 -101 rlineto
          -4 4 4 -1 4 hhcurveto
          10 7 9 8 hvcurveto
          endchar
        </CharString>
        <CharString name="n">
          13 21 17 callsubr
          hintmask 11011000
          103 298 -38 callgsubr
          hintmask 10111000
          -70 callgsubr
          -437 -90 callgsubr
          endchar
        </CharString>
        <CharString name="n.ss04">
          15 21 -33 callsubr
          hstem
          64 35 285 35 vstem
          241 -31 callsubr
          -96 -81 -84 -96 hvcurveto
          -281 vlineto
          -9 7 -8 10 10 8 8 9 vhcurveto
          281 vlineto
          75 63 70 79 80 63 -71 -74 -30 callsubr
          95 -80 85 -98 vhcurveto
          endchar
        </CharString>
        <CharString name="nacute">
          16 callgsubr
          242 -20 hstemhm
          68 -37 callsubr
          hintmask 11011100
          103 298 -38 callgsubr
          hintmask 10111100
          -70 callgsubr
          -437 -90 callgsubr
          191 640 -107 callgsubr
          endchar
        </CharString>
        <CharString name="ncaron">
          16 callgsubr
          279 -20 hstemhm
          68 -37 callsubr
          hintmask 11011100
          357 700 -106 callsubr
          -154 -301 -38 callgsubr
          hintmask 10111100
          -70 callgsubr
          -437 -90 callgsubr
          endchar
        </CharString>
        <CharString name="ncommaaccent">
          13 12 callsubr
          279 35 hintmask 11101100
          103 298 -38 callgsubr
          hintmask 11011100
          -70 callgsubr
          -437 -90 callgsubr
          182 -102 -107 callgsubr
          endchar
        </CharString>
        <CharString name="nine">
          36 -6 36 270 36 359 36 hstem
          48 -26 callsubr
          vstem
          243 300 rmoveto
          67 58 24 50 35 hvcurveto
          -174 vlineto
          -116 -59 -54 -100 -88 -72 52 79 12 -10 6 -9 -9 -8 -6 -14 -88 73 -77 123 110 85 56 150 vhcurveto
          325 -15 callsubr
          -58 callgsubr
          -29 vlineto
          -150 85 -46 110 vhcurveto
          160 187 rmoveto
          -110 -63 -41 -97 -100 -59 44 -11 callgsubr
          29 vlineto
          116 59 54 100 26 callsubr
          vhcurveto
          endchar
        </CharString>
        <CharString name="nineinferior">
          -145 -3 9 callgsubr
          147 -66 callgsubr
        </CharString>
        <CharString name="ninesuperior">
          -145 362 9 callgsubr
          512 -66 callgsubr
        </CharString>
        <CharString name="notequal">
          -5 0 -21 180 35 168 35 189 -20 hstem
          373 556 rmoveto
          2 4 1 3 4 vvcurveto
          11 -18 callgsubr
          -5 -5 -2 -6 -3 vhcurveto
          -80 -181 rlineto
          -189 hlineto
          -73 callgsubr
          173 hlineto
          -74 -168 rlineto
          -99 hlineto
          -73 callgsubr
          83 hlineto
          -68 -155 -4 callgsubr
          0 -4 -3 vvcurveto
          -53 callgsubr
          7 6 4 8 4 vhcurveto
          74 168 rlineto
          190 hlineto
          -94 callgsubr
          -174 hlineto
          75 168 rlineto
          99 hlineto
          -94 callgsubr
          -84 hlineto
          endchar
        </CharString>
        <CharString name="ntilde">
          16 callgsubr
          167 34 3 34 hstemhm
          68 -37 callsubr
          hintmask 11011110
          306 -41 callgsubr
          -203 -355 -38 callgsubr
          hintmask 10111110
          -70 callgsubr
          -437 -90 callgsubr
          endchar
        </CharString>
        <CharString name="numbersign">
          79 57 -21 232 30 177 30 -30 238 hstemhm
          hintmask 11100000
          354 268 rmoveto
          118 hlineto
          7 6 7 7 11 -11 5 -8 hvcurveto
          -107 hlineto
          27 177 rlineto
          117 hlineto
          7 6 8 7 10 -11 5 -8 hvcurveto
          -107 -16 callgsubr
          -135 -16 callgsubr
          -116 hlineto
          -7 -5 -6 -8 -10 5 -6 13 hvcurveto
          105 hlineto
          -26 -177 rlineto
          -116 hlineto
          -7 -5 -7 -8 -9 5 -6 13 hvcurveto
          104 hlineto
          -31 -213 rlineto
          -12 8 -7 9 6 7 4 12 2 vhcurveto
          32 216 rlineto
          134 hlineto
          -32 -213 rlineto
          -12 7 -7 9 8 7 5 10 2 vhcurveto
          -103 424 rmoveto
          134 hlineto
          -27 -177 rlineto
          -134 hlineto
          endchar
        </CharString>
        <CharString name="o">
          -3 callsubr
          -11 callsubr
          -20 callsubr
          -33 callgsubr
          -20 callgsubr
          -83 81 -95 vhcurveto
          143 -302 rmoveto
          -75 -64 -72 -79 -79 -63 72 75 vhcurveto
          122 vlineto
          73 62 72 80 80 63 -72 -73 vhcurveto
          endchar
        </CharString>
        <CharString name="oacute">
          -3 callsubr
          216 -12 callsubr
          -20 callsubr
          -33 callgsubr
          -20 callgsubr
          -83 81 -95 vhcurveto
          143 -302 rmoveto
          -75 -64 -72 -79 -79 -63 72 75 vhcurveto
          122 vlineto
          73 62 72 80 80 63 -72 -73 vhcurveto
          -86 360 -107 callgsubr
          endchar
        </CharString>
        <CharString name="obreve">
          -3 callsubr
          123 -40 callsubr
          50 35 33 -12 callgsubr
          34 35 hintmask 11011111
          227 -31 callsubr
          -97 -80 -84 -96 hvcurveto
          -122 vlineto
          -20 callsubr
          -33 callgsubr
          -20 callgsubr
          -83 81 -95 vhcurveto
          143 -302 rmoveto
          -75 -64 -72 -79 -79 -63 72 75 vhcurveto
          122 vlineto
          73 62 72 80 80 63 -72 -73 vhcurveto
          -67 412 rmoveto
          hintmask 11101111
          -39 callgsubr
          hintmask 11011111
          -87 callsubr
          endchar
        </CharString>
        <CharString name="ocircumflex">
          -3 callsubr
          216 -12 callsubr
          -20 callsubr
          -33 callgsubr
          -20 callgsubr
          -83 81 -95 vhcurveto
          143 -302 rmoveto
          -75 -64 -72 -79 -79 -63 72 75 vhcurveto
          122 vlineto
          73 62 72 80 80 63 -72 -73 vhcurveto
          -143 361 rmoveto
          -107 callsubr
        </CharString>
        <CharString name="odieresis">
          -3 callsubr
          122 59 hstem
          50 35 57 59 52 59 58 11 callgsubr
          -20 callsubr
          -33 callgsubr
          -20 callgsubr
          -83 81 -95 vhcurveto
          143 -302 rmoveto
          -75 -64 -72 -79 -79 -63 72 75 vhcurveto
          122 vlineto
          73 62 72 80 80 63 -72 -73 vhcurveto
          -198 361 -104 callgsubr
          endchar
        </CharString>
        <CharString name="oe">
          296 22 callsubr
          50 35 285 35 285 35 cntrmask 00001110
          hintmask 10111110
          227 -31 callsubr
          -97 -80 -84 -96 hvcurveto
          -122 vlineto
          -20 callsubr
          68 62 44 60 29 vhcurveto
          -64 30 68 -40 87 hhcurveto
          81 58 38 18 hvcurveto
          hintmask 01111110
          14 -10 6 -9 vhcurveto
          hintmask 10111110
          -21 -11 -41 -82 hhcurveto
          -102 -70 56 91 hvcurveto
          47 237 vlineto
          45 38 2 75 101 -83 77 -94 -71 -62 -43 -60 -28 hvcurveto
          61 -30 -62 42 -68 28 callgsubr
          -79 -63 72 75 vhcurveto
          122 vlineto
          73 62 72 80 80 63 -72 -73 vhcurveto
          35 -40 rmoveto
          47 vlineto
          73 63 65 80 86 56 -76 -72 -31 -11 -6 -49 vhcurveto
          endchar
        </CharString>
        <CharString name="ogonek">
          -358 -195 26 187 -20 hstem
          0 29 vstem
          92 -169 rmoveto
          -29 callgsubr
          hvcurveto
          -26 16 rlineto
          -44 -42 -31 -46 -58 -71 callgsubr
          vhcurveto
          endchar
        </CharString>
        <CharString name="ograve">
          -3 callsubr
          216 -12 callsubr
          -20 callsubr
          -33 callgsubr
          -20 callgsubr
          -83 81 -95 vhcurveto
          143 -302 rmoveto
          -75 -64 -72 -79 -79 -63 72 75 vhcurveto
          122 vlineto
          73 62 72 80 80 63 -72 -73 vhcurveto
          -104 306 -104 callsubr
          endchar
        </CharString>
        <CharString name="ohungarumlaut">
          -3 callsubr
          0 123 93 -20 hstemhm
          50 35 285 35 hintmask 11011100
          227 -31 callsubr
          -97 -80 -84 -96 hvcurveto
          -122 vlineto
          -20 callsubr
          -33 callgsubr
          -20 callgsubr
          -83 81 -95 vhcurveto
          143 -302 rmoveto
          -75 -64 -72 -79 -79 -63 72 75 vhcurveto
          122 vlineto
          73 62 72 80 80 63 -72 -73 vhcurveto
          -133 360 rmoveto
          7 4 3 7 7 vvcurveto
          -68 callgsubr
          -10 -2 -3 -1 -1 -2 vhcurveto
          -102 -60 rlineto
          -6 -3 -2 -5 -5 vvcurveto
          hintmask 10111100
          -10 9 -8 10 3 3 1 2 3 vhcurveto
          242 54 -107 callgsubr
          endchar
        </CharString>
        <CharString name="omacron">
          -3 callsubr
          169 35 -11 callsubr
          -20 callsubr
          -33 callgsubr
          -20 callgsubr
          -83 81 -95 vhcurveto
          143 -302 rmoveto
          -75 -64 -72 -79 -79 -63 72 75 vhcurveto
          122 vlineto
          73 62 72 80 80 63 -72 -73 vhcurveto
          -270 366 rmoveto
          -93 callgsubr
          endchar
        </CharString>
        <CharString name="one">
          -259 -49 callsubr
          hstem
          98 36 vstem
          29 586 rmoveto
          -2 -4 -8 -13 -6 13 callsubr
          -621 vlineto
          -97 callgsubr
          8 callgsubr
          29 callsubr
          endchar
        </CharString>
        <CharString name="one.lnum">
          -83 0 36 695 -20 hstem
          177 36 vstem
          17 18 rmoveto
          -18 callgsubr
          10 vhcurveto
          319 hlineto
          9 -10 callsubr
          10 -9 8 -9 hvcurveto
          -141 678 hlineto
          29 callsubr
          -69 -133 rlineto
          -1 -2 -6 -11 -5 13 callsubr
          -603 -142 vlineto
          -17 callsubr
          -10 hvcurveto
          endchar
        </CharString>
        <CharString name="oneeighth">
          151 -22 callgsubr
          15 callsubr
          241 23 163 33 hintmask 1011111110000000
          86 378 -92 callsubr
          378 -308 -102 callgsubr
          14 402 -99 callsubr
          hintmask 0111111110000000
          -51 callsubr
        </CharString>
        <CharString name="onehalf">
          140 0 31 -30 -21 354 32 15 callsubr
          224 43 147 33 hintmask 10111111
          86 378 -92 callsubr
          266 -392 -89 callsubr
          126 456 -99 callsubr
          hintmask 01111111
          -51 callsubr
        </CharString>
        <CharString name="oneinferior">
          -310 21 -21 366 -20 hstem
          70 33 vstem
          70 13 -92 callsubr
          endchar
        </CharString>
        <CharString name="onequarter">
          111 1 -21 41 -21 86 32 613 -20 57 -20 hstemhm
          82 33 358 33 hintmask 10111110
          82 378 -92 callsubr
          408 64 -99 callsubr
          -53 callgsubr
          7 6 0 callsubr
          vhcurveto
          371 22 rmoveto
          hintmask 01111110
          -9 8 -4 8 9 8 4 9 vhcurveto
          73 31 vlineto
          8 6 8 8 8 -5 8 -9 hvcurveto
          -31 96 hlineto
          8 -8 4 -9 -8 -8 -4 -8 vhcurveto
          -96 -114 vlineto
          131 227 rlineto
          1 2 1 3 2 vvcurveto
          8 -9 6 -8 -5 -7 -4 -7 -4 vhcurveto
          -141 -247 rlineto
          -1 -3 -1 -3 -2 vvcurveto
          -8 5 -6 8 vhcurveto
          144 hlineto
          endchar
        </CharString>
        <CharString name="onesuperior">
          -310 386 -21 366 -20 hstem
          70 33 vstem
          70 378 -92 callsubr
          endchar
        </CharString>
        <CharString name="onethird">
          151 30 callgsubr
          15 callsubr
          230 33 153 44 hintmask 0111111110000000
          86 378 -92 callsubr
          392 64 -99 callsubr
          -53 callgsubr
          7 6 0 callsubr
          vhcurveto
          hintmask 1011111110000000
          373 37 -100 callsubr
          endchar
        </CharString>
        <CharString name="ordfeminine">
          -162 431 30 108 27 103 32 hstem
          39 36 141 36 vstem
          142 731 rmoveto
          -39 -43 -16 -15 -8 5 -11 10 hvcurveto
          9 16 18 41 hhcurveto
          54 21 -46 -42 hvcurveto
          -15 -32 vlineto
          -86 -59 -17 -67 -49 28 -25 38 -6 hvcurveto
          -1 8 9 0 8 hhcurveto
          38 2 29 21 20 23 rrcurveto
          -28 vlineto
          -8 8 -7 9 11 7 7 8 vhcurveto
          162 vlineto
          62 -29 58 -81 vhcurveto
          74 -204 rmoveto
          -28 -43 -38 -42 -31 -25 16 37 49 53 6 57 vhcurveto
          31 hlineto
          endchar
        </CharString>
        <CharString name="ordmasculine">
          -148 430 33 234 34 hstem
          44 36 160 36 vstem
          160 731 rmoveto
          -64 -52 -54 -61 hvcurveto
          -70 vlineto
          -61 54 -55 62 62 54 55 61 vhcurveto
          70 vlineto
          63 -54 52 -62 vhcurveto
          80 -185 rmoveto
          -42 -36 -41 -44 -45 -35 41 42 vhcurveto
          70 vlineto
          41 35 40 45 45 35 -40 -41 vhcurveto
          endchar
        </CharString>
        <CharString name="oslash">
          -13 -11 -21 26 -47 callgsubr
          31 -84 callgsubr
          endchar
        </CharString>
        <CharString name="oslashacute">
          -13 -11 -21 26 -47 callgsubr
          216 -84 callgsubr
          199 482 -107 callgsubr
          endchar
        </CharString>
        <CharString name="otilde">
          -3 callsubr
          141 34 3 34 -11 callsubr
          -20 callsubr
          -33 callgsubr
          -20 callgsubr
          -83 81 -95 vhcurveto
          143 -302 rmoveto
          -75 -64 -72 -79 -79 -63 72 75 vhcurveto
          122 vlineto
          73 62 72 80 80 63 -72 -73 vhcurveto
          -74 355 rmoveto
          -103 callsubr
          endchar
        </CharString>
        <CharString name="p">
          28 callsubr
          -6 -20 hstemhm
          69 -37 callsubr
          hintmask 11011100
          86 472 -55 callsubr
          -674 -90 callgsubr
          289 vlineto
          -41 22 53 -35 61 hhcurveto
          -33 callgsubr
          hvcurveto
          122 vlineto
          hintmask 11101100
          99 -82 81 -98 -67 -45 -37 -39 -22 vhcurveto
          53 vlineto
          hintmask 11011100
          -71 callsubr
          vhcurveto
          297 -296 rmoveto
          -75 -65 -72 -76 -79 -59 76 34 vhcurveto
          159 vlineto
          hintmask 11101100
          91 69 54 68 78 64 -72 -73 vhcurveto
          endchar
        </CharString>
        <CharString name="paragraph">
          44 21 -21 695 36 hstem
          282 36 75 36 vstem
          234 731 rmoveto
          -110 -86 -56 -150 hvcurveto
          -12 vlineto
          -150 86 -57 110 vhcurveto
          48 -288 hlineto
          -97 callgsubr
          677 75 -678 -44 callgsubr
          -42 callsubr
          6 -9 vhcurveto
          endchar
        </CharString>
        <CharString name="parenleft">
          -190 -20 35 718 35 hstemhm
          67 36 -36 191 hintmask 11010000
          241 -20 rmoveto
          8 9 7 11 7 -4 10 -13 hvcurveto
          hintmask 11100000
          -61 -77 23 105 hvcurveto
          448 vlineto
          69 50 73 88 vhcurveto
          hintmask 11010000
          9 -3 callgsubr
          -9 -103 -71 -85 -92 hvcurveto
          -448 vlineto
          -102 69 -61 105 vhcurveto
          endchar
        </CharString>
        <CharString name="parenright">
          -190 -20 35 718 35 hstemhm
          20 191 -36 36 hintmask 11100000
          37 -20 rmoveto
          105 69 61 102 hvcurveto
          448 vlineto
          92 -71 85 -103 -9 -8 -8 -9 -18 callgsubr
          9 vhcurveto
          hintmask 11010000
          88 50 -73 -69 hvcurveto
          -448 vlineto
          -105 -77 -23 -61 21 callsubr
          hvcurveto
          endchar
        </CharString>
        <CharString name="partialdiff">
          9 -6 35 424 35 218 35 hstem
          55 35 285 35 vstem
          201 741 rmoveto
          -63 -62 -23 -19 -7 8 -13 9 hvcurveto
          14 29 27 62 hhcurveto
          137 40 -134 -170 hvcurveto
          55 -17 -69 31 -58 hhcurveto
          -96 -80 -84 -96 hvcurveto
          -132 vlineto
          -20 callsubr
          -33 callgsubr
          vhcurveto
          199 vlineto
          236 -59 130 -150 vhcurveto
          174 -565 rmoveto
          -75 -64 -72 -79 -79 -63 72 75 vhcurveto
          132 vlineto
          73 62 72 80 78 65 -69 -71 vhcurveto
          endchar
        </CharString>
        <CharString name="percent">
          273 -23 callgsubr
          hintmask 1001111111000000
          161 362 rmoveto
          -1 callsubr
          hvcurveto
          155 vlineto
          -94 callsubr
          337 -627 rmoveto
          -1 callsubr
          hvcurveto
          155 vlineto
          hintmask 1010111111000000
          -94 callsubr
          -78 479 -99 callsubr
          hintmask 0110111111000000
          -51 callsubr
        </CharString>
        <CharString name="period">
          -307 -6 72 hstem
          45 71 vstem
          81 -7 callsubr
          endchar
        </CharString>
        <CharString name="periodcentered">
          -292 264 72 hstem
          53 71 vstem
          89 336 rmoveto
          -6 callsubr
        </CharString>
        <CharString name="perthousand">
          569 -23 callgsubr
          69 -13 callgsubr
          hintmask 1001111111110000
          161 362 rmoveto
          -1 callsubr
          hvcurveto
          155 vlineto
          -94 callsubr
          337 -627 rmoveto
          -1 callsubr
          hvcurveto
          155 vlineto
          hintmask 1010111111110000
          -94 callsubr
          -78 479 -99 callsubr
          hintmask 0110111111110000
          -80 callsubr
          hintmask 1010111111110000
          683 6 -52 callgsubr
        </CharString>
        <CharString name="pi">
          -1 21 -21 436 36 hstem
          68 36 259 36 vstem
          86 472 rmoveto
          -9 -9 -6 -12 hvcurveto
          -437 -44 callgsubr
          419 259 -419 -44 callgsubr
          437 vlineto
          12 -9 6 -9 vhcurveto
          endchar
        </CharString>
        <CharString name="plus">
          -41 84 -21 160 35 160 -20 hstem
          196 35 vstem
          214 63 rmoveto
          10 7 7 10 hvcurveto
          143 142 vlineto
          -94 callgsubr
          -142 142 hlineto
          9 -7 9 -10 -10 -8 -9 -9 vhcurveto
          -142 -143 vlineto
          -73 callgsubr
          143 -143 hlineto
          -10 -17 callgsubr
          endchar
        </CharString>
        <CharString name="plusminus">
          9 68 35 225 35 160 -20 hstemhm
          61 195 -35 35 -35 195 hintmask 11110000
          239 168 rmoveto
          10 7 7 10 hvcurveto
          143 142 vlineto
          hintmask 11100100
          -94 callgsubr
          hintmask 11110000
          -142 142 hlineto
          9 -7 9 -10 vhcurveto
          hintmask 11101000
          -10 -8 -9 -9 hvcurveto
          -142 -143 vlineto
          hintmask 11110000
          -73 callgsubr
          hintmask 11101000
          143 -143 hlineto
          -10 -17 callgsubr
          hintmask 11110000
          -178 -83 -21 callgsubr
          320 hlineto
          hintmask 11100100
          -94 callgsubr
          -320 hlineto
          hintmask 11110000
          -54 callsubr
        </CharString>
        <CharString name="product">
          89 21 -21 695 36 hstem
          83 -26 callsubr
          vstem
          101 731 rmoveto
          -9 -9 -6 -12 hvcurveto
          -696 -44 callgsubr
          678 319 -678 -44 callgsubr
          -42 callsubr
          6 -9 vhcurveto
          endchar
        </CharString>
        <CharString name="q">
          28 callsubr
          -6 -20 hstemhm
          50 -37 callsubr
          hintmask 11011100
          382 472 rmoveto
          -10 -8 -5 callsubr
          -53 vlineto
          hintmask 11101100
          -72 callsubr
          -289 vlineto
          -10 callgsubr
          10 7 9 9 vhcurveto
          674 vlineto
          hintmask 11011100
          10 -7 7 -10 vhcurveto
          -297 -174 rmoveto
          hintmask 11101100
          73 64 72 78 68 69 -54 -91 vhcurveto
          -159 vlineto
          -29 callsubr
          endchar
        </CharString>
        <CharString name="q.ss02">
          -3 10 callsubr
          hstem
          51 -37 callsubr
          vstem
          383 -237 rmoveto
          10 7 6 10 hvcurveto
          510 vlineto
          149 -91 40 -81 -133 -44 -104 -78 vhcurveto
          -122 vlineto
          -99 82 -81 98 67 45 37 39 22 vhcurveto
          -290 vlineto
          -10 -17 callgsubr
          -297 533 rmoveto
          54 24 93 115 75 65 -41 -122 vhcurveto
          -141 vlineto
          -43 -68 -67 -72 -74 -65 72 73 vhcurveto
          endchar
        </CharString>
        <CharString name="question">
          -85 -6 72 647 35 hstemhm
          124 71 -52 34 133 35 hintmask 11011000
          345 566 rmoveto
          101 -57 81 -124 -72 -67 -33 -25 -10 8 -7 6 vhcurveto
          16 21 40 84 hhcurveto
          100 50 -57 -91 -120 -88 -49 -44 -51 hvcurveto
          -23 -28 -12 -33 -120 vvcurveto
          -12 9 -5 8 8 9 5 12 83 1 45 26 33 vhcurveto
          41 52 100 54 135 vvcurveto
          -185 -500 rmoveto
          hintmask 11101000
          -20 -16 -16 -20 -19 15 -17 21 20 15 17 19 20 -16 16 -19 hvcurveto
          endchar
        </CharString>
        <CharString name="questiondown">
          -85 -6 35 647 72 hstemhm
          38 35 115 71 -53 34 hintmask 11101000
          38 176 rmoveto
          -101 57 -81 124 72 67 33 25 10 -8 7 -6 vhcurveto
          -16 -21 -40 -84 hhcurveto
          -100 -50 57 91 120 88 48 44 52 hvcurveto
          23 28 12 33 120 vvcurveto
          12 -9 5 -8 -8 -9 -5 -12 -83 -1 -45 -26 -33 vhcurveto
          -41 -52 -100 -54 -135 vvcurveto
          185 500 rmoveto
          hintmask 11110000
          20 16 16 20 19 -15 17 -21 -20 -15 -17 -19 -20 16 -16 19 hvcurveto
          endchar
        </CharString>
        <CharString name="quotedbl">
          -213 581 187 hstem
          48 39 81 39 vstem
          67 768 rmoveto
          -10 -14 -5 callsubr
          10 -152 rlineto
          -9 4 -9 10 10 5 9 9 vhcurveto
          10 152 rlineto
          10 -15 7 -10 vhcurveto
          120 hmoveto
          -10 -14 -5 callsubr
          10 -152 rlineto
          -9 4 -9 10 10 5 9 9 vhcurveto
          10 152 rlineto
          10 -15 7 -10 vhcurveto
          endchar
        </CharString>
        <CharString name="quotedblbase">
          -172 -56 -16 callsubr
          45 71 63 71 vstem
          81 66 -43 callsubr
          134 hmoveto
          -21 -15 -16 -20 -16 11 -15 16 -4 hvcurveto
          -18 -51 -49 callgsubr
          -53 callgsubr
          5 6 4 6 3 vhcurveto
          16 32 17 49 16 vvcurveto
          20 -16 16 -19 vhcurveto
          endchar
        </CharString>
        <CharString name="quotedblleft">
          -184 598 143 hstem
          39 71 63 71 vstem
          208 598 rmoveto
          -78 callgsubr
          -134 hmoveto
          -78 callgsubr
          endchar
        </CharString>
        <CharString name="quotedblright">
          -186 619 -16 callsubr
          41 71 63 71 vstem
          77 741 -43 callsubr
          134 hmoveto
          -21 -15 -16 -20 -16 11 -15 16 -4 hvcurveto
          -18 -51 -49 callgsubr
          -53 callgsubr
          5 6 4 6 3 vhcurveto
          16 32 17 49 16 vvcurveto
          20 -16 16 -19 vhcurveto
          endchar
        </CharString>
        <CharString name="quoteleft">
          -318 619 -16 callsubr
          39 71 vstem
          74 598 rmoveto
          -78 callgsubr
          endchar
        </CharString>
        <CharString name="quoteright">
          -320 619 -16 callsubr
          41 71 vstem
          77 741 -43 callsubr
          endchar
        </CharString>
        <CharString name="quotesinglbase">
          -306 -56 -16 callsubr
          45 71 vstem
          81 66 -43 callsubr
          endchar
        </CharString>
        <CharString name="quotesingle">
          -333 602 -21 187 -20 hstem
          48 39 vstem
          67 768 rmoveto
          -10 -14 -5 callsubr
          10 -152 rlineto
          -9 4 -9 10 10 5 9 9 vhcurveto
          10 152 rlineto
          10 -15 7 -10 vhcurveto
          endchar
        </CharString>
        <CharString name="r">
          -160 -31 callgsubr
          hstemhm
          68 35 hintmask 11010000
          -59 callsubr
          hintmask 10110000
          -70 callgsubr
          -437 -90 callgsubr
          280 vlineto
          hintmask 11010000
          91 69 54 70 vhcurveto
          endchar
        </CharString>
        <CharString name="r.ss04">
          -165 21 -33 callsubr
          hstem
          63 35 vstem
          225 -31 callsubr
          -94 -68 -99 -107 hvcurveto
          -255 vlineto
          -9 callgsubr
          9 10 8 8 9 vhcurveto
          255 vlineto
          84 48 87 79 vhcurveto
          50 hlineto
          9 7 8 10 10 -7 7 -9 hvcurveto
          endchar
        </CharString>
        <CharString name="racute">
          -160 -31 callgsubr
          242 -20 hstemhm
          68 35 hintmask 11011000
          -59 callsubr
          hintmask 10111000
          -70 callgsubr
          -437 -90 callgsubr
          280 vlineto
          hintmask 11011000
          91 69 54 70 vhcurveto
          -42 215 -107 callgsubr
          endchar
        </CharString>
        <CharString name="radical">
          116 -14 -21 768 35 hstem
          17 426 -21 callgsubr
          38 hlineto
          142 -429 rlineto
          -10 3 8 -5 8 hhcurveto
          7 8 5 10 3 hvcurveto
          231 753 rlineto
          77 27 callsubr
          -90 hlineto
          -8 -7 -5 -9 -3 hvcurveto
          -219 -716 -130 392 rlineto
          10 -3 -7 4 -8 hhcurveto
          -50 -50 callgsubr
        </CharString>
        <CharString name="rcaron">
          -160 -31 callgsubr
          279 -20 hstemhm
          68 35 hintmask 11011000
          -59 callsubr
          hintmask 10111000
          -70 callgsubr
          -437 -90 callgsubr
          280 vlineto
          hintmask 11011000
          91 69 54 70 vhcurveto
          23 257 -106 callsubr
          endchar
        </CharString>
        <CharString name="rcommaaccent">
          -160 12 callsubr
          hintmask 11101000
          -59 callsubr
          hintmask 11011000
          -70 callgsubr
          -437 -90 callgsubr
          280 vlineto
          hintmask 11101000
          91 69 54 70 vhcurveto
          -126 -527 -107 callgsubr
          endchar
        </CharString>
        <CharString name="registered">
          260 35 35 99 211 150 34 86 35 hstem
          57 35 183 36 126 36 163 -62 callgsubr
          -361 -179 rmoveto
          10 callgsubr
          166 52 vlineto
          73 -162 rlineto
          -9 4 5 -10 8 hhcurveto
          10 11 9 10 2 -1 2 -1 3 hvcurveto
          -69 159 rlineto
          40 8 30 29 67 vvcurveto
          81 -46 26 -55 vhcurveto
          -84 hlineto
          -8 -1 -5 -6 -7 vvcurveto
          97 -20 rmoveto
          38 27 -21 -54 -54 -27 -21 -38 hvcurveto
          -61 150 hlineto
          endchar
        </CharString>
        <CharString name="ring">
          -288 584 23 135 26 hstem
          0 24 131 25 vstem
          90 768 -83 callsubr
          endchar
        </CharString>
        <CharString name="s">
          -95 -21 callsubr
          -96 callgsubr
          endchar
        </CharString>
        <CharString name="sacute">
          -95 -21 callsubr
          216 -20 -96 callgsubr
          54 629 -107 callgsubr
          endchar
        </CharString>
        <CharString name="scaron">
          -95 -21 callsubr
          253 -20 -96 callgsubr
          118 671 -106 callsubr
          endchar
        </CharString>
        <CharString name="scedilla">
          -95 25 callsubr
          59 -47 callgsubr
          hstem
          48 35 176 33 8 35 vstem
          183 29 rmoveto
          -94 -19 47 -18 hhcurveto
          -7 -7 -8 -9 -24 54 -40 88 -1 hvcurveto
          -20 -40 callgsubr
          14 61 rlineto
          78 8 45 43 67 185 -252 -83 133 vvcurveto
          39 29 55 85 vhcurveto
          60 31 -27 13 hhcurveto
          9 8 13 7 19 -63 23 -59 -104 -44 -70 -60 hvcurveto
          -165 252 84 -155 vvcurveto
          -45 -33 -38 -84 vhcurveto
          endchar
        </CharString>
        <CharString name="schwa">
          -23 -6 -46 callgsubr
          153 76 -35 35 hstemhm
          39 35 285 35 hintmask 11101100
          216 -6 rmoveto
          97 81 81 96 hvcurveto
          125 vlineto
          109 -84 73 -118 -86 -52 -39 -19 -8 9 -10 9 vhcurveto
          hintmask 11011100
          19 15 41 84 hhcurveto
          98 71 -56 -91 hvcurveto
          -47 -237 vlineto
          -43 -40 -2 -73 -104 83 -76 94 hvcurveto
          143 220 rmoveto
          -43 vlineto
          -75 -62 -67 -81 -86 -56 76 72 31 11 6 49 vhcurveto
          endchar
        </CharString>
        <CharString name="scircumflex">
          -95 -21 callsubr
          216 -20 -96 callgsubr
          -2 630 rmoveto
          -107 callsubr
        </CharString>
        <CharString name="scommaaccent">
          -95 -120 -21 135 -47 callgsubr
          -96 callgsubr
          61 -113 -107 callgsubr
          endchar
        </CharString>
        <CharString name="section">
          -7 -66 36 725 36 hstemhm
          52 36 -18 36 241 38 -18 36 hintmask 11100100
          367 113 rmoveto
          -93 -53 -50 -90 -111 -25 87 44 9 -5 9 -12 -10 -9 -6 -14 -92 71 -73 107 97 76 55 126 vhcurveto
          130 vlineto
          hintmask 11011000
          226 -297 -110 186 vvcurveto
          115 71 33 58 92 20 -77 -42 -20 9 -5 10 9 10 5 17 94 -52 64 -100 -69 -94 -35 -149 vhcurveto
          -132 vlineto
          hintmask 11010100
          -227 297 111 -186 vvcurveto
          97 vmoveto
          -75 88 -186 -39 158 vvcurveto
          32 vlineto
          75 -88 186 40 -158 vvcurveto
          endchar
        </CharString>
        <CharString name="semicolon">
          -273 -56 -21 427 72 hstem
          62 71 vstem
          98 422 rmoveto
          -21 -15 -16 -20 -19 15 -17 21 19 16 17 19 20 -16 16 -19 hvcurveto
          -2 -356 -46 callsubr
        </CharString>
        <CharString name="seven">
          -26 21 -21 695 36 hstem
          33 36 vstem
          424 713 rmoveto
          9 -10 9 -8 vhcurveto
          -355 hlineto
          -9 -9 -9 -9 hvcurveto
          -149 vlineto
          -18 callgsubr
          10 9 -10 callsubr
          vhcurveto
          131 319 -49 vlineto
          -316 -620 rlineto
          -2 -4 -1 -4 -3 vvcurveto
          -10 9 -5 11 6 6 4 6 3 vhcurveto
          318 623 rlineto
          2 3 0 2 3 vvcurveto
          endchar
        </CharString>
        <CharString name="seveneighths">
          264 -22 callgsubr
          334 31 37 -20 hstemhm
          37 34 404 23 163 33 hintmask 1011111110000000
          267 718 rmoveto
          6 -9 7 -7 vhcurveto
          -198 hlineto
          -8 -8 -7 -6 hvcurveto
          -76 vlineto
          -7 7 -6 10 8 9 6 7 vhcurveto
          58 163 -27 vlineto
          -170 -286 rlineto
          -1 -3 -1 -2 -2 vvcurveto
          -10 10 -6 10 5 5 3 4 2 vhcurveto
          169 289 rlineto
          2 4 2 6 5 vvcurveto
          312 -309 -102 callgsubr
          -36 402 -99 callsubr
          hintmask 0111111110000000
          -51 callsubr
        </CharString>
        <CharString name="seveninferior">
          -185 20 27 callgsubr
          353 rmoveto
          6 -9 7 -7 vhcurveto
          -198 hlineto
          -8 -8 -7 -6 hvcurveto
          -76 vlineto
          -7 7 -6 10 8 9 6 7 vhcurveto
          58 163 -27 vlineto
          -170 -286 rlineto
          -1 -3 -1 -2 -2 vvcurveto
          -10 10 -6 10 5 5 3 4 2 vhcurveto
          169 289 rlineto
          2 4 2 6 5 vvcurveto
          endchar
        </CharString>
        <CharString name="sevensuperior">
          -186 385 27 callgsubr
          718 rmoveto
          6 -9 7 -7 vhcurveto
          -198 hlineto
          -8 -8 -7 -6 hvcurveto
          -76 vlineto
          -7 7 -6 10 8 9 6 7 vhcurveto
          58 163 -27 vlineto
          -170 -286 rlineto
          -1 -3 -1 -2 -2 vvcurveto
          -10 10 -6 10 5 5 3 4 2 vhcurveto
          169 289 rlineto
          2 4 2 6 5 vvcurveto
          endchar
        </CharString>
        <CharString name="six">
          36 -6 36 359 36 270 36 hstem
          65 -26 callsubr
          vstem
          261 425 rmoveto
          -67 -58 -24 -50 -35 hvcurveto
          174 vlineto
          116 59 54 100 88 72 -52 -79 -12 10 -6 9 9 8 6 14 88 -73 77 -123 -58 callgsubr
          -24 callsubr
          -150 86 -56 110 110 85 56 150 vhcurveto
          29 -9 callsubr
          -85 46 -110 vhcurveto
          -160 -187 rmoveto
          110 63 41 97 100 59 -44 -116 vhcurveto
          -29 vlineto
          -116 -59 -54 -100 -100 -60 -39 callsubr
          endchar
        </CharString>
        <CharString name="sixinferior">
          -146 -3 9 callsubr
          216 -67 callsubr
        </CharString>
        <CharString name="sixsuperior">
          -146 362 9 callsubr
          581 -67 callsubr
        </CharString>
        <CharString name="slash">
          0 1 -21 788 -20 hstem
          443 738 -99 callsubr
          -51 callsubr
        </CharString>
        <CharString name="space">
          -268 endchar
        </CharString>
        <CharString name="sterling">
          -7 0 36 331 35 331 35 hstem
          49 384 -21 callgsubr
          86 hlineto
          -46 -331 rlineto
          -63 hlineto
          -12 -6 -9 -9 -9 6 -9 12 hvcurveto
          360 hlineto
          10 6 9 9 -68 callgsubr
          -10 hvcurveto
          -263 hlineto
          47 331 rlineto
          168 hlineto
          11 5 9 8 9 -5 9 -11 hvcurveto
          -163 hlineto
          27 188 rlineto
          74 11 71 69 81 hhcurveto
          17 hlineto
          13 7 9 8 9 -7 9 -13 hvcurveto
          -12 hlineto
          -99 -90 -82 -96 -14 hvcurveto
          -27 -188 rlineto
          -91 -50 callgsubr
        </CharString>
        <CharString name="summation">
          -21 -227 36 886 36 hstem
          47 731 rmoveto
          -17 callsubr
          -10 -3 1 -4 2 -4 hvcurveto
          229 -450 -229 -450 23 callsubr
          vhcurveto
          355 hlineto
          12 6 9 9 -68 callgsubr
          -12 hvcurveto
          -326 hlineto
          206 403 rlineto
          10 19 5 10 11 vvcurveto
          10 -5 10 -10 19 vhcurveto
          -206 404 rlineto
          326 hlineto
          12 6 9 9 -68 callgsubr
          -12 hvcurveto
          endchar
        </CharString>
        <CharString name="t">
          -196 26 callgsubr
          231 -20 hstemhm
          66 186 vstemhm
          -56 callgsubr
          hintmask 11110000
          -82 -29 28 76 hvcurveto
          298 135 vlineto
          -57 callgsubr
          endchar
        </CharString>
        <CharString name="tbar">
          -192 0 35 252 35 115 35 231 -20 hstemhm
          66 186 vstemhm
          -56 callgsubr
          hintmask 11111000
          -82 -29 28 76 hvcurveto
          148 135 vlineto
          -32 callgsubr
          115 135 hlineto
          -57 callgsubr
          endchar
        </CharString>
        <CharString name="tcaron">
          -196 26 callgsubr
          269 -20 hstem
          66 35 75 76 vstem
          -56 callgsubr
          -82 -29 28 76 hvcurveto
          298 135 vlineto
          -57 callgsubr
          146 55 -43 callsubr
          endchar
        </CharString>
        <CharString name="tcommaaccent">
          -196 -120 -21 141 35 402 35 231 -20 hstemhm
          66 186 vstemhm
          -56 callgsubr
          hintmask 11111000
          -82 -29 28 76 hvcurveto
          298 135 vlineto
          -57 callgsubr
          119 -770 -107 callgsubr
          endchar
        </CharString>
        <CharString name="thorn">
          28 callsubr
          290 -20 hstem
          69 -37 callsubr
          vstem
          86 768 -55 callsubr
          -970 -90 callgsubr
          289 vlineto
          -54 callgsubr
        </CharString>
        <CharString name="three">
          5 -6 36 339 36 290 36 hstemhm
          33 35 -17 36 283 36 -18 36 hintmask 11110010
          230 369 rmoveto
          97 61 -50 -100 hvcurveto
          -19 vlineto
          -116 -60 -54 -102 -131 -27 87 41 10 -5 11 -14 -10 -6 -6 -22 -71 65 -86 132 107 87 56 150 vhcurveto
          19 vlineto
          91 -43 51 -59 25 vhcurveto
          hintmask 11101100
          45 22 39 52 97 vvcurveto
          127 -68 47 -102 -155 -30 -108 -47 -23 7 -7 11 11 7 9 15 44 22 81 124 98 39 -51 -96 -105 -47 -38 -94 -12 -6 -9 -9 -9 6 -9 13 vhcurveto
          endchar
        </CharString>
        <CharString name="threeeighths">
          266 -22 callgsubr
          -4 5 callgsubr
          37 -20 hstemhm
          36 33 153 44 209 23 163 33 hintmask 1011011111110000
          579 366 -102 callgsubr
          14 402 -99 callsubr
          hintmask 0110111111110000
          -80 callsubr
          -55 402 -100 callsubr
          endchar
        </CharString>
        <CharString name="threeinferior">
          -163 -3 5 callgsubr
          hstem
          34 33 153 44 vstem
          148 28 -100 callsubr
          endchar
        </CharString>
        <CharString name="threequarters">
          239 1 -21 41 -21 86 32 244 5 callgsubr
          37 -20 hstemhm
          36 33 153 44 336 33 hintmask 0111111111000000
          150 393 -100 callsubr
          452 -380 rmoveto
          -9 8 -4 8 9 8 4 9 vhcurveto
          73 31 vlineto
          8 6 8 8 8 -5 8 -9 hvcurveto
          -31 96 hlineto
          8 -8 4 -9 -8 -8 -4 -8 vhcurveto
          -96 -114 vlineto
          131 227 rlineto
          1 2 1 3 2 vvcurveto
          8 -9 6 -8 -5 -7 -4 -7 -4 vhcurveto
          -141 -247 rlineto
          -1 -3 -1 -3 -2 vvcurveto
          -8 5 -6 8 vhcurveto
          144 hlineto
          11 652 -99 callsubr
          hintmask 1011111111000000
          -51 callsubr
        </CharString>
        <CharString name="threesuperior">
          -162 362 5 callgsubr
          hstem
          34 33 153 44 vstem
          148 393 -100 callsubr
          endchar
        </CharString>
        <CharString name="tilde">
          -173 619 34 3 34 hstem
          216 -41 callgsubr
          endchar
        </CharString>
        <CharString name="trademark">
          138 493 -21 261 35 hstem
          122 37 118 36 171 36 vstem
          47 768 rmoveto
          -9 -4 -9 -8 -41 callsubr
          8 hvcurveto
          75 -247 hlineto
          -9 9 -5 10 9 9 5 9 vhcurveto
          247 75 vlineto
          9 4 9 9 8 -4 9 -9 hvcurveto
          250 -79 rmoveto
          -203 vlineto
          10 callgsubr
          264 vlineto
          13 -8 5 -10 -13 -9 -11 -15 -6 vhcurveto
          -76 -177 -75 177 rlineto
          14 -6 -9 12 -13 hhcurveto
          -9 -9 -5 -13 hvcurveto
          -264 vlineto
          10 callgsubr
          205 vlineto
          72 -170 rlineto
          -9 3 5 -3 5 hhcurveto
          5 5 3 9 4 hvcurveto
          endchar
        </CharString>
        <CharString name="two">
          -7 0 36 510 185 -36 36 hstemhm
          38 36 -18 36 291 36 hintmask 11001100
          56 574 rmoveto
          -20 4 -8 13 13 6 9 8 vhcurveto
          hintmask 10110100
          87 58 45 79 104 50 -79 -73 vhcurveto
          -191 -345 -68 -169 vvcurveto
          -97 vlineto
          hintmask 11001100
          -11 10 -7 8 vhcurveto
          356 hlineto
          9 8 9 -25 callsubr
          -9 hvcurveto
          hintmask 11010100
          -338 79 hlineto
          147 345 68 214 vvcurveto
          99 -73 88 -115 vhcurveto
          hintmask 11001100
          -103 -72 -70 -87 hvcurveto
          endchar
        </CharString>
        <CharString name="twoinferior">
          -169 0 18 callsubr
          282 -89 callsubr
          endchar
        </CharString>
        <CharString name="twosuperior">
          -169 365 18 callsubr
          647 -89 callsubr
          endchar
        </CharString>
        <CharString name="twothirds">
          260 30 callgsubr
          -1 31 303 32 37 -20 hstemhm
          41 43 147 33 193 33 153 44 hintmask 1010111111100000
          50 647 -89 callsubr
          521 -619 rmoveto
          -64 -17 34 21 8 -4 6 -14 -10 -5 -3 -14 -38 37 -45 78 64 51 29 77 hvcurveto
          9 vlineto
          44 -24 25 -33 12 vhcurveto
          26 11 20 28 46 vvcurveto
          hintmask 1011011111100000
          64 -41 24 -60 -89 -19 -54 -27 -15 4 -4 13 11 5 6 10 21 13 32 61 48 21 -21 -43 -49 -25 -15 -46 -10 -4 -7 -8 -7 4 -7 10 50 32 -20 -46 vhcurveto
          -9 vlineto
          -52 -30 -23 -53 vhcurveto
          24 710 -99 callsubr
          hintmask 0111011111100000
          -51 callsubr
        </CharString>
        <CharString name="u">
          -4 callsubr
          hstem
          64 35 285 35 vstem
          -103 callgsubr
          endchar
        </CharString>
        <CharString name="u.ss04">
          13 -6 35 -8 -2 callgsubr
          hstemhm
          64 -37 callsubr
          hintmask 10111000
          378 174 rmoveto
          -91 -69 -54 -68 -78 -64 72 73 vhcurveto
          280 vlineto
          12 -9 6 -8 -9 -9 -6 -12 vhcurveto
          -280 vlineto
          -99 82 -81 98 67 45 37 39 22 vhcurveto
          -53 vlineto
          hintmask 01111000
          -10 8 -7 10 10 7 7 10 vhcurveto
          437 vlineto
          9 -7 9 -10 -10 -8 -9 -9 vhcurveto
          endchar
        </CharString>
        <CharString name="uacute">
          -4 callsubr
          242 -20 hstem
          64 35 285 35 vstem
          -103 callgsubr
          56 664 -107 callgsubr
          endchar
        </CharString>
        <CharString name="ubreve">
          -4 callsubr
          149 -40 callsubr
          64 35 33 -12 callgsubr
          34 35 hintmask 11011111
          -103 callgsubr
          75 716 rmoveto
          hintmask 11101111
          -39 callgsubr
          hintmask 11011111
          -87 callsubr
          endchar
        </CharString>
        <CharString name="ucircumflex">
          -4 callsubr
          242 -20 hstem
          64 35 285 35 vstem
          -103 callgsubr
          -1 665 rmoveto
          -107 callsubr
        </CharString>
        <CharString name="udieresis">
          -4 callsubr
          148 59 hstem
          64 35 57 59 52 59 58 35 vstem
          -103 callgsubr
          -56 665 -104 callgsubr
          endchar
        </CharString>
        <CharString name="ugrave">
          -4 callsubr
          242 -20 hstem
          64 35 285 35 vstem
          -103 callgsubr
          38 610 -104 callsubr
          endchar
        </CharString>
        <CharString name="uhungarumlaut">
          -4 callsubr
          242 -20 hstem
          64 35 285 35 vstem
          -103 callgsubr
          21 664 -84 callsubr
        </CharString>
        <CharString name="umacron">
          -4 callsubr
          195 35 hstem
          64 35 285 35 vstem
          -103 callgsubr
          -128 670 rmoveto
          -93 callgsubr
          endchar
        </CharString>
        <CharString name="underscore">
          -123 -35 35 hstem
          -4 -18 -21 callgsubr
          320 hlineto
          -94 callgsubr
          -320 -50 callgsubr
        </CharString>
        <CharString name="uni00A0">
          -268 endchar
        </CharString>
        <CharString name="uni00AD">
          -13 15 callgsubr
          320 hlineto
          -94 callgsubr
          -320 -50 callgsubr
        </CharString>
        <CharString name="uogonek">
          15 -195 26 163 35 443 -20 hstem
          64 35 92 29 164 35 vstem
          242 -6 rmoveto
          -31 -35 -20 -40 -47 -71 callgsubr
          -29 callgsubr
          vhcurveto
          72 23 55 70 79 vvcurveto
          281 vlineto
          9 -7 8 -10 -17 callsubr
          -9 vhcurveto
          -281 vlineto
          -75 -63 -70 -79 -80 -63 71 74 vhcurveto
          280 vlineto
          9 -8 9 -9 -10 -8 -9 -9 vhcurveto
          -280 vlineto
          -95 80 -85 98 vhcurveto
          endchar
        </CharString>
        <CharString name="uring">
          -4 callsubr
          132 23 135 26 hstem
          64 35 52 24 131 25 53 35 vstem
          -103 callgsubr
          -1 774 -83 callsubr
          endchar
        </CharString>
        <CharString name="utilde">
          -4 callsubr
          167 34 3 34 hstem
          64 35 285 35 vstem
          -103 callgsubr
          68 659 rmoveto
          -103 callsubr
          endchar
        </CharString>
        <CharString name="v">
          -76 -28 callsubr
          hstem
          354 472 rmoveto
          -13 -1 -9 -8 -3 hvcurveto
          -141 -387 -142 393 rlineto
          7 -3 -7 4 -7 hhcurveto
          -17 callsubr
          -10 -4 3 -7 1 -3 hvcurveto
          156 -434 rlineto
          -8 3 5 -4 9 hhcurveto
          8 6 5 7 3 hvcurveto
          156 434 rlineto
          1 3 3 7 5 vvcurveto
          10 -10 7 -9 vhcurveto
          endchar
        </CharString>
        <CharString name="w">
          4 callsubr
          hstem
          -102 callsubr
          endchar
        </CharString>
        <CharString name="wacute">
          4 callsubr
          242 -20 hstem
          -102 callsubr
          -234 186 -107 callgsubr
          endchar
        </CharString>
        <CharString name="wcircumflex">
          4 callsubr
          242 -20 hstem
          -102 callsubr
          -290 187 rmoveto
          -107 callsubr
        </CharString>
        <CharString name="wdieresis">
          4 callsubr
          148 59 hstem
          242 59 52 59 vstem
          -102 callsubr
          -345 187 -104 callgsubr
          endchar
        </CharString>
        <CharString name="wgrave">
          4 callsubr
          242 -20 hstem
          -102 callsubr
          -252 132 -104 callsubr
          endchar
        </CharString>
        <CharString name="x">
          -87 15 -21 484 -20 hstem
          337 -31 callsubr
          -5 -6 -3 -5 -3 hvcurveto
          -132 -200 -131 200 rlineto
          5 -3 -6 3 -6 hhcurveto
          -17 callsubr
          -10 -3 1 -3 2 -3 hvcurveto
          139 -213 -139 -217 -4 callgsubr
          -1 -3 -4 vvcurveto
          -28 callgsubr
          6 5 3 5 4 vhcurveto
          131 203 132 -203 2 callsubr
          -140 217 140 213 rlineto
          2 3 1 3 3 vvcurveto
          11 -27 callsubr
          vhcurveto
          endchar
        </CharString>
        <CharString name="y">
          3 callsubr
          hstem
          -98 callgsubr
          endchar
        </CharString>
        <CharString name="yacute">
          3 callsubr
          236 -20 hstem
          -98 callgsubr
          -105 180 -107 callgsubr
          endchar
        </CharString>
        <CharString name="ycircumflex">
          3 callsubr
          236 -20 hstem
          -98 callgsubr
          -161 181 rmoveto
          -107 callsubr
        </CharString>
        <CharString name="ydieresis">
          3 callsubr
          142 59 hstem
          112 59 52 59 vstem
          -98 callgsubr
          -216 181 -104 callgsubr
          endchar
        </CharString>
        <CharString name="yen">
          11 21 -21 197 35 78 35 386 -20 hstemhm
          77 176 -35 35 -35 184 hintmask 11110010
          384 310 rmoveto
          -94 callgsubr
          -122 hlineto
          190 362 rlineto
          1 2 0 2 3 vvcurveto
          10 -7 7 -9 -7 -6 -3 -7 -4 vhcurveto
          -184 -346 -174 346 rlineto
          7 -4 -6 3 -7 hhcurveto
          -11 -7 -9 -8 -3 25 callgsubr
          180 -362 rlineto
          -115 hlineto
          hintmask 11111000
          -73 callgsubr
          hintmask 11110100
          124 -78 -124 hlineto
          hintmask 11111000
          -73 callgsubr
          hintmask 11110100
          124 -180 hlineto
          -28 callgsubr
          10 7 8 9 vhcurveto
          180 131 vlineto
          hintmask 11110010
          -94 callgsubr
          hintmask 11111000
          -131 78 hlineto
          endchar
        </CharString>
        <CharString name="ygrave">
          3 callsubr
          236 -20 hstem
          -98 callgsubr
          -123 126 -104 callsubr
          endchar
        </CharString>
        <CharString name="z">
          21 callgsubr
          hstem
          -89 callgsubr
          endchar
        </CharString>
        <CharString name="zacute">
          21 callgsubr
          222 -20 hstem
          -89 callgsubr
          -97 623 -107 callgsubr
          endchar
        </CharString>
        <CharString name="zcaron">
          21 callgsubr
          259 -20 hstem
          -89 callgsubr
          -34 665 -106 callsubr
          endchar
        </CharString>
        <CharString name="zdotaccent">
          21 callgsubr
          128 59 hstem
          158 59 vstem
          -89 callgsubr
          -153 624 rmoveto
          -83 callgsubr
        </CharString>
        <CharString name="zero">
          53 -6 36 300 63 302 36 hstem
          65 36 128 63 128 36 cntrmask 00011100
          260 -6 rmoveto
          -65 callsubr
          325 -15 callsubr
          -58 callgsubr
          -24 callsubr
          -150 85 -56 110 vhcurveto
          160 206 rmoveto
          -81 callgsubr
          -76 callgsubr
          26 callsubr
          vhcurveto
          -159 -132 rmoveto
          -65 callgsubr
          endchar
        </CharString>
        <CharString name="zeroinferior">
          -136 -3 31 307 31 hstem
          51 -13 callgsubr
          vstem
          166 -3 -52 callgsubr
        </CharString>
        <CharString name="zerosuperior">
          -136 362 31 307 31 hstem
          51 -13 callgsubr
          vstem
          166 362 -52 callgsubr
        </CharString>
      <CharString index="0">
        rmoveto
        7 4 3 7 7 vvcurveto
        -68 callgsubr
        -10 -2 -3 -1 -1 -2 vhcurveto
        -102 -60 rlineto
        -6 -3 -2 -5 -5 vvcurveto
        -10 9 -8 10 3 3 1 2 3 vhcurveto
        return
      </CharString>
      <CharString index="1">
        104 -55 rlineto
        -1 3 -27 callgsubr
        hhcurveto
        9 8 7 9 7 -3 7 -6 3 hvcurveto
        -104 55 rlineto
        3 -5 -6 2 -6 hhcurveto
        -6 -6 -2 -3 -5 hvcurveto
        -104 -56 rlineto
        -6 -3 -3 -6 -5 vvcurveto
        -11 9 -8 9 2 3 2 1 3 vhcurveto
        return
      </CharString>
      <CharString index="2">
        43 hmoveto
        8 7 4 8 callsubr
        50 164 rlineto
        298 hlineto
        51 -164 rlineto
        -9 3 6 -4 7 hhcurveto
        -2 callsubr
        hvcurveto
        2 -1 1 2 vvcurveto
        -215 701 rlineto
        9 -3 -8 5 -8 hhcurveto
        -8 -7 -4 -10 -3 hvcurveto
        -217 -701 -49 callgsubr
        -10 -68 callgsubr
        vhcurveto
        79 213 rmoveto
        139 448 137 -448 rlineto
        return
      </CharString>
      <CharString index="3">
        -92 callgsubr
        111 hmoveto
        -105 callsubr
        return
      </CharString>
      <CharString index="4">
        242 -6 rmoveto
        96 81 84 96 hvcurveto
        281 vlineto
        9 -7 8 -10 -17 callsubr
        -9 vhcurveto
        -281 vlineto
        -75 -63 -70 -79 -80 -63 71 74 vhcurveto
        280 vlineto
        9 -8 9 -9 -10 -8 -9 -9 vhcurveto
        -280 vlineto
        -95 80 -85 98 vhcurveto
        return
      </CharString>
      <CharString index="5">
        rmoveto
        -59 -45 -22 -66 -43 20 -25 29 -11 hvcurveto
        -36 -13 -24 -28 -52 vvcurveto
        -6 vlineto
        -74 51 -29 64 65 50 29 74 vhcurveto
        6 vlineto
        52 -24 28 -36 13 vhcurveto
        30 11 19 25 43 vvcurveto
        66 -44 22 -60 vhcurveto
        82 -264 rmoveto
        -51 -30 -25 -51 -51 -31 25 51 vhcurveto
        8 vlineto
        51 31 23 50 51 31 -23 -51 vhcurveto
        -82 226 rmoveto
        45 26 -17 -44 -43 -26 -18 -45 -44 -27 18 43 44 27 17 44 hvcurveto
        return
      </CharString>
      <CharString index="6">
        242 70 rmoveto
        -180 648 rlineto
        8 -2 -9 5 -8 hhcurveto
        -9 -8 -5 -11 -2 0 -1 1 -3 hvcurveto
        197 -701 rlineto
        -10 2 8 -4 8 hhcurveto
        9 7 5 8 callsubr
        109 392 110 -392 rlineto
        -10 2 8 -4 8 hhcurveto
        9 7 5 8 callsubr
        195 701 rlineto
        1 3 0 1 2 vvcurveto
        11 -8 5 -9 -8 -9 -5 -8 -2 vhcurveto
        -179 -648 -108 385 rlineto
        14 -4 -6 3 -10 hhcurveto
        -10 -8 -3 -14 -4 hvcurveto
        return
      </CharString>
      <CharString index="7">
        rmoveto
        -61 -63 -23 -19 -7 7 -13 11 hvcurveto
        12 30 27 62 hhcurveto
        95 37 -82 -75 hvcurveto
        -28 -56 vlineto
        -139 -94 -26 -106 -90 61 -42 78 66 50 37 39 34 hvcurveto
        -52 vlineto
        return
      </CharString>
      <CharString index="8">
        -19 -15 -41 -84 hhcurveto
        -98 -71 56 91 hvcurveto
        47 237 vlineto
        43 40 2 73 104 -83 76 -94 hvcurveto
        -143 -220 rmoveto
        43 vlineto
        75 62 67 81 86 56 -76 -72 -31 -11 -6 -49 vhcurveto
        return
      </CharString>
      <CharString index="9">
        358 -31 callsubr
        -7 -6 -4 -7 -3 hvcurveto
        -144 -400 -145 400 rlineto
        7 -2 -7 4 -7 hhcurveto
        -10 -9 -8 -9 -2 25 callgsubr
        160 -442 rlineto
        -96 -34 -40 -119 -72 hhcurveto
        -11 -4 -9 -9 -10 8 -7 9 91 52 150 100 36 hvcurveto
        160 442 rlineto
        1 2 0 2 2 vvcurveto
        11 -9 6 -9 vhcurveto
        return
      </CharString>
      <CharString index="10">
        -12 -68 callgsubr
        -19 callgsubr
        vhcurveto
        return
      </CharString>
      <CharString index="11">
        hstem
        48 35 217 35 vstem
        183 29 rmoveto
        -94 -19 47 -18 hhcurveto
        -7 -7 -8 -9 -24 56 -41 90 95 56 46 74 hvcurveto
        185 -252 -83 133 vvcurveto
        39 29 55 85 vhcurveto
        60 31 -27 13 hhcurveto
        9 8 13 7 19 -63 23 -59 -104 -44 -70 -60 hvcurveto
        -165 252 84 -155 vvcurveto
        -45 -33 -38 -84 vhcurveto
        return
      </CharString>
      <CharString index="12">
        vlineto
        -97 callsubr
        return
      </CharString>
      <CharString index="13">
        -48 callgsubr
        10 10 -9 8 -9 hvcurveto
        return
      </CharString>
      <CharString index="14">
        -69 callsubr
        220 hlineto
        -94 callgsubr
        -220 hlineto
        -69 callgsubr
        hvcurveto
        return
      </CharString>
      <CharString index="15">
        rmoveto
        -105 callsubr
        return
      </CharString>
      <CharString index="16">
        229 -31 callsubr
        -97 -81 -81 -96 hvcurveto
        -125 vlineto
        -109 84 -73 118 86 52 39 19 8 -9 10 -9 vhcurveto
        return
      </CharString>
      <CharString index="17">
        vlineto
        -27 callsubr
        -2 callsubr
        9 vhcurveto
        return
      </CharString>
      <CharString index="18">
        78 35 rmoveto
        268 409 rlineto
        2 3 1 2 5 vvcurveto
        7 callgsubr
        -10 vhcurveto
        -277 hlineto
        -17 callsubr
        -10 -28 callgsubr
        hvcurveto
        243 hlineto
        -267 -409 rlineto
        -3 -3 -1 -6 -3 vvcurveto
        -9 19 callsubr
        hlineto
        10 8 8 -25 callsubr
        -10 hvcurveto
        return
      </CharString>
      <CharString index="19">
        hlineto
        12 5 -10 callsubr
        -6 9 -11 hvcurveto
        return
      </CharString>
      <CharString index="20">
        -18 callgsubr
        10 10 7 8 10 vhcurveto
        268 vlineto
        99 -42 93 -123 vhcurveto
        130 -339 rmoveto
        return
      </CharString>
      <CharString index="21">
        rmoveto
        10 120 rlineto
        136 hlineto
        8 4 7 8 8 -4 8 -8 hvcurveto
        -155 hlineto
        -7 -3 -5 -8 -1 hvcurveto
        -11 -133 rlineto
        -1 -9 0 -6 -7 vvcurveto
        -3 1 -9 17 vhcurveto
        77 hlineto
        51 30 -24 -49 hvcurveto
        -10 vlineto
        -53 -31 -22 -54 -51 -25 20 36 -1 vhcurveto
        10 -5 5 -12 -12 -5 -5 -15 -42 42 -40 74 63 51 29 77 vhcurveto
        10 vlineto
        74 -50 28 -65 vhcurveto
        endchar
      </CharString>
      <CharString index="22">
        18 rmoveto
        -97 callgsubr
        return
      </CharString>
      <CharString index="23">
        -12 callsubr
        -50 22 -47 35 -34 vhcurveto
        -27 -53 -50 callsubr
        23 44 rlineto
        -18 27 32 -11 34 hhcurveto
        -33 callgsubr
        hvcurveto
        122 vlineto
        53 -24 48 -37 33 vhcurveto
        25 47 rlineto
        2 4 1 3 4 vvcurveto
        11 -18 callgsubr
        -5 -5 -2 -6 -3 vhcurveto
        -25 -48 rlineto
        16 -27 -30 9 -32 28 callgsubr
        -29 -27 9 16 -22 vhcurveto
        178 345 rlineto
        27 -27 16 -37 -37 vvcurveto
        -285 -122 rmoveto
        122 vlineto
        73 62 72 80 27 25 -8 -14 21 vhcurveto
        -177 -344 rlineto
        -24 27 -14 36 36 vvcurveto
        return
      </CharString>
      <CharString index="24">
        -105 callsubr
        endchar
      </CharString>
      <CharString index="25">
        29 -2 rlineto
        43 -3 27 -11 -31 vvcurveto
        -21 -13 -20 -42 vhcurveto
        -33 -16 13 -7 hhcurveto
        -6 -6 -12 -6 -17 51 -7 23 52 30 35 37 34 -26 34 -68 2 hvcurveto
        return
      </CharString>
      <CharString index="26">
        -75 callgsubr
        -58 callsubr
        return
      </CharString>
      <CharString index="27">
        423 hmoveto
        10 5 9 9 9 -5 9 -10 hvcurveto
        -304 678 hlineto
        -97 callsubr
        -696 vlineto
        -12 -68 callgsubr
        vhcurveto
        return
      </CharString>
      <CharString index="28">
        -9 7 -8 11 vhcurveto
        177 hlineto
        -65 callsubr
        319 -15 callsubr
        vhcurveto
        -36 vmoveto
        26 callsubr
        hvcurveto
        -319 vlineto
        -75 callgsubr
        vhcurveto
        -159 return
      </CharString>
      <CharString index="29">
        21 15 16 20 16 -11 15 -16 4 hvcurveto
        18 51 rlineto
        1 2 0 2 2 vvcurveto
        9 -8 6 -8 -5 -6 -4 -6 -3 vhcurveto
        -16 -32 -17 -49 -16 vvcurveto
        -20 16 -16 19 vhcurveto
        return
      </CharString>
      <CharString index="30">
        rmoveto
        3 5 2 6 6 vvcurveto
        6 -2 6 -3 5 vhcurveto
        -96 178 rlineto
        6 -3 -7 3 -7 hhcurveto
        -9 -7 -8 -9 -3 1 -3 2 -3 hvcurveto
        96 -178 -96 -177 -4 callgsubr
        -1 -3 -3 vvcurveto
        -10 9 -7 9 6 5 2 7 4 vhcurveto
        return
      </CharString>
      <CharString index="31">
        325 vlineto
        116 59 54 100 return
      </CharString>
      <CharString index="32">
        -116 -60 -54 -100 return
      </CharString>
      <CharString index="33">
        -97 -64 -68 -96 hvcurveto
        -45 vlineto
        -52 19 -45 33 -29 vhcurveto
        -30 -14 -19 -18 -37 vvcurveto
        -43 25 -18 36 -10 vhcurveto
        return
      </CharString>
      <CharString index="34">
        -69 callgsubr
        -10 7 -7 10 hvcurveto
        return
      </CharString>
      <CharString index="35">
        659 rmoveto
        104 -55 rlineto
        -1 3 -27 callgsubr
        hhcurveto
        9 8 7 9 7 -3 7 -6 3 hvcurveto
        -104 55 rlineto
        3 -5 -6 2 -6 hhcurveto
        -6 -6 -2 -3 -5 hvcurveto
        -104 -56 rlineto
        -6 -3 -3 -6 -5 vvcurveto
        return
      </CharString>
      <CharString index="36">
        vvcurveto
        -54 51 -13 36 17 6 3 10 10 -8 3 -10 return
      </CharString>
      <CharString index="37">
        -71 callsubr
        -10 -7 -7 -10 vhcurveto
        return
      </CharString>
      <CharString index="38">
        -10 -7 -8 -10 return
      </CharString>
      <CharString index="39">
        9 -6 9 return
      </CharString>
      <CharString index="40">
        -6 35 -35 76 153 -46 callgsubr
        return
      </CharString>
      <CharString index="41">
        rmoveto
        35 31 10 23 20 hvcurveto
        -76 vlineto
        -52 -31 -24 -51 -45 -37 22 34 10 -8 4 -9 -10 -6 -4 -12 -43 40 -42 74 66 50 29 78 vhcurveto
        18 callgsubr
        -12 vlineto
        -77 49 -23 62 vhcurveto
        86 97 rmoveto
        -50 -33 -18 -49 -51 -30 20 52 vhcurveto
        12 vlineto
        52 30 24 51 51 31 -24 -52 vhcurveto
        endchar
      </CharString>
      <CharString index="42">
        -18 -14 -14 -17 -17 14 -15 18 17 14 15 17 17 -14 14 -17 hvcurveto
        return
      </CharString>
      <CharString index="43">
        -2 0 -2 -2 vvcurveto
        return
      </CharString>
      <CharString index="44">
        12 -41 callsubr
        return
      </CharString>
      <CharString index="45">
        35 vstem
        57 358 rmoveto
        -217 163 -106 141 139 171 104 223 217 -163 106 -141 -139 -171 -104 -223 vhcurveto
        579 4 rmoveto
        -173 -116 -119 -159 -161 -108 121 167 173 116 119 159 161 108 -121 -167 vhcurveto
        return
      </CharString>
      <CharString index="46">
        -116 -59 -54 -100 -88 -72 42 89 12 -10 6 -9 -9 -8 -6 -14 -92 73 -73 123 110 85 56 150 vhcurveto
        513 vlineto
        12 -9 6 -9 vhcurveto
        return
      </CharString>
      <CharString index="47">
        vlineto
        -89 -10 -65 -77 -10 -8 -7 -10 -10 callgsubr
        92 30 78 111 vhcurveto
        return
      </CharString>
      <CharString index="48">
        480 -6 callgsubr
        -40 -78 rlineto
        34 -36 -49 15 -56 hhcurveto
        -70 callsubr
        hvcurveto
        -24 callsubr
        -49 9 -39 16 -31 vhcurveto
        -40 -77 -50 callsubr
        31 59 rlineto
        return
      </CharString>
      <CharString index="49">
        -70 callsubr
        vhcurveto
        return
      </CharString>
      <CharString index="50">
        -32 callgsubr
        214 hlineto
        10 -27 callsubr
        -8 -9 -7 -10 vhcurveto
        return
      </CharString>
      <CharString index="51">
        66 139 rmoveto
        -97 51 -42 95 vhcurveto
        23 hlineto
        9 8 8 10 10 -8 7 -9 hvcurveto
        -23 hlineto
        return
      </CharString>
      <CharString index="52">
        0 36 312 -37 callgsubr
        return
      </CharString>
      <CharString index="53">
        -41 22 53 -35 61 hhcurveto
        -33 callgsubr
        hvcurveto
        0 callgsubr
        -82 81 -98 -67 -45 -37 -39 -22 vhcurveto
        349 vlineto
        -71 callsubr
        vhcurveto
        297 -592 rmoveto
        -75 -65 -72 -76 -79 -59 76 34 vhcurveto
        159 vlineto
        91 69 54 68 78 64 -72 -73 vhcurveto
        endchar
      </CharString>
      <CharString index="54">
        -9 -30 callgsubr
        return
      </CharString>
      <CharString index="55">
        rmoveto
        -1 callsubr
        hvcurveto
        155 vlineto
        -94 callsubr
        endchar
      </CharString>
      <CharString index="56">
        53 21 -44 callsubr
        return
      </CharString>
      <CharString index="57">
        hlineto
        -54 callsubr
      </CharString>
      <CharString index="58">
        rlineto
        -1 -64 callgsubr
        return
      </CharString>
      <CharString index="59">
        9 9 7 return
      </CharString>
      <CharString index="60">
        35 414 35 return
      </CharString>
      <CharString index="61">
        35 185 35 return
      </CharString>
      <CharString index="62">
        10 -7 7 -10 vhcurveto
        -297 -470 rmoveto
        73 64 72 78 68 69 -54 -91 vhcurveto
        -159 vlineto
        return
      </CharString>
      <CharString index="63">
        vlineto
        -12 9 -5 9 9 9 5 12 vhcurveto
        return
      </CharString>
      <CharString index="64">
        36 319 return
      </CharString>
      <CharString index="65">
        -40 callgsubr
        15 62 rlineto
        return
      </CharString>
      <CharString index="66">
        653 rmoveto
        -103 callsubr
        return
      </CharString>
      <CharString index="67">
        -84 -82 callgsubr
        return
      </CharString>
      <CharString index="68">
        -46 -35 -37 -41 vhcurveto
        return
      </CharString>
      <CharString index="69">
        rmoveto
        -93 callsubr
        53 vlineto
        return
      </CharString>
      <CharString index="70">
        36 311 36 return
      </CharString>
      <CharString index="71">
        -66 -6 35 -35 76 332 76 -35 35 return
      </CharString>
      <CharString index="72">
        6 callgsubr
        -17 callsubr
        -9 vhcurveto
        return
      </CharString>
      <CharString index="73">
        -33 callsubr
        -6 -20 return
      </CharString>
      <CharString index="74">
        95 83 87 95 return
      </CharString>
      <CharString index="75">
        -57 callsubr
        -135 return
      </CharString>
      <CharString index="76">
        21 -34 callgsubr
        return
      </CharString>
      <CharString index="77">
        8 -6 8 return
      </CharString>
      <CharString index="78">
        -1 callgsubr
        52 32 37 40 39 return
      </CharString>
      <CharString index="79">
        -9 callgsubr
        10 return
      </CharString>
      <CharString index="80">
        3 -2 3 return
      </CharString>
      <CharString index="81">
        rmoveto
        -12 -5 -9 -8 -10 6 -9 11 hvcurveto
        159 -495 hlineto
        return
      </CharString>
      <CharString index="82">
        -54 -116 vhcurveto
        return
      </CharString>
      <CharString index="83">
        36 -36 122 579 36 return
      </CharString>
      <CharString index="84">
        -3 31 -27 -21 355 31 -4 31 307 31 37 -20 hstemhm
        46 -13 callgsubr
        189 -13 callgsubr
        return
      </CharString>
</ttFont>
